ISO-10303-21;
HEADER;
FILE_DESCRIPTION (( 'STEP AP203' ),
    '1' );
FILE_NAME ('FD-012_sensor_bracket.STEP',
    '2026-07-28T17:09:42',
    ( '' ),
    ( '' ),
    'SwSTEP 2.0',
    'SolidWorks 2023',
    '' );
FILE_SCHEMA (( 'CONFIG_CONTROL_DESIGN' ));
ENDSEC;

DATA;
#1 = CARTESIAN_POINT ( 'NONE',  ( 85.00000000000000000, 10.00000000000000000, 60.00000000000000000 ) ) ;
#2 = VECTOR ( 'NONE', #427, 1000.000000000000000 ) ;
#3 = DIRECTION ( 'NONE',  ( 0.000000000000000000, 1.000000000000000000, 0.000000000000000000 ) ) ;
#4 = CARTESIAN_POINT ( 'NONE',  ( 64.58429561200922819, 10.00000000000000000, 45.58891454965358747 ) ) ;
#5 = LOCAL_TIME ( 1, 9, 42.00000000000000000, #697 ) ;
#6 = VERTEX_POINT ( 'NONE', #593 ) ;
#7 = CALENDAR_DATE ( 2026, 29, 7 ) ;
#8 = ORIENTED_EDGE ( 'NONE', *, *, #242, .F. ) ;
#9 =( NAMED_UNIT ( * ) PLANE_ANGLE_UNIT ( ) SI_UNIT ( $, .RADIAN. ) );
#10 = PERSON_AND_ORGANIZATION ( #132, #201 ) ;
#11 = EDGE_LOOP ( 'NONE', ( #434, #82, #589, #663 ) ) ;
#12 = EDGE_CURVE ( 'NONE', #487, #511, #101, .T. ) ;
#13 = DIRECTION ( 'NONE',  ( -0.000000000000000000, -1.000000000000000000, -0.000000000000000000 ) ) ;
#14 = CIRCLE ( 'NONE', #81, 4.084295612009243293 ) ;
#15 = AXIS2_PLACEMENT_3D ( 'NONE', #119, #491, #368 ) ;
#16 = LINE ( 'NONE', #215, #154 ) ;
#17 = VERTEX_POINT ( 'NONE', #74 ) ;
#18 = EDGE_CURVE ( 'NONE', #620, #548, #520, .T. ) ;
#19 = VECTOR ( 'NONE', #461, 1000.000000000000000 ) ;
#20 = ORIENTED_EDGE ( 'NONE', *, *, #715, .T. ) ;
#21 = CARTESIAN_POINT ( 'NONE',  ( -11.00000000000000000, 10.00000000000000000, -45.58891454965356616 ) ) ;
#22 = DIRECTION ( 'NONE',  ( -1.000000000000000000, -0.000000000000000000, -0.000000000000000000 ) ) ;
#23 = CARTESIAN_POINT ( 'NONE',  ( 0.000000000000000000, 10.00000000000000000, 0.000000000000000000 ) ) ;
#24 = CARTESIAN_POINT ( 'NONE',  ( 85.00000000000000000, 10.00000000000000000, -60.00000000000000000 ) ) ;
#25 = ORIENTED_EDGE ( 'NONE', *, *, #523, .T. ) ;
#26 = DIRECTION ( 'NONE',  ( 0.000000000000000000, 0.000000000000000000, 1.000000000000000000 ) ) ;
#27 = VECTOR ( 'NONE', #168, 1000.000000000000000 ) ;
#28 = CARTESIAN_POINT ( 'NONE',  ( 64.58429561200922819, 10.00000000000000000, 45.58891454965358747 ) ) ;
#29 = DIRECTION ( 'NONE',  ( 1.000000000000000000, 0.000000000000000000, 0.000000000000000000 ) ) ;
#30 = AXIS2_PLACEMENT_3D ( 'NONE', #630, #569, #66 ) ;
#31 = ADVANCED_FACE ( 'NONE', ( #325 ), #275, .T. ) ;
#32 = DIRECTION ( 'NONE',  ( 0.000000000000000000, 0.000000000000000000, -1.000000000000000000 ) ) ;
#33 = ORIENTED_EDGE ( 'NONE', *, *, #420, .F. ) ;
#34 = DIRECTION ( 'NONE',  ( 0.000000000000000000, 0.000000000000000000, 1.000000000000000000 ) ) ;
#35 = ORIENTED_EDGE ( 'NONE', *, *, #298, .F. ) ;
#36 = PLANE ( 'NONE',  #72 ) ;
#37 = PLANE ( 'NONE',  #220 ) ;
#38 = PLANE ( 'NONE',  #557 ) ;
#39 = LINE ( 'NONE', #470, #473 ) ;
#40 = CARTESIAN_POINT ( 'NONE',  ( -57.50000000000000000, 10.00000000000000000, 0.000000000000000000 ) ) ;
#41 = ORIENTED_EDGE ( 'NONE', *, *, #333, .T. ) ;
#42 = CARTESIAN_POINT ( 'NONE',  ( 11.00000000000000000, 10.00000000000000000, 15.58891454965356793 ) ) ;
#43 = AXIS2_PLACEMENT_3D ( 'NONE', #28, #502, #743 ) ;
#44 = VECTOR ( 'NONE', #594, 1000.000000000000000 ) ;
#45 = EDGE_LOOP ( 'NONE', ( #586, #501, #322, #123 ) ) ;
#46 = DIRECTION ( 'NONE',  ( 0.000000000000000000, 0.000000000000000000, 1.000000000000000000 ) ) ;
#47 = LINE ( 'NONE', #795, #127 ) ;
#48 = EDGE_CURVE ( 'NONE', #614, #292, #708, .T. ) ;
#49 = ORIENTED_EDGE ( 'NONE', *, *, #227, .T. ) ;
#50 = CARTESIAN_POINT ( 'NONE',  ( 57.50000000000000000, 22.00000000000000000, 54.00000000000000000 ) ) ;
#51 = DIRECTION ( 'NONE',  ( 0.000000000000000000, 0.000000000000000000, 1.000000000000000000 ) ) ;
#52 = ORIENTED_EDGE ( 'NONE', *, *, #436, .T. ) ;
#53 = CARTESIAN_POINT ( 'NONE',  ( 64.58429561200922819, 0.000000000000000000, 45.58891454965358747 ) ) ;
#54 = ORIENTED_EDGE ( 'NONE', *, *, #527, .F. ) ;
#55 = ORIENTED_EDGE ( 'NONE', *, *, #376, .F. ) ;
#56 = EDGE_CURVE ( 'NONE', #781, #614, #772, .T. ) ;
#57 = AXIS2_PLACEMENT_3D ( 'NONE', #547, #358, #304 ) ;
#58 = APPROVAL_PERSON_ORGANIZATION ( #758, #631, #272 ) ;
#59 = CARTESIAN_POINT ( 'NONE',  ( -11.00000000000000000, 10.00000000000000000, 15.58891454965356793 ) ) ;
#60 = FACE_OUTER_BOUND ( 'NONE', #621, .T. ) ;
#61 = EDGE_LOOP ( 'NONE', ( #810, #463, #223, #378 ) ) ;
#62 = ORIENTED_EDGE ( 'NONE', *, *, #617, .T. ) ;
#63 = PLANE ( 'NONE',  #308 ) ;
#64 = CARTESIAN_POINT ( 'NONE',  ( -85.00000000000000000, 10.00000000000000000, -60.00000000000000000 ) ) ;
#65 = VERTEX_POINT ( 'NONE', #296 ) ;
#66 = DIRECTION ( 'NONE',  ( 0.000000000000000000, 0.000000000000000000, -1.000000000000000000 ) ) ;
#67 = APPROVAL_STATUS ( 'not_yet_approved' ) ;
#68 = DIRECTION ( 'NONE',  ( -0.000000000000000000, -1.000000000000000000, -0.000000000000000000 ) ) ;
#69 = LINE ( 'NONE', #678, #623 ) ;
#70 = EDGE_CURVE ( 'NONE', #71, #805, #39, .T. ) ;
#71 = VERTEX_POINT ( 'NONE', #538 ) ;
#72 = AXIS2_PLACEMENT_3D ( 'NONE', #415, #408, #157 ) ;
#73 = CIRCLE ( 'NONE', #170, 4.084295612009243293 ) ;
#74 = CARTESIAN_POINT ( 'NONE',  ( -11.00000000000000000, 0.000000000000000000, 15.58891454965356793 ) ) ;
#75 = ORIENTED_EDGE ( 'NONE', *, *, #459, .F. ) ;
#76 =( NAMED_UNIT ( * ) SI_UNIT ( $, .STERADIAN. ) SOLID_ANGLE_UNIT ( ) );
#77 = EDGE_CURVE ( 'NONE', #6, #789, #720, .T. ) ;
#78 = PERSON_AND_ORGANIZATION_ROLE ( 'creator' ) ;
#79 = VERTEX_POINT ( 'NONE', #96 ) ;
#80 = EDGE_CURVE ( 'NONE', #366, #781, #91, .T. ) ;
#81 = AXIS2_PLACEMENT_3D ( 'NONE', #346, #175, #350 ) ;
#82 = ORIENTED_EDGE ( 'NONE', *, *, #77, .F. ) ;
#83 = CARTESIAN_POINT ( 'NONE',  ( -85.00000000000000000, 10.00000000000000000, 60.00000000000000000 ) ) ;
#84 = EDGE_CURVE ( 'NONE', #93, #198, #118, .T. ) ;
#85 = ORIENTED_EDGE ( 'NONE', *, *, #70, .T. ) ;
#86 = DIRECTION ( 'NONE',  ( 0.000000000000000000, 0.000000000000000000, 1.000000000000000000 ) ) ;
#87 = ORIENTED_EDGE ( 'NONE', *, *, #607, .T. ) ;
#88 = EDGE_CURVE ( 'NONE', #366, #17, #785, .T. ) ;
#89 = CARTESIAN_POINT ( 'NONE',  ( 0.000000000000000000, 0.000000000000000000, 0.000000000000000000 ) ) ;
#90 = FACE_OUTER_BOUND ( 'NONE', #150, .T. ) ;
#91 = LINE ( 'NONE', #351, #760 ) ;
#92 = LINE ( 'NONE', #280, #788 ) ;
#93 = VERTEX_POINT ( 'NONE', #423 ) ;
#94 = CC_DESIGN_PERSON_AND_ORGANIZATION_ASSIGNMENT ( #639, #584, ( #738 ) ) ;
#95 = CARTESIAN_POINT ( 'NONE',  ( 64.58429561200922819, 10.00000000000000000, 40.67321016166280856 ) ) ;
#96 = CARTESIAN_POINT ( 'NONE',  ( -64.58429561200924240, 0.000000000000000000, -41.50461893764433796 ) ) ;
#97 = FACE_OUTER_BOUND ( 'NONE', #443, .T. ) ;
#98 = LINE ( 'NONE', #604, #142 ) ;
#99 = CARTESIAN_POINT ( 'NONE',  ( -57.50000000000000000, 22.00000000000000000, 36.00000000000000000 ) ) ;
#101 = CIRCLE ( 'NONE', #718, 4.084295612009243293 ) ;
#100 = DIRECTION ( 'NONE',  ( 0.000000000000000000, 0.000000000000000000, -1.000000000000000000 ) ) ;
#102 = ADVANCED_FACE ( 'NONE', ( #716, #418, #602, #665, #409, #484 ), #357, .T. ) ;
#103 = EDGE_LOOP ( 'NONE', ( #359, #310, #564, #208 ) ) ;
#104 = CARTESIAN_POINT ( 'NONE',  ( -64.58429561200924240, 10.00000000000000000, 49.67321016166282277 ) ) ;
#105 = CARTESIAN_POINT ( 'NONE',  ( 0.000000000000000000, 10.00000000000000000, 54.00000000000000000 ) ) ;
#106 = CYLINDRICAL_SURFACE ( 'NONE', #57, 4.084295612009243293 ) ;
#107 = ADVANCED_FACE ( 'NONE', ( #790 ), #37, .F. ) ;
#108 = ORIENTED_EDGE ( 'NONE', *, *, #324, .T. ) ;
#109 = CARTESIAN_POINT ( 'NONE',  ( -11.00000000000000000, 10.00000000000000000, -45.58891454965356616 ) ) ;
#110 = CARTESIAN_POINT ( 'NONE',  ( -57.50000000000000000, 22.00000000000000000, 54.00000000000000000 ) ) ;
#111 = VECTOR ( 'NONE', #68, 1000.000000000000000 ) ;
#112 = VECTOR ( 'NONE', #714, 1000.000000000000000 ) ;
#113 = ORIENTED_EDGE ( 'NONE', *, *, #672, .F. ) ;
#114 = LINE ( 'NONE', #50, #701 ) ;
#115 = CARTESIAN_POINT ( 'NONE',  ( 64.58429561200922819, 10.00000000000000000, -45.58891454965356616 ) ) ;
#116 = DIRECTION ( 'NONE',  ( -0.000000000000000000, -1.000000000000000000, -0.000000000000000000 ) ) ;
#117 = ORIENTED_EDGE ( 'NONE', *, *, #169, .T. ) ;
#118 = CIRCLE ( 'NONE', #407, 4.084295612009243293 ) ;
#119 = CARTESIAN_POINT ( 'NONE',  ( -11.00000000000000000, 10.00000000000000000, 15.58891454965356793 ) ) ;
#120 = DIRECTION ( 'NONE',  ( 0.000000000000000000, 0.000000000000000000, 1.000000000000000000 ) ) ;
#121 = ADVANCED_FACE ( 'NONE', ( #661, #534, #234, #228, #181, #363, #723 ), #532, .F. ) ;
#122 = CARTESIAN_POINT ( 'NONE',  ( 64.58429561200922819, 10.00000000000000000, -40.67321016166279435 ) ) ;
#123 = ORIENTED_EDGE ( 'NONE', *, *, #149, .T. ) ;
#124 = CARTESIAN_POINT ( 'NONE',  ( -85.00000000000000000, 10.00000000000000000, 60.00000000000000000 ) ) ;
#125 = EDGE_LOOP ( 'NONE', ( #669, #85, #49, #609 ) ) ;
#126 = VERTEX_POINT ( 'NONE', #279 ) ;
#127 = VECTOR ( 'NONE', #238, 1000.000000000000000 ) ;
#128 = VECTOR ( 'NONE', #336, 1000.000000000000000 ) ;
#129 = AXIS2_PLACEMENT_3D ( 'NONE', #147, #644, #137 ) ;
#130 = APPROVAL_STATUS ( 'not_yet_approved' ) ;
#131 = CARTESIAN_POINT ( 'NONE',  ( 57.50000000000000000, 10.00000000000000000, 0.000000000000000000 ) ) ;
#132 = PERSON ( '未', '未', '未', ('未'), ('未'), ('未') ) ;
#133 = VERTEX_POINT ( 'NONE', #99 ) ;
#134 = ADVANCED_FACE ( 'NONE', ( #753 ), #239, .F. ) ;
#135 = CARTESIAN_POINT ( 'NONE',  ( -64.58429561200924240, 10.00000000000000000, -41.50461893764433796 ) ) ;
#136 = ORIENTED_EDGE ( 'NONE', *, *, #396, .F. ) ;
#137 = DIRECTION ( 'NONE',  ( 0.000000000000000000, 0.000000000000000000, 1.000000000000000000 ) ) ;
#138 = CARTESIAN_POINT ( 'NONE',  ( -11.00000000000000000, 10.00000000000000000, 15.58891454965356793 ) ) ;
#139 = APPROVAL_STATUS ( 'not_yet_approved' ) ;
#140 = ORIENTED_EDGE ( 'NONE', *, *, #481, .T. ) ;
#141 = CARTESIAN_POINT ( 'NONE',  ( 11.00000000000000000, 10.00000000000000000, 15.58891454965356793 ) ) ;
#142 = VECTOR ( 'NONE', #22, 1000.000000000000000 ) ;
#143 = DATE_AND_TIME ( #577, #648 ) ;
#144 = AXIS2_PLACEMENT_3D ( 'NONE', #419, #666, #365 ) ;
#145 = DIRECTION ( 'NONE',  ( -0.000000000000000000, -1.000000000000000000, -0.000000000000000000 ) ) ;
#146 = ORIENTED_EDGE ( 'NONE', *, *, #719, .F. ) ;
#147 = CARTESIAN_POINT ( 'NONE',  ( -64.58429561200924240, 0.000000000000000000, -45.58891454965358037 ) ) ;
#148 = COORDINATED_UNIVERSAL_TIME_OFFSET ( 8, 0, .AHEAD. ) ;
#149 = EDGE_CURVE ( 'NONE', #645, #548, #388, .T. ) ;
#150 = EDGE_LOOP ( 'NONE', ( #524, #446, #683, #769 ) ) ;
#151 = DIRECTION ( 'NONE',  ( 1.000000000000000000, -0.000000000000000000, 0.000000000000000000 ) ) ;
#152 = CARTESIAN_POINT ( 'NONE',  ( -11.00000000000000000, 10.00000000000000000, -45.58891454965356616 ) ) ;
#153 = LINE ( 'NONE', #647, #128 ) ;
#154 = VECTOR ( 'NONE', #460, 1000.000000000000000 ) ;
#155 = AXIS2_PLACEMENT_3D ( 'NONE', #167, #34, #226 ) ;
#156 = APPROVAL_PERSON_ORGANIZATION ( #10, #256, #766 ) ;
#157 = DIRECTION ( 'NONE',  ( 0.000000000000000000, 0.000000000000000000, 1.000000000000000000 ) ) ;
#158 = EDGE_LOOP ( 'NONE', ( #625, #432, #745, #190 ) ) ;
#159 = LINE ( 'NONE', #405, #522 ) ;
#160 = EDGE_CURVE ( 'NONE', #198, #65, #16, .T. ) ;
#161 = VECTOR ( 'NONE', #526, 1000.000000000000000 ) ;
#162 = UNCERTAINTY_MEASURE_WITH_UNIT (LENGTH_MEASURE( 1.000000000000000082E-05 ), #328, 'distance_accuracy_value', 'NONE');
#163 = CARTESIAN_POINT ( 'NONE',  ( -11.00000000000000000, 10.00000000000000000, 15.58891454965356793 ) ) ;
#164 = DIRECTION ( 'NONE',  ( -0.000000000000000000, -1.000000000000000000, -0.000000000000000000 ) ) ;
#165 = CARTESIAN_POINT ( 'NONE',  ( 0.000000000000000000, 0.000000000000000000, 0.000000000000000000 ) ) ;
#166 = LINE ( 'NONE', #222, #283 ) ;
#167 = CARTESIAN_POINT ( 'NONE',  ( -57.50000000000000000, 22.00000000000000000, 36.00000000000000000 ) ) ;
#168 = DIRECTION ( 'NONE',  ( -0.000000000000000000, -1.000000000000000000, -0.000000000000000000 ) ) ;
#169 = EDGE_CURVE ( 'NONE', #330, #517, #659, .T. ) ;
#170 = AXIS2_PLACEMENT_3D ( 'NONE', #410, #475, #596 ) ;
#171 = LINE ( 'NONE', #658, #44 ) ;
#172 = ORIENTED_EDGE ( 'NONE', *, *, #277, .F. ) ;
#173 = PRODUCT_DEFINITION_SHAPE ( 'NONE', 'NONE',  #700 ) ;
#174 = APPLICATION_CONTEXT ( 'configuration controlled 3d designs of mechanical parts and assemblies' ) ;
#175 = DIRECTION ( 'NONE',  ( 0.000000000000000000, 1.000000000000000000, 0.000000000000000000 ) ) ;
#176 = DIRECTION ( 'NONE',  ( -0.000000000000000000, -1.000000000000000000, -0.000000000000000000 ) ) ;
#177 = EDGE_CURVE ( 'NONE', #728, #207, #224, .T. ) ;
#178 = LINE ( 'NONE', #124, #587 ) ;
#179 = ORIENTED_EDGE ( 'NONE', *, *, #762, .T. ) ;
#180 = LINE ( 'NONE', #612, #373 ) ;
#181 = FACE_BOUND ( 'NONE', #561, .T. ) ;
#182 = CARTESIAN_POINT ( 'NONE',  ( -85.00000000000000000, 0.000000000000000000, -60.00000000000000000 ) ) ;
#183 = ORIENTED_EDGE ( 'NONE', *, *, #70, .F. ) ;
#184 = CARTESIAN_POINT ( 'NONE',  ( 0.000000000000000000, 10.00000000000000000, 36.00000000000000000 ) ) ;
#185 = AXIS2_PLACEMENT_3D ( 'NONE', #214, #151, #397 ) ;
#186 = ORIENTED_EDGE ( 'NONE', *, *, #160, .F. ) ;
#187 = EDGE_CURVE ( 'NONE', #511, #487, #14, .T. ) ;
#188 = DIRECTION ( 'NONE',  ( 1.000000000000000000, -0.000000000000000000, 0.000000000000000000 ) ) ;
#189 = PLANE ( 'NONE',  #646 ) ;
#190 = ORIENTED_EDGE ( 'NONE', *, *, #472, .T. ) ;
#191 = FACE_OUTER_BOUND ( 'NONE', #608, .T. ) ;
#192 = LINE ( 'NONE', #131, #221 ) ;
#193 = LINE ( 'NONE', #792, #468 ) ;
#194 = EDGE_LOOP ( 'NONE', ( #305, #731 ) ) ;
#195 = ORIENTED_EDGE ( 'NONE', *, *, #756, .T. ) ;
#196 = DIRECTION ( 'NONE',  ( -0.000000000000000000, -0.000000000000000000, 1.000000000000000000 ) ) ;
#197 = ADVANCED_FACE ( 'NONE', ( #601 ), #464, .F. ) ;
#198 = VERTEX_POINT ( 'NONE', #104 ) ;
#199 = ORIENTED_EDGE ( 'NONE', *, *, #337, .T. ) ;
#200 = VECTOR ( 'NONE', #615, 1000.000000000000000 ) ;
#201 = ORGANIZATION ( '未', '未', '' ) ;
#202 = ORIENTED_EDGE ( 'NONE', *, *, #649, .F. ) ;
#203 = ADVANCED_FACE ( 'NONE', ( #711 ), #36, .F. ) ;
#204 = CARTESIAN_POINT ( 'NONE',  ( -11.00000000000000000, 0.000000000000000000, 15.58891454965356793 ) ) ;
#205 = DATE_AND_TIME ( #7, #377 ) ;
#206 = DIRECTION ( 'NONE',  ( 0.000000000000000000, 0.000000000000000000, 1.000000000000000000 ) ) ;
#207 = VERTEX_POINT ( 'NONE', #356 ) ;
#208 = ORIENTED_EDGE ( 'NONE', *, *, #806, .F. ) ;
#209 = AXIS2_PLACEMENT_3D ( 'NONE', #398, #480, #655 ) ;
#210 = DATE_AND_TIME ( #262, #5 ) ;
#211 = CIRCLE ( 'NONE', #430, 4.915704387990778024 ) ;
#212 = LOCAL_TIME ( 1, 9, 42.00000000000000000, #317 ) ;
#213 = CARTESIAN_POINT ( 'NONE',  ( -85.00000000000000000, 0.000000000000000000, -60.00000000000000000 ) ) ;
#214 = CARTESIAN_POINT ( 'NONE',  ( -11.00000000000000000, 10.00000000000000000, 15.58891454965356793 ) ) ;
#215 = CARTESIAN_POINT ( 'NONE',  ( -64.58429561200924240, 10.00000000000000000, 49.67321016166282277 ) ) ;
#216 = DIRECTION ( 'NONE',  ( 0.000000000000000000, 0.000000000000000000, 1.000000000000000000 ) ) ;
#217 = DIRECTION ( 'NONE',  ( 0.000000000000000000, 0.000000000000000000, -1.000000000000000000 ) ) ;
#218 = ORIENTED_EDGE ( 'NONE', *, *, #291, .F. ) ;
#219 = CARTESIAN_POINT ( 'NONE',  ( -85.00000000000000000, 10.00000000000000000, -60.00000000000000000 ) ) ;
#220 = AXIS2_PLACEMENT_3D ( 'NONE', #110, #293, #285 ) ;
#221 = VECTOR ( 'NONE', #250, 1000.000000000000000 ) ;
#222 = CARTESIAN_POINT ( 'NONE',  ( -85.00000000000000000, 10.00000000000000000, 60.00000000000000000 ) ) ;
#223 = ORIENTED_EDGE ( 'NONE', *, *, #780, .F. ) ;
#224 = LINE ( 'NONE', #95, #27 ) ;
#225 = DIRECTION ( 'NONE',  ( -0.000000000000000000, -0.000000000000000000, 1.000000000000000000 ) ) ;
#226 = DIRECTION ( 'NONE',  ( 1.000000000000000000, 0.000000000000000000, -0.000000000000000000 ) ) ;
#227 = EDGE_CURVE ( 'NONE', #805, #682, #98, .T. ) ;
#228 = FACE_BOUND ( 'NONE', #194, .T. ) ;
#229 = CARTESIAN_POINT ( 'NONE',  ( -64.58429561200924240, 10.00000000000000000, -41.50461893764433796 ) ) ;
#230 = EDGE_CURVE ( 'NONE', #439, #581, #288, .T. ) ;
#231 = AXIS2_PLACEMENT_3D ( 'NONE', #544, #559, #499 ) ;
#232 = DIRECTION ( 'NONE',  ( -0.000000000000000000, -0.000000000000000000, 1.000000000000000000 ) ) ;
#233 = ORIENTED_EDGE ( 'NONE', *, *, #337, .F. ) ;
#234 = FACE_BOUND ( 'NONE', #253, .T. ) ;
#235 = DIRECTION ( 'NONE',  ( 1.000000000000000000, 0.000000000000000000, 0.000000000000000000 ) ) ;
#236 = ADVANCED_FACE ( 'NONE', ( #90 ), #595, .F. ) ;
#237 = ORIENTED_EDGE ( 'NONE', *, *, #459, .T. ) ;
#238 = DIRECTION ( 'NONE',  ( 0.000000000000000000, 0.000000000000000000, -1.000000000000000000 ) ) ;
#239 = CYLINDRICAL_SURFACE ( 'NONE', #684, 4.915704387990778024 ) ;
#240 = CARTESIAN_POINT ( 'NONE',  ( -85.00000000000000000, 0.000000000000000000, 60.00000000000000000 ) ) ;
#241 = EDGE_LOOP ( 'NONE', ( #246, #338, #690, #25 ) ) ;
#242 = EDGE_CURVE ( 'NONE', #682, #17, #180, .T. ) ;
#243 = PLANE ( 'NONE',  #15 ) ;
#244 = DIRECTION ( 'NONE',  ( -0.000000000000000000, -1.000000000000000000, -0.000000000000000000 ) ) ;
#245 = AXIS2_PLACEMENT_3D ( 'NONE', #320, #811, #259 ) ;
#246 = ORIENTED_EDGE ( 'NONE', *, *, #360, .F. ) ;
#247 = LINE ( 'NONE', #668, #200 ) ;
#248 = ORIENTED_EDGE ( 'NONE', *, *, #160, .T. ) ;
#249 = ORIENTED_EDGE ( 'NONE', *, *, #12, .F. ) ;
#250 = DIRECTION ( 'NONE',  ( 0.000000000000000000, 0.000000000000000000, -1.000000000000000000 ) ) ;
#251 = ADVANCED_FACE ( 'NONE', ( #555 ), #622, .F. ) ;
#252 = ORIENTED_EDGE ( 'NONE', *, *, #311, .T. ) ;
#253 = EDGE_LOOP ( 'NONE', ( #629, #389 ) ) ;
#254 = COORDINATED_UNIVERSAL_TIME_OFFSET ( 8, 0, .AHEAD. ) ;
#255 = DIRECTION ( 'NONE',  ( 0.000000000000000000, 0.000000000000000000, 1.000000000000000000 ) ) ;
#256 = APPROVAL ( #139, '未' ) ;
#257 = EDGE_LOOP ( 'NONE', ( #384, #62, #515, #314 ) ) ;
#258 = VECTOR ( 'NONE', #533, 1000.000000000000000 ) ;
#259 = DIRECTION ( 'NONE',  ( 0.000000000000000000, 0.000000000000000000, 1.000000000000000000 ) ) ;
#260 = LINE ( 'NONE', #204, #786 ) ;
#261 = AXIS2_PLACEMENT_3D ( 'NONE', #339, #535, #784 ) ;
#262 = CALENDAR_DATE ( 2026, 29, 7 ) ;
#263 = DIRECTION ( 'NONE',  ( -0.000000000000000000, -1.000000000000000000, -0.000000000000000000 ) ) ;
#264 = ORIENTED_EDGE ( 'NONE', *, *, #529, .F. ) ;
#265 = CARTESIAN_POINT ( 'NONE',  ( 57.50000000000000000, 10.00000000000000000, 54.00000000000000000 ) ) ;
#266 = APPROVAL_DATE_TIME ( #210, #694 ) ;
#267 = ORIENTED_EDGE ( 'NONE', *, *, #402, .F. ) ;
#268 = EDGE_CURVE ( 'NONE', #487, #797, #247, .T. ) ;
#269 = DATE_AND_TIME ( #513, #688 ) ;
#270 = ORIENTED_EDGE ( 'NONE', *, *, #426, .T. ) ;
#271 = CARTESIAN_POINT ( 'NONE',  ( 11.00000000000000000, 0.000000000000000000, -45.58891454965356616 ) ) ;
#272 = APPROVAL_ROLE ( '' ) ;
#273 = CIRCLE ( 'NONE', #441, 4.915704387990778024 ) ;
#274 = ORIENTED_EDGE ( 'NONE', *, *, #80, .F. ) ;
#275 = PLANE ( 'NONE',  #578 ) ;
#276 = FACE_OUTER_BOUND ( 'NONE', #676, .T. ) ;
#277 = EDGE_CURVE ( 'NONE', #292, #366, #498, .T. ) ;
#278 = CARTESIAN_POINT ( 'NONE',  ( -85.00000000000000000, 10.00000000000000000, 60.00000000000000000 ) ) ;
#279 = CARTESIAN_POINT ( 'NONE',  ( -57.50000000000000000, 10.00000000000000000, 36.00000000000000000 ) ) ;
#280 = CARTESIAN_POINT ( 'NONE',  ( -85.00000000000000000, 10.00000000000000000, -60.00000000000000000 ) ) ;
#281 = EDGE_LOOP ( 'NONE', ( #695, #146 ) ) ;
#282 = VECTOR ( 'NONE', #164, 1000.000000000000000 ) ;
#283 = VECTOR ( 'NONE', #471, 1000.000000000000000 ) ;
#284 =( GEOMETRIC_REPRESENTATION_CONTEXT ( 3 ) GLOBAL_UNCERTAINTY_ASSIGNED_CONTEXT ( ( #162 ) ) GLOBAL_UNIT_ASSIGNED_CONTEXT ( ( #328, #9, #76 ) ) REPRESENTATION_CONTEXT ( 'NONE', 'WORKASPACE' ) );
#285 = DIRECTION ( 'NONE',  ( -1.000000000000000000, 0.000000000000000000, -0.000000000000000000 ) ) ;
#286 = CARTESIAN_POINT ( 'NONE',  ( 64.58429561200922819, 10.00000000000000000, -45.58891454965356616 ) ) ;
#287 = EDGE_LOOP ( 'NONE', ( #20, #741 ) ) ;
#288 = LINE ( 'NONE', #278, #597 ) ;
#289 = DIRECTION ( 'NONE',  ( 0.000000000000000000, -0.000000000000000000, -1.000000000000000000 ) ) ;
#290 = CARTESIAN_POINT ( 'NONE',  ( 57.50000000000000000, 22.00000000000000000, 36.00000000000000000 ) ) ;
#291 = EDGE_CURVE ( 'NONE', #417, #133, #686, .T. ) ;
#292 = VERTEX_POINT ( 'NONE', #109 ) ;
#293 = DIRECTION ( 'NONE',  ( 0.000000000000000000, 0.000000000000000000, -1.000000000000000000 ) ) ;
#294 = ORIENTED_EDGE ( 'NONE', *, *, #187, .T. ) ;
#295 = VECTOR ( 'NONE', #777, 1000.000000000000000 ) ;
#296 = CARTESIAN_POINT ( 'NONE',  ( -64.58429561200924240, 0.000000000000000000, 49.67321016166282277 ) ) ;
#297 = ORIENTED_EDGE ( 'NONE', *, *, #187, .F. ) ;
#298 = EDGE_CURVE ( 'NONE', #801, #620, #47, .T. ) ;
#299 = VECTOR ( 'NONE', #29, 1000.000000000000000 ) ;
#300 = FACE_OUTER_BOUND ( 'NONE', #257, .T. ) ;
#301 = ORIENTED_EDGE ( 'NONE', *, *, #583, .T. ) ;
#302 = DIRECTION ( 'NONE',  ( 0.000000000000000000, 0.000000000000000000, -1.000000000000000000 ) ) ;
#303 = LINE ( 'NONE', #550, #391 ) ;
#304 = DIRECTION ( 'NONE',  ( 0.000000000000000000, 0.000000000000000000, -1.000000000000000000 ) ) ;
#305 = ORIENTED_EDGE ( 'NONE', *, *, #640, .F. ) ;
#306 = CARTESIAN_POINT ( 'NONE',  ( -57.50000000000000000, 22.00000000000000000, 54.00000000000000000 ) ) ;
#307 = DIRECTION ( 'NONE',  ( 0.000000000000000000, 1.000000000000000000, 0.000000000000000000 ) ) ;
#308 = AXIS2_PLACEMENT_3D ( 'NONE', #315, #444, #505 ) ;
#309 = EDGE_LOOP ( 'NONE', ( #199, #641 ) ) ;
#310 = ORIENTED_EDGE ( 'NONE', *, *, #381, .T. ) ;
#311 = EDGE_CURVE ( 'NONE', #590, #126, #674, .T. ) ;
#312 = DIRECTION ( 'NONE',  ( 1.000000000000000000, 0.000000000000000000, 0.000000000000000000 ) ) ;
#313 = ORIENTED_EDGE ( 'NONE', *, *, #316, .T. ) ;
#314 = ORIENTED_EDGE ( 'NONE', *, *, #316, .F. ) ;
#315 = CARTESIAN_POINT ( 'NONE',  ( -11.00000000000000000, 10.00000000000000000, -45.58891454965356616 ) ) ;
#316 = EDGE_CURVE ( 'NONE', #643, #417, #114, .T. ) ;
#317 = COORDINATED_UNIVERSAL_TIME_OFFSET ( 8, 0, .AHEAD. ) ;
#318 = CARTESIAN_POINT ( 'NONE',  ( 85.00000000000000000, 0.000000000000000000, -60.00000000000000000 ) ) ;
#319 = ORIENTED_EDGE ( 'NONE', *, *, #722, .T. ) ;
#320 = CARTESIAN_POINT ( 'NONE',  ( -64.58429561200924240, 0.000000000000000000, 45.58891454965358037 ) ) ;
#321 = CARTESIAN_POINT ( 'NONE',  ( -11.00000000000000000, 0.000000000000000000, -45.58891454965356616 ) ) ;
#322 = ORIENTED_EDGE ( 'NONE', *, *, #537, .F. ) ;
#323 = COORDINATED_UNIVERSAL_TIME_OFFSET ( 8, 0, .AHEAD. ) ;
#324 = EDGE_CURVE ( 'NONE', #340, #801, #549, .T. ) ;
#325 = FACE_OUTER_BOUND ( 'NONE', #327, .T. ) ;
#326 = PERSON_AND_ORGANIZATION ( #132, #201 ) ;
#327 = EDGE_LOOP ( 'NONE', ( #183, #746, #667, #503 ) ) ;
#328 =( LENGTH_UNIT ( ) NAMED_UNIT ( * ) SI_UNIT ( .MILLI., .METRE. ) );
#329 = PERSON_AND_ORGANIZATION_ROLE ( 'design_owner' ) ;
#330 = VERTEX_POINT ( 'NONE', #445 ) ;
#331 = VECTOR ( 'NONE', #145, 1000.000000000000000 ) ;
#332 = AXIS2_PLACEMENT_3D ( 'NONE', #512, #447, #696 ) ;
#333 = EDGE_CURVE ( 'NONE', #93, #372, #382, .T. ) ;
#334 = DIRECTION ( 'NONE',  ( 0.000000000000000000, 0.000000000000000000, -1.000000000000000000 ) ) ;
#335 = ORIENTED_EDGE ( 'NONE', *, *, #607, .F. ) ;
#336 = DIRECTION ( 'NONE',  ( -0.000000000000000000, -1.000000000000000000, -0.000000000000000000 ) ) ;
#337 = EDGE_CURVE ( 'NONE', #804, #560, #521, .T. ) ;
#338 = ORIENTED_EDGE ( 'NONE', *, *, #88, .F. ) ;
#339 = CARTESIAN_POINT ( 'NONE',  ( -64.58429561200924240, 10.00000000000000000, 45.58891454965358037 ) ) ;
#340 = VERTEX_POINT ( 'NONE', #1 ) ;
#341 = FACE_OUTER_BOUND ( 'NONE', #354, .T. ) ;
#342 = MECHANICAL_CONTEXT ( 'NONE', #703, 'mechanical' ) ;
#343 = CARTESIAN_POINT ( 'NONE',  ( 0.000000000000000000, 22.00000000000000000, 0.000000000000000000 ) ) ;
#344 = DIRECTION ( 'NONE',  ( 0.000000000000000000, 0.000000000000000000, -1.000000000000000000 ) ) ;
#345 = LINE ( 'NONE', #717, #112 ) ;
#346 = CARTESIAN_POINT ( 'NONE',  ( -64.58429561200924240, 10.00000000000000000, -45.58891454965358037 ) ) ;
#347 = DIRECTION ( 'NONE',  ( 0.000000000000000000, 0.000000000000000000, 1.000000000000000000 ) ) ;
#348 = ADVANCED_FACE ( 'NONE', ( #452 ), #757, .T. ) ;
#349 = LINE ( 'NONE', #606, #507 ) ;
#350 = DIRECTION ( 'NONE',  ( 0.000000000000000000, 0.000000000000000000, 1.000000000000000000 ) ) ;
#351 = CARTESIAN_POINT ( 'NONE',  ( -11.00000000000000000, 10.00000000000000000, 15.58891454965356793 ) ) ;
#352 = PLANE ( 'NONE',  #414 ) ;
#353 = CC_DESIGN_PERSON_AND_ORGANIZATION_ASSIGNMENT ( #518, #632, ( #588 ) ) ;
#354 = EDGE_LOOP ( 'NONE', ( #319, #252, #264, #218 ) ) ;
#355 = CARTESIAN_POINT ( 'NONE',  ( -57.50000000000000000, 22.00000000000000000, 36.00000000000000000 ) ) ;
#356 = CARTESIAN_POINT ( 'NONE',  ( 64.58429561200922819, 0.000000000000000000, 40.67321016166280856 ) ) ;
#357 = PLANE ( 'NONE',  #401 ) ;
#358 = DIRECTION ( 'NONE',  ( -0.000000000000000000, -1.000000000000000000, -0.000000000000000000 ) ) ;
#359 = ORIENTED_EDGE ( 'NONE', *, *, #529, .T. ) ;
#360 = EDGE_CURVE ( 'NONE', #17, #71, #260, .T. ) ;
#361 = CARTESIAN_POINT ( 'NONE',  ( -57.50000000000000000, 22.00000000000000000, 54.00000000000000000 ) ) ;
#362 = VECTOR ( 'NONE', #422, 1000.000000000000000 ) ;
#363 = FACE_BOUND ( 'NONE', #281, .T. ) ;
#364 = CC_DESIGN_APPROVAL ( #256, ( #700 ) ) ;
#365 = DIRECTION ( 'NONE',  ( 0.000000000000000000, 0.000000000000000000, 1.000000000000000000 ) ) ;
#366 = VERTEX_POINT ( 'NONE', #138 ) ;
#367 = ORIENTED_EDGE ( 'NONE', *, *, #291, .T. ) ;
#368 = DIRECTION ( 'NONE',  ( -1.000000000000000000, 0.000000000000000000, -0.000000000000000000 ) ) ;
#369 = DIRECTION ( 'NONE',  ( -0.000000000000000000, -1.000000000000000000, -0.000000000000000000 ) ) ;
#370 = FACE_OUTER_BOUND ( 'NONE', #679, .T. ) ;
#371 = ORIENTED_EDGE ( 'NONE', *, *, #227, .F. ) ;
#372 = VERTEX_POINT ( 'NONE', #386 ) ;
#373 = VECTOR ( 'NONE', #196, 1000.000000000000000 ) ;
#374 = ORIENTED_EDGE ( 'NONE', *, *, #509, .T. ) ;
#375 = EDGE_LOOP ( 'NONE', ( #598, #274, #172, #774 ) ) ;
#376 = EDGE_CURVE ( 'NONE', #517, #560, #349, .T. ) ;
#377 = LOCAL_TIME ( 1, 9, 42.00000000000000000, #254 ) ;
#378 = ORIENTED_EDGE ( 'NONE', *, *, #268, .F. ) ;
#379 = CARTESIAN_POINT ( 'NONE',  ( -57.50000000000000000, 22.00000000000000000, 54.00000000000000000 ) ) ;
#380 = CC_DESIGN_PERSON_AND_ORGANIZATION_ASSIGNMENT ( #699, #78, ( #738 ) ) ;
#381 = EDGE_CURVE ( 'NONE', #126, #6, #400, .T. ) ;
#382 = LINE ( 'NONE', #633, #111 ) ;
#383 = CARTESIAN_POINT ( 'NONE',  ( -64.58429561200924240, 0.000000000000000000, -45.58891454965358037 ) ) ;
#384 = ORIENTED_EDGE ( 'NONE', *, *, #691, .T. ) ;
#385 = CARTESIAN_POINT ( 'NONE',  ( 64.58429561200922819, 0.000000000000000000, -50.50461893764433796 ) ) ;
#386 = CARTESIAN_POINT ( 'NONE',  ( -64.58429561200924240, 0.000000000000000000, 41.50461893764433796 ) ) ;
#387 = ADVANCED_FACE ( 'NONE', ( #97 ), #724, .F. ) ;
#388 = LINE ( 'NONE', #704, #331 ) ;
#389 = ORIENTED_EDGE ( 'NONE', *, *, #509, .F. ) ;
#390 = VECTOR ( 'NONE', #176, 1000.000000000000000 ) ;
#391 = VECTOR ( 'NONE', #244, 1000.000000000000000 ) ;
#392 = AXIS2_PLACEMENT_3D ( 'NONE', #610, #546, #46 ) ;
#393 = ORIENTED_EDGE ( 'NONE', *, *, #277, .T. ) ;
#394 = PERSON_AND_ORGANIZATION_ROLE ( 'creator' ) ;
#395 = ORIENTED_EDGE ( 'NONE', *, *, #426, .F. ) ;
#396 = EDGE_CURVE ( 'NONE', #614, #805, #462, .T. ) ;
#397 = DIRECTION ( 'NONE',  ( 0.000000000000000000, 0.000000000000000000, -1.000000000000000000 ) ) ;
#398 = CARTESIAN_POINT ( 'NONE',  ( 64.58429561200922819, 10.00000000000000000, -45.58891454965356616 ) ) ;
#399 = ORIENTED_EDGE ( 'NONE', *, *, #84, .T. ) ;
#400 = LINE ( 'NONE', #40, #258 ) ;
#401 = AXIS2_PLACEMENT_3D ( 'NONE', #165, #656, #289 ) ;
#402 = EDGE_CURVE ( 'NONE', #330, #804, #171, .T. ) ;
#403 = VECTOR ( 'NONE', #116, 1000.000000000000000 ) ;
#404 = VERTEX_POINT ( 'NONE', #24 ) ;
#405 = CARTESIAN_POINT ( 'NONE',  ( 85.00000000000000000, 10.00000000000000000, 60.00000000000000000 ) ) ;
#406 = ORIENTED_EDGE ( 'NONE', *, *, #77, .T. ) ;
#407 = AXIS2_PLACEMENT_3D ( 'NONE', #543, #729, #347 ) ;
#408 = DIRECTION ( 'NONE',  ( -1.000000000000000000, 0.000000000000000000, 0.000000000000000000 ) ) ;
#409 = FACE_BOUND ( 'NONE', #309, .T. ) ;
#410 = CARTESIAN_POINT ( 'NONE',  ( -64.58429561200924240, 0.000000000000000000, 45.58891454965358037 ) ) ;
#411 = ADVANCED_FACE ( 'NONE', ( #416 ), #352, .F. ) ;
#412 = FACE_OUTER_BOUND ( 'NONE', #158, .T. ) ;
#413 = VECTOR ( 'NONE', #739, 1000.000000000000000 ) ;
#414 = AXIS2_PLACEMENT_3D ( 'NONE', #83, #657, #100 ) ;
#415 = CARTESIAN_POINT ( 'NONE',  ( 85.00000000000000000, 10.00000000000000000, 60.00000000000000000 ) ) ;
#416 = FACE_OUTER_BOUND ( 'NONE', #45, .T. ) ;
#417 = VERTEX_POINT ( 'NONE', #290 ) ;
#418 = FACE_BOUND ( 'NONE', #626, .T. ) ;
#419 = CARTESIAN_POINT ( 'NONE',  ( 57.50000000000000000, 22.00000000000000000, 54.00000000000000000 ) ) ;
#420 = EDGE_CURVE ( 'NONE', #548, #581, #603, .T. ) ;
#421 = ORIENTED_EDGE ( 'NONE', *, *, #268, .T. ) ;
#422 = DIRECTION ( 'NONE',  ( -1.000000000000000000, -0.000000000000000000, -0.000000000000000000 ) ) ;
#423 = CARTESIAN_POINT ( 'NONE',  ( -64.58429561200924240, 10.00000000000000000, 41.50461893764433796 ) ) ;
#424 = PLANE ( 'NONE',  #144 ) ;
#425 = ORIENTED_EDGE ( 'NONE', *, *, #780, .T. ) ;
#426 = EDGE_CURVE ( 'NONE', #292, #682, #721, .T. ) ;
#427 = DIRECTION ( 'NONE',  ( -1.000000000000000000, 0.000000000000000000, 0.000000000000000000 ) ) ;
#428 = AXIS2_PLACEMENT_3D ( 'NONE', #23, #778, #783 ) ;
#429 = CARTESIAN_POINT ( 'NONE',  ( 57.50000000000000000, 22.00000000000000000, 54.00000000000000000 ) ) ;
#430 = AXIS2_PLACEMENT_3D ( 'NONE', #53, #514, #759 ) ;
#431 = CARTESIAN_POINT ( 'NONE',  ( 64.58429561200922819, 0.000000000000000000, -40.67321016166279435 ) ) ;
#432 = ORIENTED_EDGE ( 'NONE', *, *, #149, .F. ) ;
#433 = DIRECTION ( 'NONE',  ( 0.000000000000000000, 0.000000000000000000, -1.000000000000000000 ) ) ;
#434 = ORIENTED_EDGE ( 'NONE', *, *, #617, .F. ) ;
#435 = CARTESIAN_POINT ( 'NONE',  ( 11.00000000000000000, 10.00000000000000000, -45.58891454965356616 ) ) ;
#436 = EDGE_CURVE ( 'NONE', #404, #645, #92, .T. ) ;
#437 = LINE ( 'NONE', #796, #660 ) ;
#438 = EDGE_LOOP ( 'NONE', ( #635, #531, #653, #108 ) ) ;
#439 = VERTEX_POINT ( 'NONE', #709 ) ;
#440 = APPLICATION_PROTOCOL_DEFINITION ( 'international standard', 'config_control_design', 1994, #174 ) ;
#441 = AXIS2_PLACEMENT_3D ( 'NONE', #4, #307, #255 ) ;
#442 = ORIENTED_EDGE ( 'NONE', *, *, #230, .T. ) ;
#443 = EDGE_LOOP ( 'NONE', ( #399, #248, #540, #490 ) ) ;
#444 = DIRECTION ( 'NONE',  ( 0.000000000000000000, 0.000000000000000000, 1.000000000000000000 ) ) ;
#445 = CARTESIAN_POINT ( 'NONE',  ( 64.58429561200922819, 10.00000000000000000, -50.50461893764433796 ) ) ;
#446 = ORIENTED_EDGE ( 'NONE', *, *, #449, .T. ) ;
#447 = DIRECTION ( 'NONE',  ( 0.000000000000000000, 1.000000000000000000, 0.000000000000000000 ) ) ;
#448 = DIRECTION ( 'NONE',  ( 1.000000000000000000, 0.000000000000000000, 0.000000000000000000 ) ) ;
#449 = EDGE_CURVE ( 'NONE', #749, #568, #153, .T. ) ;
#450 = DATE_AND_TIME ( #763, #212 ) ;
#451 = CARTESIAN_POINT ( 'NONE',  ( -64.58429561200924240, 10.00000000000000000, -45.58891454965358037 ) ) ;
#452 = FACE_OUTER_BOUND ( 'NONE', #465, .T. ) ;
#453 = ORIENTED_EDGE ( 'NONE', *, *, #756, .F. ) ;
#454 = CIRCLE ( 'NONE', #670, 4.084295612009243293 ) ;
#455 = DATE_TIME_ROLE ( 'classification_date' ) ;
#456 = DIRECTION ( 'NONE',  ( -1.000000000000000000, 0.000000000000000000, 0.000000000000000000 ) ) ;
#457 = ADVANCED_BREP_SHAPE_REPRESENTATION ( 'FD-012_sensor_bracket', ( #488, #510 ), #284 ) ;
#458 = APPLICATION_PROTOCOL_DEFINITION ( 'international standard', 'config_control_design', 1994, #703 ) ;
#459 = EDGE_CURVE ( 'NONE', #439, #340, #166, .T. ) ;
#460 = DIRECTION ( 'NONE',  ( -0.000000000000000000, -1.000000000000000000, -0.000000000000000000 ) ) ;
#461 = DIRECTION ( 'NONE',  ( -1.000000000000000000, -0.000000000000000000, -0.000000000000000000 ) ) ;
#462 = LINE ( 'NONE', #779, #282 ) ;
#463 = ORIENTED_EDGE ( 'NONE', *, *, #672, .T. ) ;
#464 = PLANE ( 'NONE',  #572 ) ;
#465 = EDGE_LOOP ( 'NONE', ( #8, #395, #393, #808 ) ) ;
#466 = DIRECTION ( 'NONE',  ( 1.000000000000000000, 0.000000000000000000, -0.000000000000000000 ) ) ;
#467 = ORIENTED_EDGE ( 'NONE', *, *, #537, .T. ) ;
#468 = VECTOR ( 'NONE', #787, 1000.000000000000000 ) ;
#469 = DIRECTION ( 'NONE',  ( -0.000000000000000000, -1.000000000000000000, -0.000000000000000000 ) ) ;
#470 = CARTESIAN_POINT ( 'NONE',  ( 11.00000000000000000, 0.000000000000000000, 15.58891454965356793 ) ) ;
#471 = DIRECTION ( 'NONE',  ( 1.000000000000000000, 0.000000000000000000, 0.000000000000000000 ) ) ;
#472 = EDGE_CURVE ( 'NONE', #404, #620, #345, .T. ) ;
#473 = VECTOR ( 'NONE', #727, 1000.000000000000000 ) ;
#474 = CARTESIAN_POINT ( 'NONE',  ( -85.00000000000000000, 0.000000000000000000, 60.00000000000000000 ) ) ;
#475 = DIRECTION ( 'NONE',  ( 0.000000000000000000, 1.000000000000000000, 0.000000000000000000 ) ) ;
#476 = EDGE_LOOP ( 'NONE', ( #113, #294, #421, #650 ) ) ;
#477 = VECTOR ( 'NONE', #680, 1000.000000000000000 ) ;
#478 = CIRCLE ( 'NONE', #129, 4.084295612009243293 ) ;
#479 = APPROVAL_PERSON_ORGANIZATION ( #692, #694, #566 ) ;
#480 = DIRECTION ( 'NONE',  ( 0.000000000000000000, 1.000000000000000000, 0.000000000000000000 ) ) ;
#481 = EDGE_CURVE ( 'NONE', #372, #65, #73, .T. ) ;
#482 = ORIENTED_EDGE ( 'NONE', *, *, #527, .T. ) ;
#483 = DESIGN_CONTEXT ( 'detailed design', #174, 'design' ) ;
#484 = FACE_BOUND ( 'NONE', #125, .T. ) ;
#485 = ADVANCED_FACE ( 'NONE', ( #276 ), #528, .F. ) ;
#486 = LINE ( 'NONE', #730, #477 ) ;
#487 = VERTEX_POINT ( 'NONE', #773 ) ;
#488 = MANIFOLD_SOLID_BREP ( '02_Reinforcement_Boss', #628 ) ;
#489 = LINE ( 'NONE', #733, #403 ) ;
#490 = ORIENTED_EDGE ( 'NONE', *, *, #333, .F. ) ;
#491 = DIRECTION ( 'NONE',  ( 0.000000000000000000, 0.000000000000000000, -1.000000000000000000 ) ) ;
#492 = ADVANCED_FACE ( 'NONE', ( #412 ), #38, .F. ) ;
#493 = CARTESIAN_POINT ( 'NONE',  ( 64.58429561200922819, 10.00000000000000000, 40.67321016166280856 ) ) ;
#494 = CIRCLE ( 'NONE', #245, 4.084295612009243293 ) ;
#495 = CC_DESIGN_APPROVAL ( #694, ( #588 ) ) ;
#496 = EDGE_LOOP ( 'NONE', ( #301, #406, #563, #335 ) ) ;
#497 = EDGE_CURVE ( 'NONE', #340, #404, #159, .T. ) ;
#498 = LINE ( 'NONE', #59, #413 ) ;
#499 = DIRECTION ( 'NONE',  ( 0.000000000000000000, 0.000000000000000000, -1.000000000000000000 ) ) ;
#500 = ORIENTED_EDGE ( 'NONE', *, *, #497, .T. ) ;
#501 = ORIENTED_EDGE ( 'NONE', *, *, #230, .F. ) ;
#502 = DIRECTION ( 'NONE',  ( -0.000000000000000000, -1.000000000000000000, -0.000000000000000000 ) ) ;
#503 = ORIENTED_EDGE ( 'NONE', *, *, #396, .T. ) ;
#504 = EDGE_LOOP ( 'NONE', ( #313, #367, #761, #87 ) ) ;
#505 = DIRECTION ( 'NONE',  ( 1.000000000000000000, 0.000000000000000000, -0.000000000000000000 ) ) ;
#506 = DIRECTION ( 'NONE',  ( 0.000000000000000000, 1.000000000000000000, 0.000000000000000000 ) ) ;
#507 = VECTOR ( 'NONE', #530, 1000.000000000000000 ) ;
#508 = VECTOR ( 'NONE', #225, 1000.000000000000000 ) ;
#509 = EDGE_CURVE ( 'NONE', #198, #93, #637, .T. ) ;
#510 = AXIS2_PLACEMENT_3D ( 'NONE', #89, #26, #585 ) ;
#511 = VERTEX_POINT ( 'NONE', #229 ) ;
#512 = CARTESIAN_POINT ( 'NONE',  ( 64.58429561200922819, 10.00000000000000000, 45.58891454965358747 ) ) ;
#513 = CALENDAR_DATE ( 2026, 29, 7 ) ;
#514 = DIRECTION ( 'NONE',  ( 0.000000000000000000, 1.000000000000000000, 0.000000000000000000 ) ) ;
#515 = ORIENTED_EDGE ( 'NONE', *, *, #722, .F. ) ;
#516 = SHAPE_DEFINITION_REPRESENTATION ( #173, #457 ) ;
#517 = VERTEX_POINT ( 'NONE', #122 ) ;
#518 = PERSON_AND_ORGANIZATION ( #132, #201 ) ;
#519 = ADVANCED_FACE ( 'NONE', ( #370 ), #552, .F. ) ;
#520 = LINE ( 'NONE', #213, #19 ) ;
#521 = CIRCLE ( 'NONE', #775, 4.915704387990771806 ) ;
#522 = VECTOR ( 'NONE', #651, 1000.000000000000000 ) ;
#523 = EDGE_CURVE ( 'NONE', #781, #71, #193, .T. ) ;
#524 = ORIENTED_EDGE ( 'NONE', *, *, #640, .T. ) ;
#525 = DIRECTION ( 'NONE',  ( -1.000000000000000000, -0.000000000000000000, -0.000000000000000000 ) ) ;
#526 = DIRECTION ( 'NONE',  ( -1.000000000000000000, -0.000000000000000000, -0.000000000000000000 ) ) ;
#527 = EDGE_CURVE ( 'NONE', #581, #801, #437, .T. ) ;
#528 = CYLINDRICAL_SURFACE ( 'NONE', #574, 4.915704387990771806 ) ;
#529 = EDGE_CURVE ( 'NONE', #133, #126, #486, .T. ) ;
#530 = DIRECTION ( 'NONE',  ( -0.000000000000000000, -1.000000000000000000, -0.000000000000000000 ) ) ;
#531 = ORIENTED_EDGE ( 'NONE', *, *, #472, .F. ) ;
#532 = PLANE ( 'NONE',  #428 ) ;
#533 = DIRECTION ( 'NONE',  ( 0.000000000000000000, 0.000000000000000000, 1.000000000000000000 ) ) ;
#534 = FACE_OUTER_BOUND ( 'NONE', #767, .T. ) ;
#535 = DIRECTION ( 'NONE',  ( 0.000000000000000000, 1.000000000000000000, 0.000000000000000000 ) ) ;
#536 = PRODUCT ( 'FD-012_sensor_bracket', 'FD-012_sensor_bracket', '', ( #342 ) ) ;
#537 = EDGE_CURVE ( 'NONE', #645, #439, #178, .T. ) ;
#538 = CARTESIAN_POINT ( 'NONE',  ( 11.00000000000000000, 0.000000000000000000, 15.58891454965356793 ) ) ;
#539 = VECTOR ( 'NONE', #13, 1000.000000000000000 ) ;
#540 = ORIENTED_EDGE ( 'NONE', *, *, #481, .F. ) ;
#541 = AXIS2_PLACEMENT_3D ( 'NONE', #115, #616, #51 ) ;
#542 = CC_DESIGN_PERSON_AND_ORGANIZATION_ASSIGNMENT ( #706, #329, ( #536 ) ) ;
#543 = CARTESIAN_POINT ( 'NONE',  ( -64.58429561200924240, 10.00000000000000000, 45.58891454965358037 ) ) ;
#544 = CARTESIAN_POINT ( 'NONE',  ( 64.58429561200922819, 10.00000000000000000, -45.58891454965356616 ) ) ;
#545 = EDGE_LOOP ( 'NONE', ( #425, #725 ) ) ;
#546 = DIRECTION ( 'NONE',  ( 0.000000000000000000, 1.000000000000000000, 0.000000000000000000 ) ) ;
#547 = CARTESIAN_POINT ( 'NONE',  ( -64.58429561200924240, 10.00000000000000000, -45.58891454965358037 ) ) ;
#548 = VERTEX_POINT ( 'NONE', #182 ) ;
#549 = LINE ( 'NONE', #799, #539 ) ;
#550 = CARTESIAN_POINT ( 'NONE',  ( 57.50000000000000000, 22.00000000000000000, 36.00000000000000000 ) ) ;
#551 = CARTESIAN_POINT ( 'NONE',  ( 64.58429561200922819, 10.00000000000000000, 45.58891454965358747 ) ) ;
#552 = CYLINDRICAL_SURFACE ( 'NONE', #231, 4.915704387990771806 ) ;
#553 = ORIENTED_EDGE ( 'NONE', *, *, #791, .F. ) ;
#554 = CC_DESIGN_DATE_AND_TIME_ASSIGNMENT ( #143, #809, ( #700 ) ) ;
#555 = FACE_OUTER_BOUND ( 'NONE', #103, .T. ) ;
#556 = CARTESIAN_POINT ( 'NONE',  ( -85.00000000000000000, 10.00000000000000000, 60.00000000000000000 ) ) ;
#557 = AXIS2_PLACEMENT_3D ( 'NONE', #219, #86, #466 ) ;
#558 = CIRCLE ( 'NONE', #392, 4.915704387990771806 ) ;
#559 = DIRECTION ( 'NONE',  ( -0.000000000000000000, -1.000000000000000000, -0.000000000000000000 ) ) ;
#560 = VERTEX_POINT ( 'NONE', #431 ) ;
#561 = EDGE_LOOP ( 'NONE', ( #249, #297 ) ) ;
#562 = CYLINDRICAL_SURFACE ( 'NONE', #737, 4.084295612009243293 ) ;
#563 = ORIENTED_EDGE ( 'NONE', *, *, #691, .F. ) ;
#564 = ORIENTED_EDGE ( 'NONE', *, *, #583, .F. ) ;
#565 = FACE_OUTER_BOUND ( 'NONE', #476, .T. ) ;
#566 = APPROVAL_ROLE ( '' ) ;
#567 = CARTESIAN_POINT ( 'NONE',  ( 64.58429561200922819, 0.000000000000000000, 45.58891454965358747 ) ) ;
#568 = VERTEX_POINT ( 'NONE', #613 ) ;
#569 = DIRECTION ( 'NONE',  ( -0.000000000000000000, -1.000000000000000000, -0.000000000000000000 ) ) ;
#570 = CARTESIAN_POINT ( 'NONE',  ( 64.58429561200922819, 0.000000000000000000, -45.58891454965356616 ) ) ;
#571 = LINE ( 'NONE', #429, #776 ) ;
#572 = AXIS2_PLACEMENT_3D ( 'NONE', #343, #664, #782 ) ;
#573 = ADVANCED_FACE ( 'NONE', ( #300 ), #424, .F. ) ;
#574 = AXIS2_PLACEMENT_3D ( 'NONE', #286, #591, #32 ) ;
#575 = ORIENTED_EDGE ( 'NONE', *, *, #48, .T. ) ;
#576 = DIRECTION ( 'NONE',  ( -0.000000000000000000, -0.000000000000000000, 1.000000000000000000 ) ) ;
#577 = CALENDAR_DATE ( 2026, 29, 7 ) ;
#578 = AXIS2_PLACEMENT_3D ( 'NONE', #579, #456, #707 ) ;
#579 = CARTESIAN_POINT ( 'NONE',  ( 11.00000000000000000, 10.00000000000000000, 15.58891454965356793 ) ) ;
#580 = ADVANCED_FACE ( 'NONE', ( #675 ), #106, .F. ) ;
#581 = VERTEX_POINT ( 'NONE', #240 ) ;
#582 = LINE ( 'NONE', #379, #726 ) ;
#583 = EDGE_CURVE ( 'NONE', #734, #6, #489, .T. ) ;
#584 = PERSON_AND_ORGANIZATION_ROLE ( 'design_supplier' ) ;
#585 = DIRECTION ( 'NONE',  ( 1.000000000000000000, 0.000000000000000000, 0.000000000000000000 ) ) ;
#586 = ORIENTED_EDGE ( 'NONE', *, *, #420, .T. ) ;
#587 = VECTOR ( 'NONE', #232, 1000.000000000000000 ) ;
#588 = SECURITY_CLASSIFICATION ( '', '', #685 ) ;
#589 = ORIENTED_EDGE ( 'NONE', *, *, #381, .F. ) ;
#590 = VERTEX_POINT ( 'NONE', #654 ) ;
#591 = DIRECTION ( 'NONE',  ( -0.000000000000000000, -1.000000000000000000, -0.000000000000000000 ) ) ;
#592 = ADVANCED_FACE ( 'NONE', ( #341 ), #600, .F. ) ;
#593 = CARTESIAN_POINT ( 'NONE',  ( -57.50000000000000000, 10.00000000000000000, 54.00000000000000000 ) ) ;
#594 = DIRECTION ( 'NONE',  ( -0.000000000000000000, -1.000000000000000000, -0.000000000000000000 ) ) ;
#595 = CYLINDRICAL_SURFACE ( 'NONE', #43, 4.915704387990778024 ) ;
#596 = DIRECTION ( 'NONE',  ( 0.000000000000000000, 0.000000000000000000, 1.000000000000000000 ) ) ;
#597 = VECTOR ( 'NONE', #469, 1000.000000000000000 ) ;
#598 = ORIENTED_EDGE ( 'NONE', *, *, #56, .F. ) ;
#599 = CIRCLE ( 'NONE', #541, 4.915704387990771806 ) ;
#600 = PLANE ( 'NONE',  #155 ) ;
#601 = FACE_OUTER_BOUND ( 'NONE', #504, .T. ) ;
#602 = FACE_OUTER_BOUND ( 'NONE', #712, .T. ) ;
#603 = LINE ( 'NONE', #474, #508 ) ;
#604 = CARTESIAN_POINT ( 'NONE',  ( -11.00000000000000000, 0.000000000000000000, -45.58891454965356616 ) ) ;
#605 = DIRECTION ( 'NONE',  ( 1.000000000000000000, 0.000000000000000000, 0.000000000000000000 ) ) ;
#606 = CARTESIAN_POINT ( 'NONE',  ( 64.58429561200922819, 10.00000000000000000, -40.67321016166279435 ) ) ;
#607 = EDGE_CURVE ( 'NONE', #734, #643, #69, .T. ) ;
#608 = EDGE_LOOP ( 'NONE', ( #371, #136, #575, #270 ) ) ;
#609 = ORIENTED_EDGE ( 'NONE', *, *, #242, .T. ) ;
#610 = CARTESIAN_POINT ( 'NONE',  ( 64.58429561200922819, 0.000000000000000000, -45.58891454965356616 ) ) ;
#611 = CC_DESIGN_SECURITY_CLASSIFICATION ( #588, ( #738 ) ) ;
#612 = CARTESIAN_POINT ( 'NONE',  ( -11.00000000000000000, 0.000000000000000000, 15.58891454965356793 ) ) ;
#613 = CARTESIAN_POINT ( 'NONE',  ( 64.58429561200922819, 0.000000000000000000, 50.50461893764436638 ) ) ;
#614 = VERTEX_POINT ( 'NONE', #435 ) ;
#615 = DIRECTION ( 'NONE',  ( -0.000000000000000000, -1.000000000000000000, -0.000000000000000000 ) ) ;
#616 = DIRECTION ( 'NONE',  ( 0.000000000000000000, 1.000000000000000000, 0.000000000000000000 ) ) ;
#617 = EDGE_CURVE ( 'NONE', #789, #590, #192, .T. ) ;
#618 = ORIENTED_EDGE ( 'NONE', *, *, #376, .T. ) ;
#619 = DIRECTION ( 'NONE',  ( 0.000000000000000000, 0.000000000000000000, 1.000000000000000000 ) ) ;
#620 = VERTEX_POINT ( 'NONE', #318 ) ;
#621 = EDGE_LOOP ( 'NONE', ( #186, #374, #41, #453 ) ) ;
#622 = PLANE ( 'NONE',  #710 ) ;
#623 = VECTOR ( 'NONE', #312, 1000.000000000000000 ) ;
#624 = DIRECTION ( 'NONE',  ( -0.000000000000000000, -1.000000000000000000, -0.000000000000000000 ) ) ;
#625 = ORIENTED_EDGE ( 'NONE', *, *, #18, .T. ) ;
#626 = EDGE_LOOP ( 'NONE', ( #140, #195 ) ) ;
#627 = DIRECTION ( 'NONE',  ( -0.000000000000000000, -1.000000000000000000, -0.000000000000000000 ) ) ;
#628 = CLOSED_SHELL ( 'NONE', ( #519, #580, #236, #387, #121, #102, #203, #492, #411, #732, #636, #134, #748, #485, #31, #744, #348, #768, #573, #592, #251, #107, #197 ) ) ;
#629 = ORIENTED_EDGE ( 'NONE', *, *, #84, .F. ) ;
#630 = CARTESIAN_POINT ( 'NONE',  ( -64.58429561200924240, 10.00000000000000000, -45.58891454965358037 ) ) ;
#631 = APPROVAL ( #130, '未' ) ;
#632 = PERSON_AND_ORGANIZATION_ROLE ( 'classification_officer' ) ;
#633 = CARTESIAN_POINT ( 'NONE',  ( -64.58429561200924240, 10.00000000000000000, 41.50461893764433796 ) ) ;
#634 = DIRECTION ( 'NONE',  ( 0.000000000000000000, 1.000000000000000000, 0.000000000000000000 ) ) ;
#635 = ORIENTED_EDGE ( 'NONE', *, *, #298, .T. ) ;
#636 = ADVANCED_FACE ( 'NONE', ( #60 ), #562, .F. ) ;
#637 = CIRCLE ( 'NONE', #261, 4.084295612009243293 ) ;
#638 = ORIENTED_EDGE ( 'NONE', *, *, #402, .T. ) ;
#639 = PERSON_AND_ORGANIZATION ( #132, #201 ) ;
#640 = EDGE_CURVE ( 'NONE', #728, #749, #273, .T. ) ;
#641 = ORIENTED_EDGE ( 'NONE', *, *, #791, .T. ) ;
#642 = APPROVAL_DATE_TIME ( #205, #631 ) ;
#643 = VERTEX_POINT ( 'NONE', #747 ) ;
#644 = DIRECTION ( 'NONE',  ( 0.000000000000000000, 1.000000000000000000, 0.000000000000000000 ) ) ;
#645 = VERTEX_POINT ( 'NONE', #64 ) ;
#646 = AXIS2_PLACEMENT_3D ( 'NONE', #556, #742, #751 ) ;
#647 = CARTESIAN_POINT ( 'NONE',  ( 64.58429561200922819, 10.00000000000000000, 50.50461893764436638 ) ) ;
#648 = LOCAL_TIME ( 1, 9, 42.00000000000000000, #323 ) ;
#649 = EDGE_CURVE ( 'NONE', #568, #207, #802, .T. ) ;
#650 = ORIENTED_EDGE ( 'NONE', *, *, #681, .F. ) ;
#652 = VECTOR ( 'NONE', #344, 1000.000000000000000 ) ;
#651 = DIRECTION ( 'NONE',  ( 0.000000000000000000, 0.000000000000000000, -1.000000000000000000 ) ) ;
#653 = ORIENTED_EDGE ( 'NONE', *, *, #497, .F. ) ;
#654 = CARTESIAN_POINT ( 'NONE',  ( 57.50000000000000000, 10.00000000000000000, 36.00000000000000000 ) ) ;
#655 = DIRECTION ( 'NONE',  ( 0.000000000000000000, 0.000000000000000000, 1.000000000000000000 ) ) ;
#656 = DIRECTION ( 'NONE',  ( 0.000000000000000000, -1.000000000000000000, 0.000000000000000000 ) ) ;
#657 = DIRECTION ( 'NONE',  ( 1.000000000000000000, -0.000000000000000000, 0.000000000000000000 ) ) ;
#658 = CARTESIAN_POINT ( 'NONE',  ( 64.58429561200922819, 10.00000000000000000, -50.50461893764433796 ) ) ;
#659 = CIRCLE ( 'NONE', #209, 4.915704387990771806 ) ;
#660 = VECTOR ( 'NONE', #235, 1000.000000000000000 ) ;
#661 = FACE_BOUND ( 'NONE', #375, .T. ) ;
#662 = DIRECTION ( 'NONE',  ( -0.000000000000000000, -1.000000000000000000, -0.000000000000000000 ) ) ;
#663 = ORIENTED_EDGE ( 'NONE', *, *, #311, .F. ) ;
#664 = DIRECTION ( 'NONE',  ( 0.000000000000000000, -1.000000000000000000, 0.000000000000000000 ) ) ;
#665 = FACE_BOUND ( 'NONE', #287, .T. ) ;
#666 = DIRECTION ( 'NONE',  ( -1.000000000000000000, 0.000000000000000000, 0.000000000000000000 ) ) ;
#667 = ORIENTED_EDGE ( 'NONE', *, *, #56, .T. ) ;
#668 = CARTESIAN_POINT ( 'NONE',  ( -64.58429561200924240, 10.00000000000000000, -49.67321016166282277 ) ) ;
#669 = ORIENTED_EDGE ( 'NONE', *, *, #360, .T. ) ;
#670 = AXIS2_PLACEMENT_3D ( 'NONE', #383, #634, #619 ) ;
#671 = CARTESIAN_POINT ( 'NONE',  ( 85.00000000000000000, 0.000000000000000000, 60.00000000000000000 ) ) ;
#672 = EDGE_CURVE ( 'NONE', #511, #79, #693, .T. ) ;
#673 = CC_DESIGN_APPROVAL ( #631, ( #738 ) ) ;
#674 = LINE ( 'NONE', #184, #2 ) ;
#675 = FACE_OUTER_BOUND ( 'NONE', #61, .T. ) ;
#676 = EDGE_LOOP ( 'NONE', ( #55, #764, #638, #553 ) ) ;
#677 = CYLINDRICAL_SURFACE ( 'NONE', #30, 4.084295612009243293 ) ;
#678 = CARTESIAN_POINT ( 'NONE',  ( -57.50000000000000000, 22.00000000000000000, 54.00000000000000000 ) ) ;
#679 = EDGE_LOOP ( 'NONE', ( #117, #618, #233, #267 ) ) ;
#680 = DIRECTION ( 'NONE',  ( -0.000000000000000000, -1.000000000000000000, -0.000000000000000000 ) ) ;
#681 = EDGE_CURVE ( 'NONE', #79, #797, #454, .T. ) ;
#682 = VERTEX_POINT ( 'NONE', #321 ) ;
#683 = ORIENTED_EDGE ( 'NONE', *, *, #715, .F. ) ;
#684 = AXIS2_PLACEMENT_3D ( 'NONE', #551, #624, #334 ) ;
#685 = SECURITY_CLASSIFICATION_LEVEL ( 'unclassified' ) ;
#686 = LINE ( 'NONE', #355, #362 ) ;
#687 = VECTOR ( 'NONE', #369, 1000.000000000000000 ) ;
#688 = LOCAL_TIME ( 1, 9, 42.00000000000000000, #148 ) ;
#689 = EDGE_LOOP ( 'NONE', ( #482, #807, #75, #442 ) ) ;
#690 = ORIENTED_EDGE ( 'NONE', *, *, #80, .T. ) ;
#691 = EDGE_CURVE ( 'NONE', #643, #789, #571, .T. ) ;
#692 = PERSON_AND_ORGANIZATION ( #132, #201 ) ;
#693 = LINE ( 'NONE', #135, #687 ) ;
#694 = APPROVAL ( #67, '未' ) ;
#695 = ORIENTED_EDGE ( 'NONE', *, *, #169, .F. ) ;
#696 = DIRECTION ( 'NONE',  ( 0.000000000000000000, 0.000000000000000000, 1.000000000000000000 ) ) ;
#697 = COORDINATED_UNIVERSAL_TIME_OFFSET ( 8, 0, .AHEAD. ) ;
#698 = DIRECTION ( 'NONE',  ( 0.000000000000000000, 1.000000000000000000, 0.000000000000000000 ) ) ;
#699 = PERSON_AND_ORGANIZATION ( #132, #201 ) ;
#700 = PRODUCT_DEFINITION ( '�', '', #738, #483 ) ;
#701 = VECTOR ( 'NONE', #302, 1000.000000000000000 ) ;
#702 = CIRCLE ( 'NONE', #332, 4.915704387990778024 ) ;
#703 = APPLICATION_CONTEXT ( 'configuration controlled 3d designs of mechanical parts and assemblies' ) ;
#704 = CARTESIAN_POINT ( 'NONE',  ( -85.00000000000000000, 10.00000000000000000, -60.00000000000000000 ) ) ;
#705 = EDGE_LOOP ( 'NONE', ( #750, #179, #793, #202 ) ) ;
#706 = PERSON_AND_ORGANIZATION ( #132, #201 ) ;
#707 = DIRECTION ( 'NONE',  ( 0.000000000000000000, 0.000000000000000000, 1.000000000000000000 ) ) ;
#708 = LINE ( 'NONE', #152, #161 ) ;
#709 = CARTESIAN_POINT ( 'NONE',  ( -85.00000000000000000, 10.00000000000000000, 60.00000000000000000 ) ) ;
#710 = AXIS2_PLACEMENT_3D ( 'NONE', #361, #188, #803 ) ;
#711 = FACE_OUTER_BOUND ( 'NONE', #438, .T. ) ;
#712 = EDGE_LOOP ( 'NONE', ( #35, #54, #33, #755 ) ) ;
#713 = AXIS2_PLACEMENT_3D ( 'NONE', #567, #506, #120 ) ;
#714 = DIRECTION ( 'NONE',  ( -0.000000000000000000, -1.000000000000000000, -0.000000000000000000 ) ) ;
#715 = EDGE_CURVE ( 'NONE', #207, #568, #211, .T. ) ;
#716 = FACE_BOUND ( 'NONE', #545, .T. ) ;
#718 = AXIS2_PLACEMENT_3D ( 'NONE', #451, #698, #216 ) ;
#717 = CARTESIAN_POINT ( 'NONE',  ( 85.00000000000000000, 10.00000000000000000, -60.00000000000000000 ) ) ;
#719 = EDGE_CURVE ( 'NONE', #517, #330, #599, .T. ) ;
#720 = LINE ( 'NONE', #105, #299 ) ;
#721 = LINE ( 'NONE', #21, #295 ) ;
#722 = EDGE_CURVE ( 'NONE', #417, #590, #303, .T. ) ;
#723 = FACE_BOUND ( 'NONE', #11, .T. ) ;
#724 = CYLINDRICAL_SURFACE ( 'NONE', #736, 4.084295612009243293 ) ;
#725 = ORIENTED_EDGE ( 'NONE', *, *, #681, .T. ) ;
#726 = VECTOR ( 'NONE', #576, 1000.000000000000000 ) ;
#727 = DIRECTION ( 'NONE',  ( 0.000000000000000000, 0.000000000000000000, -1.000000000000000000 ) ) ;
#728 = VERTEX_POINT ( 'NONE', #493 ) ;
#729 = DIRECTION ( 'NONE',  ( 0.000000000000000000, 1.000000000000000000, 0.000000000000000000 ) ) ;
#730 = CARTESIAN_POINT ( 'NONE',  ( -57.50000000000000000, 22.00000000000000000, 36.00000000000000000 ) ) ;
#731 = ORIENTED_EDGE ( 'NONE', *, *, #762, .F. ) ;
#732 = ADVANCED_FACE ( 'NONE', ( #740 ), #189, .F. ) ;
#733 = CARTESIAN_POINT ( 'NONE',  ( -57.50000000000000000, 22.00000000000000000, 54.00000000000000000 ) ) ;
#734 = VERTEX_POINT ( 'NONE', #306 ) ;
#735 = CARTESIAN_POINT ( 'NONE',  ( 64.58429561200922819, 10.00000000000000000, 50.50461893764436638 ) ) ;
#736 = AXIS2_PLACEMENT_3D ( 'NONE', #770, #662, #217 ) ;
#737 = AXIS2_PLACEMENT_3D ( 'NONE', #800, #627, #433 ) ;
#738 = PRODUCT_DEFINITION_FORMATION_WITH_SPECIFIED_SOURCE ( '�', '', #536, .NOT_KNOWN. ) ;
#739 = DIRECTION ( 'NONE',  ( -0.000000000000000000, -0.000000000000000000, 1.000000000000000000 ) ) ;
#740 = FACE_OUTER_BOUND ( 'NONE', #689, .T. ) ;
#741 = ORIENTED_EDGE ( 'NONE', *, *, #649, .T. ) ;
#742 = DIRECTION ( 'NONE',  ( 0.000000000000000000, 0.000000000000000000, -1.000000000000000000 ) ) ;
#743 = DIRECTION ( 'NONE',  ( 0.000000000000000000, 0.000000000000000000, -1.000000000000000000 ) ) ;
#744 = ADVANCED_FACE ( 'NONE', ( #191 ), #63, .T. ) ;
#745 = ORIENTED_EDGE ( 'NONE', *, *, #436, .F. ) ;
#746 = ORIENTED_EDGE ( 'NONE', *, *, #523, .F. ) ;
#747 = CARTESIAN_POINT ( 'NONE',  ( 57.50000000000000000, 22.00000000000000000, 54.00000000000000000 ) ) ;
#748 = ADVANCED_FACE ( 'NONE', ( #565 ), #677, .F. ) ;
#749 = VERTEX_POINT ( 'NONE', #735 ) ;
#750 = ORIENTED_EDGE ( 'NONE', *, *, #449, .F. ) ;
#751 = DIRECTION ( 'NONE',  ( -1.000000000000000000, 0.000000000000000000, -0.000000000000000000 ) ) ;
#752 = APPROVAL_DATE_TIME ( #269, #256 ) ;
#753 = FACE_OUTER_BOUND ( 'NONE', #705, .T. ) ;
#754 = CC_DESIGN_DATE_AND_TIME_ASSIGNMENT ( #450, #455, ( #588 ) ) ;
#755 = ORIENTED_EDGE ( 'NONE', *, *, #18, .F. ) ;
#756 = EDGE_CURVE ( 'NONE', #65, #372, #494, .T. ) ;
#757 = PLANE ( 'NONE',  #185 ) ;
#758 = PERSON_AND_ORGANIZATION ( #132, #201 ) ;
#759 = DIRECTION ( 'NONE',  ( 0.000000000000000000, 0.000000000000000000, 1.000000000000000000 ) ) ;
#760 = VECTOR ( 'NONE', #605, 1000.000000000000000 ) ;
#761 = ORIENTED_EDGE ( 'NONE', *, *, #806, .T. ) ;
#762 = EDGE_CURVE ( 'NONE', #749, #728, #702, .T. ) ;
#763 = CALENDAR_DATE ( 2026, 29, 7 ) ;
#764 = ORIENTED_EDGE ( 'NONE', *, *, #719, .T. ) ;
#765 = PRODUCT_RELATED_PRODUCT_CATEGORY ( 'detail', '', ( #536 ) ) ;
#766 = APPROVAL_ROLE ( '' ) ;
#767 = EDGE_LOOP ( 'NONE', ( #500, #52, #467, #237 ) ) ;
#768 = ADVANCED_FACE ( 'NONE', ( #798 ), #243, .T. ) ;
#769 = ORIENTED_EDGE ( 'NONE', *, *, #177, .F. ) ;
#770 = CARTESIAN_POINT ( 'NONE',  ( -64.58429561200924240, 10.00000000000000000, 45.58891454965358037 ) ) ;
#771 = CC_DESIGN_PERSON_AND_ORGANIZATION_ASSIGNMENT ( #326, #394, ( #700 ) ) ;
#772 = LINE ( 'NONE', #42, #652 ) ;
#773 = CARTESIAN_POINT ( 'NONE',  ( -64.58429561200924240, 10.00000000000000000, -49.67321016166282277 ) ) ;
#774 = ORIENTED_EDGE ( 'NONE', *, *, #48, .F. ) ;
#775 = AXIS2_PLACEMENT_3D ( 'NONE', #570, #3, #206 ) ;
#776 = VECTOR ( 'NONE', #263, 1000.000000000000000 ) ;
#777 = DIRECTION ( 'NONE',  ( -0.000000000000000000, -1.000000000000000000, -0.000000000000000000 ) ) ;
#778 = DIRECTION ( 'NONE',  ( 0.000000000000000000, -1.000000000000000000, 0.000000000000000000 ) ) ;
#779 = CARTESIAN_POINT ( 'NONE',  ( 11.00000000000000000, 10.00000000000000000, -45.58891454965356616 ) ) ;
#780 = EDGE_CURVE ( 'NONE', #797, #79, #478, .T. ) ;
#781 = VERTEX_POINT ( 'NONE', #141 ) ;
#782 = DIRECTION ( 'NONE',  ( 0.000000000000000000, -0.000000000000000000, -1.000000000000000000 ) ) ;
#783 = DIRECTION ( 'NONE',  ( 0.000000000000000000, -0.000000000000000000, -1.000000000000000000 ) ) ;
#784 = DIRECTION ( 'NONE',  ( 0.000000000000000000, 0.000000000000000000, 1.000000000000000000 ) ) ;
#785 = LINE ( 'NONE', #163, #390 ) ;
#786 = VECTOR ( 'NONE', #448, 1000.000000000000000 ) ;
#787 = DIRECTION ( 'NONE',  ( -0.000000000000000000, -1.000000000000000000, -0.000000000000000000 ) ) ;
#788 = VECTOR ( 'NONE', #525, 1000.000000000000000 ) ;
#789 = VERTEX_POINT ( 'NONE', #265 ) ;
#790 = FACE_OUTER_BOUND ( 'NONE', #496, .T. ) ;
#791 = EDGE_CURVE ( 'NONE', #560, #804, #558, .T. ) ;
#792 = CARTESIAN_POINT ( 'NONE',  ( 11.00000000000000000, 10.00000000000000000, 15.58891454965356793 ) ) ;
#793 = ORIENTED_EDGE ( 'NONE', *, *, #177, .T. ) ;
#794 = CARTESIAN_POINT ( 'NONE',  ( -64.58429561200924240, 0.000000000000000000, -49.67321016166282277 ) ) ;
#795 = CARTESIAN_POINT ( 'NONE',  ( 85.00000000000000000, 0.000000000000000000, 60.00000000000000000 ) ) ;
#796 = CARTESIAN_POINT ( 'NONE',  ( -85.00000000000000000, 0.000000000000000000, 60.00000000000000000 ) ) ;
#797 = VERTEX_POINT ( 'NONE', #794 ) ;
#798 = FACE_OUTER_BOUND ( 'NONE', #241, .T. ) ;
#799 = CARTESIAN_POINT ( 'NONE',  ( 85.00000000000000000, 10.00000000000000000, 60.00000000000000000 ) ) ;
#800 = CARTESIAN_POINT ( 'NONE',  ( -64.58429561200924240, 10.00000000000000000, 45.58891454965358037 ) ) ;
#801 = VERTEX_POINT ( 'NONE', #671 ) ;
#802 = CIRCLE ( 'NONE', #713, 4.915704387990778024 ) ;
#803 = DIRECTION ( 'NONE',  ( 0.000000000000000000, 0.000000000000000000, -1.000000000000000000 ) ) ;
#804 = VERTEX_POINT ( 'NONE', #385 ) ;
#805 = VERTEX_POINT ( 'NONE', #271 ) ;
#806 = EDGE_CURVE ( 'NONE', #133, #734, #582, .T. ) ;
#807 = ORIENTED_EDGE ( 'NONE', *, *, #324, .F. ) ;
#808 = ORIENTED_EDGE ( 'NONE', *, *, #88, .T. ) ;
#809 = DATE_TIME_ROLE ( 'creation_date' ) ;
#810 = ORIENTED_EDGE ( 'NONE', *, *, #12, .T. ) ;
#811 = DIRECTION ( 'NONE',  ( 0.000000000000000000, 1.000000000000000000, 0.000000000000000000 ) ) ;
ENDSEC;
END-ISO-10303-21;
