ISO-10303-21;
HEADER;
FILE_DESCRIPTION (( 'STEP AP203' ),
    '1' );
FILE_NAME ('FD-016_guard_panel.STEP',
    '2026-07-28T15:17:29',
    ( '' ),
    ( '' ),
    'SwSTEP 2.0',
    'SolidWorks 2023',
    '' );
FILE_SCHEMA (( 'CONFIG_CONTROL_DESIGN' ));
ENDSEC;

DATA;
#1 = EDGE_LOOP ( 'NONE', ( #309, #604, #607, #529 ) ) ;
#2 = CARTESIAN_POINT ( 'NONE',  ( -450.0000000000000000, 0.000000000000000000, 210.0000000000000000 ) ) ;
#3 = PLANE ( 'NONE',  #299 ) ;
#4 = AXIS2_PLACEMENT_3D ( 'NONE', #329, #549, #40 ) ;
#5 = EDGE_LOOP ( 'NONE', ( #283, #363, #197, #573 ) ) ;
#6 = PLANE ( 'NONE',  #447 ) ;
#7 = LINE ( 'NONE', #623, #610 ) ;
#8 = ORIENTED_EDGE ( 'NONE', *, *, #213, .T. ) ;
#9 = CARTESIAN_POINT ( 'NONE',  ( -385.0000000000002274, 8.000000000000000000, -170.0000000000000000 ) ) ;
#10 = APPROVAL ( #485, '未' ) ;
#11 = EDGE_LOOP ( 'NONE', ( #346, #504, #62, #575 ) ) ;
#12 = LINE ( 'NONE', #517, #276 ) ;
#13 = EDGE_LOOP ( 'NONE', ( #351, #441, #615, #641 ) ) ;
#14 = LINE ( 'NONE', #481, #567 ) ;
#15 = ORIENTED_EDGE ( 'NONE', *, *, #285, .F. ) ;
#16 = DIRECTION ( 'NONE',  ( 1.000000000000000000, 0.000000000000000000, 0.000000000000000000 ) ) ;
#17 = EDGE_LOOP ( 'NONE', ( #556, #48, #133, #298 ) ) ;
#18 = CARTESIAN_POINT ( 'NONE',  ( 385.0000000000000000, 0.000000000000000000, -170.0000000000000000 ) ) ;
#19 = CARTESIAN_POINT ( 'NONE',  ( 450.0000000000000000, 0.000000000000000000, 210.0000000000000000 ) ) ;
#20 = CARTESIAN_POINT ( 'NONE',  ( -385.0000000000002274, 0.000000000000000000, 130.0000000000000284 ) ) ;
#21 = EDGE_CURVE ( 'NONE', #444, #727, #144, .T. ) ;
#22 = ORIENTED_EDGE ( 'NONE', *, *, #360, .T. ) ;
#23 = CIRCLE ( 'NONE', #493, 4.500000000000031974 ) ;
#24 = DATE_AND_TIME ( #209, #652 ) ;
#25 = CC_DESIGN_DATE_AND_TIME_ASSIGNMENT ( #24, #149, ( #706 ) ) ;
#26 = CIRCLE ( 'NONE', #54, 4.500000000000031974 ) ;
#27 = CARTESIAN_POINT ( 'NONE',  ( 420.0000000000000000, 8.000000000000000000, 175.4999999999999716 ) ) ;
#28 = DIRECTION ( 'NONE',  ( -0.000000000000000000, -1.000000000000000000, -0.000000000000000000 ) ) ;
#29 = AXIS2_PLACEMENT_3D ( 'NONE', #110, #66, #281 ) ;
#30 = ORIENTED_EDGE ( 'NONE', *, *, #452, .F. ) ;
#31 = PERSON_AND_ORGANIZATION_ROLE ( 'creator' ) ;
#32 = DIRECTION ( 'NONE',  ( 0.000000000000000000, 1.000000000000000000, 0.000000000000000000 ) ) ;
#33 = DIRECTION ( 'NONE',  ( -0.000000000000000000, -1.000000000000000000, -0.000000000000000000 ) ) ;
#34 = DIRECTION ( 'NONE',  ( 1.000000000000000000, 0.000000000000000000, 0.000000000000000000 ) ) ;
#35 = CARTESIAN_POINT ( 'NONE',  ( -450.0000000000000000, 8.000000000000000000, -210.0000000000000000 ) ) ;
#36 = DIRECTION ( 'NONE',  ( 0.000000000000000000, 0.000000000000000000, 1.000000000000000000 ) ) ;
#37 = EDGE_CURVE ( 'NONE', #358, #188, #195, .T. ) ;
#38 = CARTESIAN_POINT ( 'NONE',  ( 420.0000000000000000, 8.000000000000000000, 175.4999999999999716 ) ) ;
#39 = AXIS2_PLACEMENT_3D ( 'NONE', #614, #107, #616 ) ;
#40 = DIRECTION ( 'NONE',  ( 0.000000000000000000, 0.000000000000000000, 1.000000000000000000 ) ) ;
#41 = VECTOR ( 'NONE', #175, 1000.000000000000000 ) ;
#42 = ORIENTED_EDGE ( 'NONE', *, *, #448, .T. ) ;
#43 = CARTESIAN_POINT ( 'NONE',  ( -450.0000000000000000, 8.000000000000000000, 210.0000000000000000 ) ) ;
#44 = EDGE_CURVE ( 'NONE', #257, #550, #356, .T. ) ;
#45 = VERTEX_POINT ( 'NONE', #117 ) ;
#46 = CARTESIAN_POINT ( 'NONE',  ( -450.0000000000000000, 16.00000000000000000, 186.0000000000000000 ) ) ;
#47 = VECTOR ( 'NONE', #16, 1000.000000000000000 ) ;
#48 = ORIENTED_EDGE ( 'NONE', *, *, #157, .T. ) ;
#49 = LINE ( 'NONE', #43, #116 ) ;
#50 = EDGE_LOOP ( 'NONE', ( #720, #513 ) ) ;
#51 = DIRECTION ( 'NONE',  ( 0.000000000000000000, 1.000000000000000000, 0.000000000000000000 ) ) ;
#52 = ORIENTED_EDGE ( 'NONE', *, *, #205, .T. ) ;
#53 = DIRECTION ( 'NONE',  ( 0.000000000000000000, -1.000000000000000000, 0.000000000000000000 ) ) ;
#54 = AXIS2_PLACEMENT_3D ( 'NONE', #275, #159, #99 ) ;
#55 = EDGE_CURVE ( 'NONE', #104, #619, #345, .T. ) ;
#56 = LINE ( 'NONE', #507, #339 ) ;
#57 = VECTOR ( 'NONE', #578, 1000.000000000000000 ) ;
#58 = ORIENTED_EDGE ( 'NONE', *, *, #469, .F. ) ;
#59 = PLANE ( 'NONE',  #673 ) ;
#60 = ORIENTED_EDGE ( 'NONE', *, *, #686, .T. ) ;
#61 = DIRECTION ( 'NONE',  ( 1.000000000000000000, 0.000000000000000000, -0.000000000000000000 ) ) ;
#62 = ORIENTED_EDGE ( 'NONE', *, *, #543, .T. ) ;
#63 = CARTESIAN_POINT ( 'NONE',  ( 0.000000000000000000, 16.00000000000000000, 0.000000000000000000 ) ) ;
#64 = EDGE_CURVE ( 'NONE', #727, #553, #650, .T. ) ;
#65 = ORIENTED_EDGE ( 'NONE', *, *, #196, .T. ) ;
#66 = DIRECTION ( 'NONE',  ( -0.000000000000000000, -1.000000000000000000, -0.000000000000000000 ) ) ;
#67 = LOCAL_TIME ( 23, 17, 29.00000000000000000, #261 ) ;
#68 = ORIENTED_EDGE ( 'NONE', *, *, #165, .T. ) ;
#69 = CARTESIAN_POINT ( 'NONE',  ( 450.0000000000000000, 8.000000000000000000, 210.0000000000000000 ) ) ;
#70 = VERTEX_POINT ( 'NONE', #698 ) ;
#71 = LINE ( 'NONE', #707, #506 ) ;
#72 = AXIS2_PLACEMENT_3D ( 'NONE', #150, #259, #421 ) ;
#73 = FACE_OUTER_BOUND ( 'NONE', #5, .T. ) ;
#74 = CARTESIAN_POINT ( 'NONE',  ( -450.0000000000000000, 8.000000000000000000, 210.0000000000000000 ) ) ;
#75 = CARTESIAN_POINT ( 'NONE',  ( -385.0000000000002274, 0.000000000000000000, -170.0000000000000000 ) ) ;
#76 = ORIENTED_EDGE ( 'NONE', *, *, #555, .T. ) ;
#77 = FACE_OUTER_BOUND ( 'NONE', #278, .T. ) ;
#78 = DIRECTION ( 'NONE',  ( 0.000000000000000000, 1.000000000000000000, 0.000000000000000000 ) ) ;
#79 = DIRECTION ( 'NONE',  ( 0.000000000000000000, 0.000000000000000000, 1.000000000000000000 ) ) ;
#80 = ORIENTED_EDGE ( 'NONE', *, *, #44, .F. ) ;
#81 = MECHANICAL_CONTEXT ( 'NONE', #664, 'mechanical' ) ;
#82 = CARTESIAN_POINT ( 'NONE',  ( 385.0000000000000000, 8.000000000000000000, -170.0000000000000000 ) ) ;
#83 = AXIS2_PLACEMENT_3D ( 'NONE', #631, #229, #129 ) ;
#84 = CARTESIAN_POINT ( 'NONE',  ( 420.0000000000000000, 8.000000000000000000, -180.0000000000000000 ) ) ;
#85 = EDGE_LOOP ( 'NONE', ( #101, #380 ) ) ;
#86 = SECURITY_CLASSIFICATION_LEVEL ( 'unclassified' ) ;
#87 = AXIS2_PLACEMENT_3D ( 'NONE', #451, #694, #460 ) ;
#88 = EDGE_CURVE ( 'NONE', #449, #576, #91, .T. ) ;
#89 = DATE_AND_TIME ( #364, #166 ) ;
#90 = CARTESIAN_POINT ( 'NONE',  ( -450.0000000000000000, 8.000000000000000000, -210.0000000000000000 ) ) ;
#91 = LINE ( 'NONE', #74, #455 ) ;
#92 = APPROVAL_DATE_TIME ( #258, #422 ) ;
#93 = DIRECTION ( 'NONE',  ( 0.000000000000000000, 0.000000000000000000, -1.000000000000000000 ) ) ;
#94 = ADVANCED_FACE ( 'NONE', ( #541 ), #256, .F. ) ;
#95 = FACE_BOUND ( 'NONE', #304, .T. ) ;
#96 = DIRECTION ( 'NONE',  ( -0.000000000000000000, -1.000000000000000000, -0.000000000000000000 ) ) ;
#97 = SHAPE_DEFINITION_REPRESENTATION ( #204, #295 ) ;
#98 = CARTESIAN_POINT ( 'NONE',  ( -385.0000000000002274, 8.000000000000000000, 130.0000000000000284 ) ) ;
#99 = DIRECTION ( 'NONE',  ( 0.000000000000000000, 0.000000000000000000, 1.000000000000000000 ) ) ;
#100 = APPROVAL ( #659, '未' ) ;
#101 = ORIENTED_EDGE ( 'NONE', *, *, #180, .T. ) ;
#102 = VECTOR ( 'NONE', #439, 1000.000000000000000 ) ;
#103 = LINE ( 'NONE', #487, #102 ) ;
#104 = VERTEX_POINT ( 'NONE', #523 ) ;
#105 = DIRECTION ( 'NONE',  ( -0.000000000000000000, -1.000000000000000000, -0.000000000000000000 ) ) ;
#106 = ORIENTED_EDGE ( 'NONE', *, *, #263, .T. ) ;
#107 = DIRECTION ( 'NONE',  ( 0.000000000000000000, 0.000000000000000000, -1.000000000000000000 ) ) ;
#108 = EDGE_CURVE ( 'NONE', #580, #246, #703, .T. ) ;
#109 = ORIENTED_EDGE ( 'NONE', *, *, #132, .F. ) ;
#110 = CARTESIAN_POINT ( 'NONE',  ( 420.0000000000000000, 8.000000000000000000, 180.0000000000000000 ) ) ;
#111 = FACE_BOUND ( 'NONE', #571, .T. ) ;
#112 = CARTESIAN_POINT ( 'NONE',  ( -420.0000000000000000, 0.000000000000000000, 180.0000000000000000 ) ) ;
#113 = SECURITY_CLASSIFICATION ( '', '', #86 ) ;
#114 = ORIENTED_EDGE ( 'NONE', *, *, #558, .T. ) ;
#115 = DIRECTION ( 'NONE',  ( 0.000000000000000000, 0.000000000000000000, 1.000000000000000000 ) ) ;
#116 = VECTOR ( 'NONE', #496, 1000.000000000000000 ) ;
#117 = CARTESIAN_POINT ( 'NONE',  ( -420.0000000000000000, 8.000000000000000000, 184.5000000000000284 ) ) ;
#118 =( NAMED_UNIT ( * ) PLANE_ANGLE_UNIT ( ) SI_UNIT ( $, .RADIAN. ) );
#119 = AXIS2_PLACEMENT_3D ( 'NONE', #272, #492, #660 ) ;
#120 = VECTOR ( 'NONE', #254, 1000.000000000000000 ) ;
#121 = VERTEX_POINT ( 'NONE', #194 ) ;
#122 = FACE_OUTER_BOUND ( 'NONE', #406, .T. ) ;
#123 = EDGE_LOOP ( 'NONE', ( #633, #667, #22, #65 ) ) ;
#124 = DIRECTION ( 'NONE',  ( -0.000000000000000000, -1.000000000000000000, -0.000000000000000000 ) ) ;
#125 = ORIENTED_EDGE ( 'NONE', *, *, #230, .T. ) ;
#126 = LINE ( 'NONE', #445, #384 ) ;
#127 = EDGE_LOOP ( 'NONE', ( #60, #58, #349, #465, #562, #725 ) ) ;
#128 = DIRECTION ( 'NONE',  ( 0.000000000000000000, 0.000000000000000000, 1.000000000000000000 ) ) ;
#129 = DIRECTION ( 'NONE',  ( 0.000000000000000000, 0.000000000000000000, 1.000000000000000000 ) ) ;
#130 = EDGE_LOOP ( 'NONE', ( #15, #218 ) ) ;
#131 = ORIENTED_EDGE ( 'NONE', *, *, #618, .F. ) ;
#132 = EDGE_CURVE ( 'NONE', #636, #177, #23, .T. ) ;
#133 = ORIENTED_EDGE ( 'NONE', *, *, #142, .T. ) ;
#134 = CARTESIAN_POINT ( 'NONE',  ( -420.0000000000000000, 0.000000000000000000, 184.5000000000000284 ) ) ;
#135 = CARTESIAN_POINT ( 'NONE',  ( -420.0000000000000000, 8.000000000000000000, 180.0000000000000000 ) ) ;
#136 = VECTOR ( 'NONE', #316, 1000.000000000000000 ) ;
#137 = CARTESIAN_POINT ( 'NONE',  ( 420.0000000000000000, 0.000000000000000000, 180.0000000000000000 ) ) ;
#138 = DIRECTION ( 'NONE',  ( -0.000000000000000000, -1.000000000000000000, -0.000000000000000000 ) ) ;
#139 = PERSON_AND_ORGANIZATION_ROLE ( 'design_owner' ) ;
#140 = VERTEX_POINT ( 'NONE', #712 ) ;
#141 = DIRECTION ( 'NONE',  ( 0.000000000000000000, 0.000000000000000000, -1.000000000000000000 ) ) ;
#142 = EDGE_CURVE ( 'NONE', #589, #630, #207, .T. ) ;
#143 = FACE_OUTER_BOUND ( 'NONE', #628, .T. ) ;
#144 = LINE ( 'NONE', #75, #251 ) ;
#145 = VECTOR ( 'NONE', #96, 1000.000000000000000 ) ;
#146 = DIRECTION ( 'NONE',  ( -0.000000000000000000, -0.000000000000000000, 1.000000000000000000 ) ) ;
#147 = LOCAL_TIME ( 23, 17, 29.00000000000000000, #202 ) ;
#148 = CIRCLE ( 'NONE', #434, 4.500000000000031974 ) ;
#149 = DATE_TIME_ROLE ( 'creation_date' ) ;
#150 = CARTESIAN_POINT ( 'NONE',  ( -450.0000000000000000, 16.00000000000000000, 186.0000000000000000 ) ) ;
#151 = DIRECTION ( 'NONE',  ( 0.000000000000000000, 1.000000000000000000, 0.000000000000000000 ) ) ;
#152 = CALENDAR_DATE ( 2026, 28, 7 ) ;
#153 = EDGE_CURVE ( 'NONE', #550, #536, #148, .T. ) ;
#154 = MANIFOLD_SOLID_BREP ( '02_Frame_Rail', #662 ) ;
#155 = DIRECTION ( 'NONE',  ( -0.000000000000000000, -1.000000000000000000, -0.000000000000000000 ) ) ;
#156 = ADVANCED_FACE ( 'NONE', ( #143 ), #361, .F. ) ;
#157 = EDGE_CURVE ( 'NONE', #45, #589, #269, .T. ) ;
#158 = PLANE ( 'NONE',  #548 ) ;
#159 = DIRECTION ( 'NONE',  ( 0.000000000000000000, 1.000000000000000000, 0.000000000000000000 ) ) ;
#160 = VECTOR ( 'NONE', #591, 1000.000000000000000 ) ;
#161 = ORIENTED_EDGE ( 'NONE', *, *, #360, .F. ) ;
#162 = DIRECTION ( 'NONE',  ( 0.000000000000000000, 1.000000000000000000, 0.000000000000000000 ) ) ;
#163 = ORIENTED_EDGE ( 'NONE', *, *, #132, .T. ) ;
#164 = FACE_OUTER_BOUND ( 'NONE', #520, .T. ) ;
#165 = EDGE_CURVE ( 'NONE', #580, #444, #210, .T. ) ;
#166 = LOCAL_TIME ( 23, 17, 29.00000000000000000, #710 ) ;
#167 = ORIENTED_EDGE ( 'NONE', *, *, #661, .F. ) ;
#168 = CYLINDRICAL_SURFACE ( 'NONE', #609, 4.500000000000031974 ) ;
#169 = ADVANCED_FACE ( 'NONE', ( #164 ), #168, .F. ) ;
#170 = AXIS2_PLACEMENT_3D ( 'NONE', #482, #244, #467 ) ;
#171 = ORIENTED_EDGE ( 'NONE', *, *, #373, .T. ) ;
#172 = DIRECTION ( 'NONE',  ( 0.000000000000000000, 0.000000000000000000, 1.000000000000000000 ) ) ;
#173 = LINE ( 'NONE', #572, #47 ) ;
#174 = ORIENTED_EDGE ( 'NONE', *, *, #373, .F. ) ;
#175 = DIRECTION ( 'NONE',  ( -0.000000000000000000, -1.000000000000000000, -0.000000000000000000 ) ) ;
#176 = DIRECTION ( 'NONE',  ( 0.000000000000000000, 1.000000000000000000, 0.000000000000000000 ) ) ;
#177 = VERTEX_POINT ( 'NONE', #317 ) ;
#178 = VECTOR ( 'NONE', #28, 1000.000000000000000 ) ;
#179 = DIRECTION ( 'NONE',  ( -0.000000000000000000, -1.000000000000000000, -0.000000000000000000 ) ) ;
#180 = EDGE_CURVE ( 'NONE', #536, #550, #648, .T. ) ;
#181 = ORIENTED_EDGE ( 'NONE', *, *, #452, .T. ) ;
#182 = AXIS2_PLACEMENT_3D ( 'NONE', #620, #179, #574 ) ;
#183 = ORIENTED_EDGE ( 'NONE', *, *, #180, .F. ) ;
#184 = DIRECTION ( 'NONE',  ( -1.000000000000000000, -0.000000000000000000, -0.000000000000000000 ) ) ;
#185 = DIRECTION ( 'NONE',  ( 0.000000000000000000, 0.000000000000000000, 1.000000000000000000 ) ) ;
#186 = VERTEX_POINT ( 'NONE', #376 ) ;
#187 = FACE_OUTER_BOUND ( 'NONE', #471, .T. ) ;
#188 = VERTEX_POINT ( 'NONE', #432 ) ;
#189 = VECTOR ( 'NONE', #668, 1000.000000000000000 ) ;
#190 =( NAMED_UNIT ( * ) SI_UNIT ( $, .STERADIAN. ) SOLID_ANGLE_UNIT ( ) );
#191 = ORIENTED_EDGE ( 'NONE', *, *, #217, .F. ) ;
#192 = CARTESIAN_POINT ( 'NONE',  ( 450.0000000000000000, 8.000000000000000000, 210.0000000000000000 ) ) ;
#193 = CARTESIAN_POINT ( 'NONE',  ( -385.0000000000002274, 8.000000000000000000, 130.0000000000000284 ) ) ;
#194 = CARTESIAN_POINT ( 'NONE',  ( 385.0000000000000000, 0.000000000000000000, 130.0000000000000284 ) ) ;
#195 = LINE ( 'NONE', #412, #622 ) ;
#196 = EDGE_CURVE ( 'NONE', #695, #220, #440, .T. ) ;
#197 = ORIENTED_EDGE ( 'NONE', *, *, #669, .F. ) ;
#198 = CARTESIAN_POINT ( 'NONE',  ( 420.0000000000000000, 0.000000000000000000, 175.4999999999999716 ) ) ;
#199 = AXIS2_PLACEMENT_3D ( 'NONE', #341, #570, #61 ) ;
#200 = ORIENTED_EDGE ( 'NONE', *, *, #656, .T. ) ;
#201 = DIRECTION ( 'NONE',  ( 0.000000000000000000, 0.000000000000000000, -1.000000000000000000 ) ) ;
#202 = COORDINATED_UNIVERSAL_TIME_OFFSET ( 8, 0, .AHEAD. ) ;
#203 = CARTESIAN_POINT ( 'NONE',  ( -420.0000000000000000, 8.000000000000000000, -184.5000000000000284 ) ) ;
#204 = PRODUCT_DEFINITION_SHAPE ( 'NONE', 'NONE',  #706 ) ;
#205 = EDGE_CURVE ( 'NONE', #553, #121, #103, .T. ) ;
#206 = APPROVAL_PERSON_ORGANIZATION ( #305, #10, #657 ) ;
#207 = LINE ( 'NONE', #639, #178 ) ;
#208 = APPROVAL_DATE_TIME ( #89, #100 ) ;
#209 = CALENDAR_DATE ( 2026, 28, 7 ) ;
#210 = LINE ( 'NONE', #433, #145 ) ;
#211 = DIRECTION ( 'NONE',  ( -1.000000000000000000, 0.000000000000000000, 0.000000000000000000 ) ) ;
#212 = LINE ( 'NONE', #611, #561 ) ;
#213 = EDGE_CURVE ( 'NONE', #524, #630, #512, .T. ) ;
#214 = ORIENTED_EDGE ( 'NONE', *, *, #108, .T. ) ;
#215 = CARTESIAN_POINT ( 'NONE',  ( -450.0000000000000000, 16.00000000000000000, 210.0000000000000284 ) ) ;
#216 = VECTOR ( 'NONE', #146, 1000.000000000000000 ) ;
#217 = EDGE_CURVE ( 'NONE', #140, #636, #442, .T. ) ;
#218 = ORIENTED_EDGE ( 'NONE', *, *, #448, .F. ) ;
#219 = FACE_OUTER_BOUND ( 'NONE', #127, .T. ) ;
#220 = VERTEX_POINT ( 'NONE', #267 ) ;
#221 = DIRECTION ( 'NONE',  ( 0.000000000000000000, 0.000000000000000000, 1.000000000000000000 ) ) ;
#222 = ADVANCED_FACE ( 'NONE', ( #599 ), #608, .F. ) ;
#223 = CC_DESIGN_APPROVAL ( #10, ( #706 ) ) ;
#224 = DIRECTION ( 'NONE',  ( 0.000000000000000000, -0.000000000000000000, -1.000000000000000000 ) ) ;
#225 = CIRCLE ( 'NONE', #626, 4.500000000000031974 ) ;
#226 = EDGE_LOOP ( 'NONE', ( #52, #200, #404, #704 ) ) ;
#227 = CARTESIAN_POINT ( 'NONE',  ( 0.000000000000000000, 8.000000000000000000, 0.000000000000000000 ) ) ;
#228 = EDGE_CURVE ( 'NONE', #619, #186, #435, .T. ) ;
#229 = DIRECTION ( 'NONE',  ( 0.000000000000000000, 1.000000000000000000, 0.000000000000000000 ) ) ;
#230 = EDGE_CURVE ( 'NONE', #459, #536, #721, .T. ) ;
#231 = UNCERTAINTY_MEASURE_WITH_UNIT (LENGTH_MEASURE( 1.000000000000000082E-05 ), #634, 'distance_accuracy_value', 'NONE');
#232 = EDGE_LOOP ( 'NONE', ( #167, #174 ) ) ;
#233 = CARTESIAN_POINT ( 'NONE',  ( 450.0000000000000000, 8.000000000000000000, 210.0000000000000000 ) ) ;
#234 = ORIENTED_EDGE ( 'NONE', *, *, #420, .T. ) ;
#235 = FACE_OUTER_BOUND ( 'NONE', #559, .T. ) ;
#236 = ORIENTED_EDGE ( 'NONE', *, *, #55, .F. ) ;
#237 = CARTESIAN_POINT ( 'NONE',  ( -450.0000000000000000, 0.000000000000000000, -210.0000000000000000 ) ) ;
#238 = ORIENTED_EDGE ( 'NONE', *, *, #348, .F. ) ;
#239 = FACE_BOUND ( 'NONE', #50, .T. ) ;
#240 = ORIENTED_EDGE ( 'NONE', *, *, #605, .F. ) ;
#241 = CARTESIAN_POINT ( 'NONE',  ( -420.0000000000000000, 8.000000000000000000, -184.5000000000000284 ) ) ;
#242 = ORIENTED_EDGE ( 'NONE', *, *, #311, .F. ) ;
#243 = LINE ( 'NONE', #477, #136 ) ;
#244 = DIRECTION ( 'NONE',  ( 0.000000000000000000, -1.000000000000000000, 0.000000000000000000 ) ) ;
#245 = ADVANCED_FACE ( 'NONE', ( #602 ), #726, .T. ) ;
#246 = VERTEX_POINT ( 'NONE', #672 ) ;
#247 = CARTESIAN_POINT ( 'NONE',  ( 0.000000000000000000, 0.000000000000000000, 0.000000000000000000 ) ) ;
#248 = VERTEX_POINT ( 'NONE', #554 ) ;
#249 = LINE ( 'NONE', #192, #120 ) ;
#250 = LINE ( 'NONE', #193, #375 ) ;
#251 = VECTOR ( 'NONE', #301, 1000.000000000000000 ) ;
#252 = DIRECTION ( 'NONE',  ( -0.000000000000000000, -1.000000000000000000, -0.000000000000000000 ) ) ;
#253 = PERSON_AND_ORGANIZATION ( #270, #443 ) ;
#254 = DIRECTION ( 'NONE',  ( 0.000000000000000000, 0.000000000000000000, -1.000000000000000000 ) ) ;
#255 = AXIS2_PLACEMENT_3D ( 'NONE', #135, #78, #128 ) ;
#256 = CYLINDRICAL_SURFACE ( 'NONE', #335, 4.500000000000031974 ) ;
#257 = VERTEX_POINT ( 'NONE', #488 ) ;
#258 = DATE_AND_TIME ( #596, #408 ) ;
#259 = DIRECTION ( 'NONE',  ( 0.000000000000000000, 0.000000000000000000, 1.000000000000000000 ) ) ;
#260 = CARTESIAN_POINT ( 'NONE',  ( -385.0000000000002274, 8.000000000000000000, -170.0000000000000000 ) ) ;
#261 = COORDINATED_UNIVERSAL_TIME_OFFSET ( 8, 0, .AHEAD. ) ;
#262 = DIRECTION ( 'NONE',  ( 0.000000000000000000, 0.000000000000000000, 1.000000000000000000 ) ) ;
#263 = EDGE_CURVE ( 'NONE', #300, #732, #606, .T. ) ;
#264 = CIRCLE ( 'NONE', #87, 4.500000000000031974 ) ;
#265 = DIRECTION ( 'NONE',  ( 1.000000000000000000, -0.000000000000000000, 0.000000000000000000 ) ) ;
#266 = APPROVAL_STATUS ( 'not_yet_approved' ) ;
#267 = CARTESIAN_POINT ( 'NONE',  ( 450.0000000000000000, 16.00000000000000000, 210.0000000000000284 ) ) ;
#268 = EDGE_CURVE ( 'NONE', #70, #576, #663, .T. ) ;
#269 = CIRCLE ( 'NONE', #362, 4.500000000000031974 ) ;
#270 = PERSON ( '未', '未', '未', ('未'), ('未'), ('未') ) ;
#271 = ORIENTED_EDGE ( 'NONE', *, *, #311, .T. ) ;
#272 = CARTESIAN_POINT ( 'NONE',  ( -420.0000000000000000, 0.000000000000000000, -180.0000000000000000 ) ) ;
#273 = APPROVAL_PERSON_ORGANIZATION ( #253, #100, #592 ) ;
#274 = ORIENTED_EDGE ( 'NONE', *, *, #665, .T. ) ;
#275 = CARTESIAN_POINT ( 'NONE',  ( -420.0000000000000000, 8.000000000000000000, -180.0000000000000000 ) ) ;
#276 = VECTOR ( 'NONE', #286, 1000.000000000000000 ) ;
#277 = EDGE_CURVE ( 'NONE', #419, #177, #212, .T. ) ;
#278 = EDGE_LOOP ( 'NONE', ( #236, #42, #114, #632 ) ) ;
#279 = DIRECTION ( 'NONE',  ( -0.000000000000000000, -1.000000000000000000, -0.000000000000000000 ) ) ;
#280 = ORIENTED_EDGE ( 'NONE', *, *, #277, .T. ) ;
#281 = DIRECTION ( 'NONE',  ( 0.000000000000000000, 0.000000000000000000, -1.000000000000000000 ) ) ;
#282 = CARTESIAN_POINT ( 'NONE',  ( -420.0000000000000000, 8.000000000000000000, -175.4999999999999716 ) ) ;
#283 = ORIENTED_EDGE ( 'NONE', *, *, #618, .T. ) ;
#284 = CARTESIAN_POINT ( 'NONE',  ( 450.0000000000000000, 16.00000000000000000, 186.0000000000000000 ) ) ;
#285 = EDGE_CURVE ( 'NONE', #671, #104, #26, .T. ) ;
#286 = DIRECTION ( 'NONE',  ( 0.000000000000000000, 0.000000000000000000, -1.000000000000000000 ) ) ;
#287 = AXIS2_PLACEMENT_3D ( 'NONE', #597, #93, #446 ) ;
#288 = ORIENTED_EDGE ( 'NONE', *, *, #196, .F. ) ;
#289 = FACE_BOUND ( 'NONE', #232, .T. ) ;
#290 = DIRECTION ( 'NONE',  ( 0.000000000000000000, 0.000000000000000000, -1.000000000000000000 ) ) ;
#291 = ORIENTED_EDGE ( 'NONE', *, *, #165, .F. ) ;
#292 = FACE_OUTER_BOUND ( 'NONE', #340, .T. ) ;
#293 = EDGE_LOOP ( 'NONE', ( #131, #586 ) ) ;
#294 = DIRECTION ( 'NONE',  ( 0.000000000000000000, -0.000000000000000000, -1.000000000000000000 ) ) ;
#295 = ADVANCED_BREP_SHAPE_REPRESENTATION ( 'FD-016_guard_panel', ( #154, #531 ), #515 ) ;
#296 = ORIENTED_EDGE ( 'NONE', *, *, #458, .T. ) ;
#297 = CARTESIAN_POINT ( 'NONE',  ( 385.0000000000000000, 8.000000000000000000, 130.0000000000000284 ) ) ;
#298 = ORIENTED_EDGE ( 'NONE', *, *, #213, .F. ) ;
#299 = AXIS2_PLACEMENT_3D ( 'NONE', #63, #407, #294 ) ;
#300 = VERTEX_POINT ( 'NONE', #551 ) ;
#301 = DIRECTION ( 'NONE',  ( -1.000000000000000000, -0.000000000000000000, -0.000000000000000000 ) ) ;
#302 = CARTESIAN_POINT ( 'NONE',  ( 420.0000000000000000, 0.000000000000000000, 184.5000000000000284 ) ) ;
#303 = DIRECTION ( 'NONE',  ( -1.000000000000000000, -0.000000000000000000, -0.000000000000000000 ) ) ;
#304 = EDGE_LOOP ( 'NONE', ( #516, #8 ) ) ;
#305 = PERSON_AND_ORGANIZATION ( #270, #443 ) ;
#306 = PLANE ( 'NONE',  #72 ) ;
#307 = VECTOR ( 'NONE', #252, 1000.000000000000000 ) ;
#308 = CARTESIAN_POINT ( 'NONE',  ( -420.0000000000000000, 0.000000000000000000, 175.4999999999999716 ) ) ;
#309 = ORIENTED_EDGE ( 'NONE', *, *, #489, .F. ) ;
#310 = DATE_TIME_ROLE ( 'classification_date' ) ;
#311 = EDGE_CURVE ( 'NONE', #695, #343, #49, .T. ) ;
#312 = CIRCLE ( 'NONE', #255, 4.500000000000031974 ) ;
#313 = CARTESIAN_POINT ( 'NONE',  ( -420.0000000000000000, 8.000000000000000000, 180.0000000000000000 ) ) ;
#314 = DIRECTION ( 'NONE',  ( -0.000000000000000000, -0.000000000000000000, 1.000000000000000000 ) ) ;
#315 = PERSON_AND_ORGANIZATION ( #270, #443 ) ;
#316 = DIRECTION ( 'NONE',  ( -0.000000000000000000, -1.000000000000000000, -0.000000000000000000 ) ) ;
#317 = CARTESIAN_POINT ( 'NONE',  ( 420.0000000000000000, 0.000000000000000000, -175.4999999999999716 ) ) ;
#318 = ADVANCED_FACE ( 'NONE', ( #219 ), #383, .F. ) ;
#319 = CIRCLE ( 'NONE', #352, 4.500000000000031974 ) ;
#320 = DIRECTION ( 'NONE',  ( -1.000000000000000000, -0.000000000000000000, -0.000000000000000000 ) ) ;
#321 = ORIENTED_EDGE ( 'NONE', *, *, #277, .F. ) ;
#322 = CARTESIAN_POINT ( 'NONE',  ( 420.0000000000000000, 8.000000000000000000, 180.0000000000000000 ) ) ;
#323 = VECTOR ( 'NONE', #715, 1000.000000000000000 ) ;
#324 = ORIENTED_EDGE ( 'NONE', *, *, #217, .T. ) ;
#325 = DIRECTION ( 'NONE',  ( 0.000000000000000000, 0.000000000000000000, -1.000000000000000000 ) ) ;
#326 = CC_DESIGN_APPROVAL ( #422, ( #113 ) ) ;
#327 = EDGE_CURVE ( 'NONE', #246, #727, #677, .T. ) ;
#328 = ORIENTED_EDGE ( 'NONE', *, *, #268, .F. ) ;
#329 = CARTESIAN_POINT ( 'NONE',  ( 420.0000000000000000, 0.000000000000000000, 180.0000000000000000 ) ) ;
#330 = AXIS2_PLACEMENT_3D ( 'NONE', #498, #162, #221 ) ;
#331 = VECTOR ( 'NONE', #462, 1000.000000000000000 ) ;
#332 = FACE_BOUND ( 'NONE', #293, .T. ) ;
#333 = ORIENTED_EDGE ( 'NONE', *, *, #735, .F. ) ;
#334 = PLANE ( 'NONE',  #199 ) ;
#335 = AXIS2_PLACEMENT_3D ( 'NONE', #645, #33, #484 ) ;
#336 = EDGE_LOOP ( 'NONE', ( #478, #402, #183, #624 ) ) ;
#337 = CYLINDRICAL_SURFACE ( 'NONE', #29, 4.500000000000031974 ) ;
#338 = CC_DESIGN_PERSON_AND_ORGANIZATION_ASSIGNMENT ( #585, #31, ( #729 ) ) ;
#339 = VECTOR ( 'NONE', #290, 1000.000000000000000 ) ;
#340 = EDGE_LOOP ( 'NONE', ( #242, #161, #456, #416, #565, #274 ) ) ;
#341 = CARTESIAN_POINT ( 'NONE',  ( -450.0000000000000000, 8.000000000000000000, -210.0000000000000000 ) ) ;
#342 = DIRECTION ( 'NONE',  ( -0.000000000000000000, -0.000000000000000000, 1.000000000000000000 ) ) ;
#343 = VERTEX_POINT ( 'NONE', #2 ) ;
#344 = CARTESIAN_POINT ( 'NONE',  ( 420.0000000000000000, 8.000000000000000000, -180.0000000000000000 ) ) ;
#345 = LINE ( 'NONE', #282, #719 ) ;
#346 = ORIENTED_EDGE ( 'NONE', *, *, #64, .F. ) ;
#347 = LINE ( 'NONE', #69, #590 ) ;
#348 = EDGE_CURVE ( 'NONE', #674, #121, #563, .T. ) ;
#349 = ORIENTED_EDGE ( 'NONE', *, *, #458, .F. ) ;
#350 = LINE ( 'NONE', #588, #57 ) ;
#351 = ORIENTED_EDGE ( 'NONE', *, *, #621, .F. ) ;
#352 = AXIS2_PLACEMENT_3D ( 'NONE', #344, #730, #172 ) ;
#353 = EDGE_LOOP ( 'NONE', ( #699, #333, #288, #271 ) ) ;
#354 = DIRECTION ( 'NONE',  ( -0.000000000000000000, -1.000000000000000000, -0.000000000000000000 ) ) ;
#355 = DIRECTION ( 'NONE',  ( 0.000000000000000000, 1.000000000000000000, 0.000000000000000000 ) ) ;
#356 = LINE ( 'NONE', #584, #307 ) ;
#357 = APPLICATION_PROTOCOL_DEFINITION ( 'international standard', 'config_control_design', 1994, #371 ) ;
#358 = VERTEX_POINT ( 'NONE', #284 ) ;
#359 = DIRECTION ( 'NONE',  ( 0.000000000000000000, 1.000000000000000000, 0.000000000000000000 ) ) ;
#360 = EDGE_CURVE ( 'NONE', #70, #695, #519, .T. ) ;
#361 = CYLINDRICAL_SURFACE ( 'NONE', #679, 4.500000000000031974 ) ;
#362 = AXIS2_PLACEMENT_3D ( 'NONE', #655, #151, #370 ) ;
#363 = ORIENTED_EDGE ( 'NONE', *, *, #483, .T. ) ;
#364 = CALENDAR_DATE ( 2026, 28, 7 ) ;
#365 = CARTESIAN_POINT ( 'NONE',  ( 420.0000000000000000, 8.000000000000000000, 180.0000000000000000 ) ) ;
#366 = PERSON_AND_ORGANIZATION_ROLE ( 'creator' ) ;
#367 = CARTESIAN_POINT ( 'NONE',  ( 450.0000000000000000, 16.00000000000000000, 210.0000000000000284 ) ) ;
#368 = AXIS2_PLACEMENT_3D ( 'NONE', #702, #354, #647 ) ;
#369 = CARTESIAN_POINT ( 'NONE',  ( -420.0000000000000000, 0.000000000000000000, -175.4999999999999716 ) ) ;
#370 = DIRECTION ( 'NONE',  ( 0.000000000000000000, 0.000000000000000000, 1.000000000000000000 ) ) ;
#371 = APPLICATION_CONTEXT ( 'configuration controlled 3d designs of mechanical parts and assemblies' ) ;
#372 = APPROVAL_ROLE ( '' ) ;
#373 = EDGE_CURVE ( 'NONE', #419, #140, #319, .T. ) ;
#374 = DIRECTION ( 'NONE',  ( 0.000000000000000000, 0.000000000000000000, -1.000000000000000000 ) ) ;
#375 = VECTOR ( 'NONE', #638, 1000.000000000000000 ) ;
#376 = CARTESIAN_POINT ( 'NONE',  ( -420.0000000000000000, 0.000000000000000000, -184.5000000000000284 ) ) ;
#377 = ORIENTED_EDGE ( 'NONE', *, *, #558, .F. ) ;
#378 = CARTESIAN_POINT ( 'NONE',  ( 420.0000000000000000, 8.000000000000000000, -184.5000000000000284 ) ) ;
#379 = ADVANCED_FACE ( 'NONE', ( #289, #454, #239, #332, #629, #122 ), #450, .F. ) ;
#380 = ORIENTED_EDGE ( 'NONE', *, *, #153, .T. ) ;
#381 = CARTESIAN_POINT ( 'NONE',  ( -420.0000000000000000, 8.000000000000000000, -180.0000000000000000 ) ) ;
#382 = ORIENTED_EDGE ( 'NONE', *, *, #656, .F. ) ;
#383 = PLANE ( 'NONE',  #532 ) ;
#384 = VECTOR ( 'NONE', #184, 1000.000000000000000 ) ;
#385 = ADVANCED_FACE ( 'NONE', ( #691 ), #59, .T. ) ;
#386 = PLANE ( 'NONE',  #39 ) ;
#387 = FACE_OUTER_BOUND ( 'NONE', #1, .T. ) ;
#388 = ADVANCED_FACE ( 'NONE', ( #389 ), #386, .T. ) ;
#389 = FACE_OUTER_BOUND ( 'NONE', #613, .T. ) ;
#390 = APPROVAL_PERSON_ORGANIZATION ( #430, #422, #372 ) ;
#391 = CARTESIAN_POINT ( 'NONE',  ( -385.0000000000002274, 0.000000000000000000, -170.0000000000000000 ) ) ;
#392 = VECTOR ( 'NONE', #473, 1000.000000000000000 ) ;
#393 = ORIENTED_EDGE ( 'NONE', *, *, #401, .F. ) ;
#394 = CARTESIAN_POINT ( 'NONE',  ( -420.0000000000000000, 0.000000000000000000, -180.0000000000000000 ) ) ;
#395 = AXIS2_PLACEMENT_3D ( 'NONE', #322, #547, #374 ) ;
#396 = ORIENTED_EDGE ( 'NONE', *, *, #722, .F. ) ;
#397 = CARTESIAN_POINT ( 'NONE',  ( -385.0000000000002274, 8.000000000000000000, 130.0000000000000284 ) ) ;
#398 = CIRCLE ( 'NONE', #495, 4.500000000000031974 ) ;
#399 = EDGE_LOOP ( 'NONE', ( #163, #689 ) ) ;
#400 = DIRECTION ( 'NONE',  ( 1.000000000000000000, -0.000000000000000000, 0.000000000000000000 ) ) ;
#401 = EDGE_CURVE ( 'NONE', #358, #70, #126, .T. ) ;
#402 = ORIENTED_EDGE ( 'NONE', *, *, #44, .T. ) ;
#403 = DIRECTION ( 'NONE',  ( 0.000000000000000000, 0.000000000000000000, 1.000000000000000000 ) ) ;
#404 = ORIENTED_EDGE ( 'NONE', *, *, #21, .T. ) ;
#405 = CARTESIAN_POINT ( 'NONE',  ( -385.0000000000002274, 8.000000000000000000, 130.0000000000000284 ) ) ;
#406 = EDGE_LOOP ( 'NONE', ( #30, #296, #666, #461 ) ) ;
#407 = DIRECTION ( 'NONE',  ( 0.000000000000000000, -1.000000000000000000, 0.000000000000000000 ) ) ;
#408 = LOCAL_TIME ( 23, 17, 29.00000000000000000, #705 ) ;
#409 = EDGE_LOOP ( 'NONE', ( #581, #280, #109, #191 ) ) ;
#410 = DIRECTION ( 'NONE',  ( -0.000000000000000000, -1.000000000000000000, -0.000000000000000000 ) ) ;
#411 = CARTESIAN_POINT ( 'NONE',  ( 420.0000000000000000, 0.000000000000000000, -180.0000000000000000 ) ) ;
#412 = CARTESIAN_POINT ( 'NONE',  ( 450.0000000000000000, 16.00000000000000000, 186.0000000000000000 ) ) ;
#413 = PERSON_AND_ORGANIZATION ( #270, #443 ) ;
#414 = AXIS2_PLACEMENT_3D ( 'NONE', #696, #32, #262 ) ;
#415 = ADVANCED_FACE ( 'NONE', ( #682 ), #566, .F. ) ;
#416 = ORIENTED_EDGE ( 'NONE', *, *, #88, .F. ) ;
#417 = DIRECTION ( 'NONE',  ( 0.000000000000000000, 1.000000000000000000, 0.000000000000000000 ) ) ;
#418 = DIRECTION ( 'NONE',  ( 0.000000000000000000, 1.000000000000000000, 0.000000000000000000 ) ) ;
#419 = VERTEX_POINT ( 'NONE', #560 ) ;
#420 = EDGE_CURVE ( 'NONE', #186, #619, #225, .T. ) ;
#421 = DIRECTION ( 'NONE',  ( 1.000000000000000000, 0.000000000000000000, -0.000000000000000000 ) ) ;
#422 = APPROVAL ( #266, '未' ) ;
#423 = FACE_BOUND ( 'NONE', #85, .T. ) ;
#424 = APPROVAL_DATE_TIME ( #530, #10 ) ;
#425 = FACE_OUTER_BOUND ( 'NONE', #353, .T. ) ;
#426 = ADVANCED_FACE ( 'NONE', ( #625 ), #337, .F. ) ;
#427 = ADVANCED_FACE ( 'NONE', ( #235 ), #334, .F. ) ;
#428 = DIRECTION ( 'NONE',  ( -0.000000000000000000, -1.000000000000000000, -0.000000000000000000 ) ) ;
#429 = DIRECTION ( 'NONE',  ( 0.000000000000000000, 0.000000000000000000, -1.000000000000000000 ) ) ;
#430 = PERSON_AND_ORGANIZATION ( #270, #443 ) ;
#431 = ADVANCED_FACE ( 'NONE', ( #292 ), #6, .F. ) ;
#432 = CARTESIAN_POINT ( 'NONE',  ( 450.0000000000000000, 8.000000000000000000, 186.0000000000000000 ) ) ;
#433 = CARTESIAN_POINT ( 'NONE',  ( 385.0000000000000000, 8.000000000000000000, -170.0000000000000000 ) ) ;
#434 = AXIS2_PLACEMENT_3D ( 'NONE', #137, #355, #79 ) ;
#435 = CIRCLE ( 'NONE', #119, 4.500000000000031974 ) ;
#436 = EDGE_CURVE ( 'NONE', #220, #358, #522, .T. ) ;
#437 = EDGE_LOOP ( 'NONE', ( #681, #291, #214, #643 ) ) ;
#438 = AXIS2_PLACEMENT_3D ( 'NONE', #313, #428, #654 ) ;
#439 = DIRECTION ( 'NONE',  ( 1.000000000000000000, 0.000000000000000000, 0.000000000000000000 ) ) ;
#440 = LINE ( 'NONE', #215, #323 ) ;
#441 = ORIENTED_EDGE ( 'NONE', *, *, #692, .F. ) ;
#442 = LINE ( 'NONE', #378, #537 ) ;
#443 = ORGANIZATION ( '未', '未', '' ) ;
#444 = VERTEX_POINT ( 'NONE', #18 ) ;
#445 = CARTESIAN_POINT ( 'NONE',  ( -450.0000000000000000, 16.00000000000000000, 186.0000000000000000 ) ) ;
#446 = DIRECTION ( 'NONE',  ( -1.000000000000000000, 0.000000000000000000, -0.000000000000000000 ) ) ;
#447 = AXIS2_PLACEMENT_3D ( 'NONE', #457, #400, #201 ) ;
#448 = EDGE_CURVE ( 'NONE', #104, #671, #594, .T. ) ;
#449 = VERTEX_POINT ( 'NONE', #90 ) ;
#450 = PLANE ( 'NONE',  #579 ) ;
#451 = CARTESIAN_POINT ( 'NONE',  ( 420.0000000000000000, 8.000000000000000000, -180.0000000000000000 ) ) ;
#452 = EDGE_CURVE ( 'NONE', #188, #576, #14, .T. ) ;
#453 = ORIENTED_EDGE ( 'NONE', *, *, #502, .F. ) ;
#454 = FACE_BOUND ( 'NONE', #130, .T. ) ;
#455 = VECTOR ( 'NONE', #314, 1000.000000000000000 ) ;
#456 = ORIENTED_EDGE ( 'NONE', *, *, #268, .T. ) ;
#457 = CARTESIAN_POINT ( 'NONE',  ( -450.0000000000000000, 8.000000000000000000, 210.0000000000000000 ) ) ;
#458 = EDGE_CURVE ( 'NONE', #188, #248, #249, .T. ) ;
#459 = VERTEX_POINT ( 'NONE', #27 ) ;
#460 = DIRECTION ( 'NONE',  ( 0.000000000000000000, 0.000000000000000000, 1.000000000000000000 ) ) ;
#461 = ORIENTED_EDGE ( 'NONE', *, *, #88, .T. ) ;
#462 = DIRECTION ( 'NONE',  ( -0.000000000000000000, -0.000000000000000000, 1.000000000000000000 ) ) ;
#463 = ORIENTED_EDGE ( 'NONE', *, *, #153, .F. ) ;
#464 = VECTOR ( 'NONE', #514, 1000.000000000000000 ) ;
#465 = ORIENTED_EDGE ( 'NONE', *, *, #37, .F. ) ;
#466 = LINE ( 'NONE', #35, #688 ) ;
#467 = DIRECTION ( 'NONE',  ( 0.000000000000000000, -0.000000000000000000, -1.000000000000000000 ) ) ;
#468 = VECTOR ( 'NONE', #557, 1000.000000000000000 ) ;
#469 = EDGE_CURVE ( 'NONE', #248, #300, #71, .T. ) ;
#470 = CARTESIAN_POINT ( 'NONE',  ( -450.0000000000000000, 0.000000000000000000, 210.0000000000000000 ) ) ;
#471 = EDGE_LOOP ( 'NONE', ( #693, #181, #328, #393 ) ) ;
#472 = DIRECTION ( 'NONE',  ( -0.000000000000000000, -1.000000000000000000, -0.000000000000000000 ) ) ;
#473 = DIRECTION ( 'NONE',  ( -0.000000000000000000, -0.000000000000000000, 1.000000000000000000 ) ) ;
#474 = EDGE_LOOP ( 'NONE', ( #382, #238, #701, #68 ) ) ;
#475 = PERSON_AND_ORGANIZATION ( #270, #443 ) ;
#476 = CC_DESIGN_PERSON_AND_ORGANIZATION_ASSIGNMENT ( #700, #366, ( #706 ) ) ;
#477 = CARTESIAN_POINT ( 'NONE',  ( -420.0000000000000000, 8.000000000000000000, 184.5000000000000284 ) ) ;
#478 = ORIENTED_EDGE ( 'NONE', *, *, #511, .T. ) ;
#479 = LINE ( 'NONE', #203, #160 ) ;
#480 = PERSON_AND_ORGANIZATION_ROLE ( 'design_supplier' ) ;
#481 = CARTESIAN_POINT ( 'NONE',  ( 0.000000000000000000, 8.000000000000000000, 186.0000000000000000 ) ) ;
#482 = CARTESIAN_POINT ( 'NONE',  ( 0.000000000000000000, 0.000000000000000000, 0.000000000000000000 ) ) ;
#483 = EDGE_CURVE ( 'NONE', #45, #524, #243, .T. ) ;
#484 = DIRECTION ( 'NONE',  ( 0.000000000000000000, 0.000000000000000000, -1.000000000000000000 ) ) ;
#485 = APPROVAL_STATUS ( 'not_yet_approved' ) ;
#486 = AXIS2_PLACEMENT_3D ( 'NONE', #365, #417, #644 ) ;
#487 = CARTESIAN_POINT ( 'NONE',  ( -385.0000000000002274, 0.000000000000000000, 130.0000000000000284 ) ) ;
#488 = CARTESIAN_POINT ( 'NONE',  ( 420.0000000000000000, 8.000000000000000000, 184.5000000000000284 ) ) ;
#489 = EDGE_CURVE ( 'NONE', #343, #627, #637, .T. ) ;
#490 = CC_DESIGN_PERSON_AND_ORGANIZATION_ASSIGNMENT ( #475, #139, ( #528 ) ) ;
#491 = EDGE_LOOP ( 'NONE', ( #80, #76, #125, #463 ) ) ;
#492 = DIRECTION ( 'NONE',  ( 0.000000000000000000, 1.000000000000000000, 0.000000000000000000 ) ) ;
#493 = AXIS2_PLACEMENT_3D ( 'NONE', #411, #418, #535 ) ;
#494 = ORIENTED_EDGE ( 'NONE', *, *, #55, .T. ) ;
#495 = AXIS2_PLACEMENT_3D ( 'NONE', #112, #176, #403 ) ;
#496 = DIRECTION ( 'NONE',  ( -0.000000000000000000, -1.000000000000000000, -0.000000000000000000 ) ) ;
#497 = ORIENTED_EDGE ( 'NONE', *, *, #692, .T. ) ;
#498 = CARTESIAN_POINT ( 'NONE',  ( -420.0000000000000000, 0.000000000000000000, 180.0000000000000000 ) ) ;
#499 = DESIGN_CONTEXT ( 'detailed design', #371, 'design' ) ;
#500 = ORIENTED_EDGE ( 'NONE', *, *, #285, .T. ) ;
#501 = DIRECTION ( 'NONE',  ( -1.000000000000000000, 0.000000000000000000, 0.000000000000000000 ) ) ;
#502 = EDGE_CURVE ( 'NONE', #449, #732, #466, .T. ) ;
#503 = CC_DESIGN_APPROVAL ( #100, ( #729 ) ) ;
#504 = ORIENTED_EDGE ( 'NONE', *, *, #327, .F. ) ;
#505 = CARTESIAN_POINT ( 'NONE',  ( -385.0000000000002274, 8.000000000000000000, -170.0000000000000000 ) ) ;
#506 = VECTOR ( 'NONE', #410, 1000.000000000000000 ) ;
#507 = CARTESIAN_POINT ( 'NONE',  ( 385.0000000000000000, 0.000000000000000000, 130.0000000000000284 ) ) ;
#508 = ORIENTED_EDGE ( 'NONE', *, *, #469, .T. ) ;
#509 = DIRECTION ( 'NONE',  ( 0.000000000000000000, 0.000000000000000000, 1.000000000000000000 ) ) ;
#510 = ADVANCED_FACE ( 'NONE', ( #187 ), #306, .F. ) ;
#511 = EDGE_CURVE ( 'NONE', #459, #257, #640, .T. ) ;
#512 = CIRCLE ( 'NONE', #330, 4.500000000000031974 ) ;
#513 = ORIENTED_EDGE ( 'NONE', *, *, #555, .F. ) ;
#514 = DIRECTION ( 'NONE',  ( -0.000000000000000000, -1.000000000000000000, -0.000000000000000000 ) ) ;
#515 =( GEOMETRIC_REPRESENTATION_CONTEXT ( 3 ) GLOBAL_UNCERTAINTY_ASSIGNED_CONTEXT ( ( #231 ) ) GLOBAL_UNIT_ASSIGNED_CONTEXT ( ( #634, #118, #190 ) ) REPRESENTATION_CONTEXT ( 'NONE', 'WORKASPACE' ) );
#516 = ORIENTED_EDGE ( 'NONE', *, *, #669, .T. ) ;
#517 = CARTESIAN_POINT ( 'NONE',  ( 450.0000000000000000, 0.000000000000000000, 210.0000000000000000 ) ) ;
#518 = ORIENTED_EDGE ( 'NONE', *, *, #420, .F. ) ;
#519 = LINE ( 'NONE', #687, #331 ) ;
#520 = EDGE_LOOP ( 'NONE', ( #500, #494, #518, #377 ) ) ;
#521 = ORIENTED_EDGE ( 'NONE', *, *, #205, .F. ) ;
#522 = LINE ( 'NONE', #367, #731 ) ;
#523 = CARTESIAN_POINT ( 'NONE',  ( -420.0000000000000000, 8.000000000000000000, -175.4999999999999716 ) ) ;
#524 = VERTEX_POINT ( 'NONE', #134 ) ;
#525 = ORIENTED_EDGE ( 'NONE', *, *, #228, .T. ) ;
#526 = DIRECTION ( 'NONE',  ( 0.000000000000000000, 0.000000000000000000, 1.000000000000000000 ) ) ;
#527 = ADVANCED_FACE ( 'NONE', ( #77 ), #533, .F. ) ;
#528 = PRODUCT ( 'FD-016_guard_panel', 'FD-016_guard_panel', '', ( #81 ) ) ;
#529 = ORIENTED_EDGE ( 'NONE', *, *, #686, .F. ) ;
#530 = DATE_AND_TIME ( #152, #147 ) ;
#531 = AXIS2_PLACEMENT_3D ( 'NONE', #247, #36, #34 ) ;
#532 = AXIS2_PLACEMENT_3D ( 'NONE', #233, #501, #675 ) ;
#533 = CYLINDRICAL_SURFACE ( 'NONE', #368, 4.500000000000031974 ) ;
#534 = CYLINDRICAL_SURFACE ( 'NONE', #438, 4.500000000000031974 ) ;
#535 = DIRECTION ( 'NONE',  ( 0.000000000000000000, 0.000000000000000000, 1.000000000000000000 ) ) ;
#536 = VERTEX_POINT ( 'NONE', #198 ) ;
#537 = VECTOR ( 'NONE', #155, 1000.000000000000000 ) ;
#538 = VECTOR ( 'NONE', #544, 1000.000000000000000 ) ;
#539 = CARTESIAN_POINT ( 'NONE',  ( -450.0000000000000000, 0.000000000000000000, 210.0000000000000000 ) ) ;
#540 = PLANE ( 'NONE',  #170 ) ;
#541 = FACE_OUTER_BOUND ( 'NONE', #17, .T. ) ;
#542 = CALENDAR_DATE ( 2026, 28, 7 ) ;
#543 = EDGE_CURVE ( 'NONE', #246, #685, #708, .T. ) ;
#544 = DIRECTION ( 'NONE',  ( 1.000000000000000000, 0.000000000000000000, 0.000000000000000000 ) ) ;
#545 = FACE_BOUND ( 'NONE', #399, .T. ) ;
#546 = CARTESIAN_POINT ( 'NONE',  ( 420.0000000000000000, 0.000000000000000000, -184.5000000000000284 ) ) ;
#547 = DIRECTION ( 'NONE',  ( -0.000000000000000000, -1.000000000000000000, -0.000000000000000000 ) ) ;
#548 = AXIS2_PLACEMENT_3D ( 'NONE', #714, #211, #185 ) ;
#549 = DIRECTION ( 'NONE',  ( 0.000000000000000000, 1.000000000000000000, 0.000000000000000000 ) ) ;
#550 = VERTEX_POINT ( 'NONE', #302 ) ;
#551 = CARTESIAN_POINT ( 'NONE',  ( 450.0000000000000000, 0.000000000000000000, -210.0000000000000000 ) ) ;
#552 = CC_DESIGN_SECURITY_CLASSIFICATION ( #113, ( #729 ) ) ;
#553 = VERTEX_POINT ( 'NONE', #582 ) ;
#554 = CARTESIAN_POINT ( 'NONE',  ( 450.0000000000000000, 8.000000000000000000, -210.0000000000000000 ) ) ;
#555 = EDGE_CURVE ( 'NONE', #257, #459, #603, .T. ) ;
#556 = ORIENTED_EDGE ( 'NONE', *, *, #483, .F. ) ;
#557 = DIRECTION ( 'NONE',  ( -0.000000000000000000, -1.000000000000000000, -0.000000000000000000 ) ) ;
#558 = EDGE_CURVE ( 'NONE', #671, #186, #479, .T. ) ;
#559 = EDGE_LOOP ( 'NONE', ( #106, #453, #396, #508 ) ) ;
#560 = CARTESIAN_POINT ( 'NONE',  ( 420.0000000000000000, 8.000000000000000000, -175.4999999999999716 ) ) ;
#561 = VECTOR ( 'NONE', #105, 1000.000000000000000 ) ;
#562 = ORIENTED_EDGE ( 'NONE', *, *, #436, .F. ) ;
#563 = LINE ( 'NONE', #297, #464 ) ;
#564 = DIRECTION ( 'NONE',  ( -1.000000000000000000, -0.000000000000000000, -0.000000000000000000 ) ) ;
#565 = ORIENTED_EDGE ( 'NONE', *, *, #502, .T. ) ;
#566 = CYLINDRICAL_SURFACE ( 'NONE', #182, 4.500000000000031974 ) ;
#567 = VECTOR ( 'NONE', #595, 1000.000000000000000 ) ;
#568 = CC_DESIGN_PERSON_AND_ORGANIZATION_ASSIGNMENT ( #413, #480, ( #729 ) ) ;
#569 = APPLICATION_PROTOCOL_DEFINITION ( 'international standard', 'config_control_design', 1994, #664 ) ;
#570 = DIRECTION ( 'NONE',  ( 0.000000000000000000, 0.000000000000000000, 1.000000000000000000 ) ) ;
#571 = EDGE_LOOP ( 'NONE', ( #234, #525 ) ) ;
#572 = CARTESIAN_POINT ( 'NONE',  ( -385.0000000000002274, 8.000000000000000000, 130.0000000000000284 ) ) ;
#573 = ORIENTED_EDGE ( 'NONE', *, *, #142, .F. ) ;
#574 = DIRECTION ( 'NONE',  ( 0.000000000000000000, 0.000000000000000000, -1.000000000000000000 ) ) ;
#575 = ORIENTED_EDGE ( 'NONE', *, *, #605, .T. ) ;
#576 = VERTEX_POINT ( 'NONE', #587 ) ;
#577 = CARTESIAN_POINT ( 'NONE',  ( -420.0000000000000000, 8.000000000000000000, -180.0000000000000000 ) ) ;
#578 = DIRECTION ( 'NONE',  ( 0.000000000000000000, 0.000000000000000000, -1.000000000000000000 ) ) ;
#579 = AXIS2_PLACEMENT_3D ( 'NONE', #227, #53, #224 ) ;
#580 = VERTEX_POINT ( 'NONE', #82 ) ;
#581 = ORIENTED_EDGE ( 'NONE', *, *, #661, .T. ) ;
#582 = CARTESIAN_POINT ( 'NONE',  ( -385.0000000000002274, 0.000000000000000000, 130.0000000000000284 ) ) ;
#583 = ADVANCED_FACE ( 'NONE', ( #425 ), #653, .F. ) ;
#584 = CARTESIAN_POINT ( 'NONE',  ( 420.0000000000000000, 8.000000000000000000, 184.5000000000000284 ) ) ;
#585 = PERSON_AND_ORGANIZATION ( #270, #443 ) ;
#586 = ORIENTED_EDGE ( 'NONE', *, *, #157, .F. ) ;
#587 = CARTESIAN_POINT ( 'NONE',  ( -450.0000000000000000, 8.000000000000000000, 186.0000000000000000 ) ) ;
#588 = CARTESIAN_POINT ( 'NONE',  ( 385.0000000000000000, 8.000000000000000000, 130.0000000000000284 ) ) ;
#589 = VERTEX_POINT ( 'NONE', #676 ) ;
#590 = VECTOR ( 'NONE', #124, 1000.000000000000000 ) ;
#591 = DIRECTION ( 'NONE',  ( -0.000000000000000000, -1.000000000000000000, -0.000000000000000000 ) ) ;
#592 = APPROVAL_ROLE ( '' ) ;
#593 = ADVANCED_FACE ( 'NONE', ( #387, #111, #95, #697, #423, #545 ), #540, .T. ) ;
#594 = CIRCLE ( 'NONE', #713, 4.500000000000031974 ) ;
#595 = DIRECTION ( 'NONE',  ( -1.000000000000000000, 0.000000000000000000, 0.000000000000000000 ) ) ;
#596 = CALENDAR_DATE ( 2026, 28, 7 ) ;
#597 = CARTESIAN_POINT ( 'NONE',  ( -450.0000000000000000, 8.000000000000000000, 210.0000000000000000 ) ) ;
#598 = FACE_OUTER_BOUND ( 'NONE', #474, .T. ) ;
#599 = FACE_OUTER_BOUND ( 'NONE', #336, .T. ) ;
#600 = AXIS2_PLACEMENT_3D ( 'NONE', #98, #265, #325 ) ;
#601 = DATE_AND_TIME ( #542, #67 ) ;
#602 = FACE_OUTER_BOUND ( 'NONE', #11, .T. ) ;
#603 = CIRCLE ( 'NONE', #486, 4.500000000000031974 ) ;
#604 = ORIENTED_EDGE ( 'NONE', *, *, #665, .F. ) ;
#605 = EDGE_CURVE ( 'NONE', #685, #553, #250, .T. ) ;
#606 = LINE ( 'NONE', #717, #670 ) ;
#607 = ORIENTED_EDGE ( 'NONE', *, *, #263, .F. ) ;
#608 = CYLINDRICAL_SURFACE ( 'NONE', #395, 4.500000000000031974 ) ;
#609 = AXIS2_PLACEMENT_3D ( 'NONE', #381, #279, #728 ) ;
#610 = VECTOR ( 'NONE', #564, 1000.000000000000000 ) ;
#611 = CARTESIAN_POINT ( 'NONE',  ( 420.0000000000000000, 8.000000000000000000, -175.4999999999999716 ) ) ;
#612 = CC_DESIGN_PERSON_AND_ORGANIZATION_ASSIGNMENT ( #315, #642, ( #113 ) ) ;
#613 = EDGE_LOOP ( 'NONE', ( #521, #240, #497, #690 ) ) ;
#614 = CARTESIAN_POINT ( 'NONE',  ( -385.0000000000002274, 8.000000000000000000, 130.0000000000000284 ) ) ;
#615 = ORIENTED_EDGE ( 'NONE', *, *, #543, .F. ) ;
#616 = DIRECTION ( 'NONE',  ( -1.000000000000000000, 0.000000000000000000, -0.000000000000000000 ) ) ;
#617 = CARTESIAN_POINT ( 'NONE',  ( -450.0000000000000000, 16.00000000000000000, 210.0000000000000284 ) ) ;
#618 = EDGE_CURVE ( 'NONE', #589, #45, #312, .T. ) ;
#619 = VERTEX_POINT ( 'NONE', #369 ) ;
#620 = CARTESIAN_POINT ( 'NONE',  ( 420.0000000000000000, 8.000000000000000000, -180.0000000000000000 ) ) ;
#621 = EDGE_CURVE ( 'NONE', #674, #580, #350, .T. ) ;
#622 = VECTOR ( 'NONE', #138, 1000.000000000000000 ) ;
#623 = CARTESIAN_POINT ( 'NONE',  ( -450.0000000000000000, 8.000000000000000000, -210.0000000000000000 ) ) ;
#624 = ORIENTED_EDGE ( 'NONE', *, *, #230, .F. ) ;
#625 = FACE_OUTER_BOUND ( 'NONE', #491, .T. ) ;
#626 = AXIS2_PLACEMENT_3D ( 'NONE', #394, #51, #115 ) ;
#627 = VERTEX_POINT ( 'NONE', #19 ) ;
#628 = EDGE_LOOP ( 'NONE', ( #321, #171, #324, #646 ) ) ;
#629 = FACE_BOUND ( 'NONE', #13, .T. ) ;
#630 = VERTEX_POINT ( 'NONE', #308 ) ;
#631 = CARTESIAN_POINT ( 'NONE',  ( 420.0000000000000000, 0.000000000000000000, -180.0000000000000000 ) ) ;
#632 = ORIENTED_EDGE ( 'NONE', *, *, #228, .F. ) ;
#633 = ORIENTED_EDGE ( 'NONE', *, *, #436, .T. ) ;
#634 =( LENGTH_UNIT ( ) NAMED_UNIT ( * ) SI_UNIT ( .MILLI., .METRE. ) );
#635 = ADVANCED_FACE ( 'NONE', ( #73 ), #534, .F. ) ;
#636 = VERTEX_POINT ( 'NONE', #546 ) ;
#637 = LINE ( 'NONE', #539, #538 ) ;
#638 = DIRECTION ( 'NONE',  ( -0.000000000000000000, -1.000000000000000000, -0.000000000000000000 ) ) ;
#639 = CARTESIAN_POINT ( 'NONE',  ( -420.0000000000000000, 8.000000000000000000, 175.4999999999999716 ) ) ;
#640 = CIRCLE ( 'NONE', #414, 4.500000000000031974 ) ;
#641 = ORIENTED_EDGE ( 'NONE', *, *, #108, .F. ) ;
#642 = PERSON_AND_ORGANIZATION_ROLE ( 'classification_officer' ) ;
#643 = ORIENTED_EDGE ( 'NONE', *, *, #327, .T. ) ;
#644 = DIRECTION ( 'NONE',  ( 0.000000000000000000, 0.000000000000000000, 1.000000000000000000 ) ) ;
#645 = CARTESIAN_POINT ( 'NONE',  ( -420.0000000000000000, 8.000000000000000000, 180.0000000000000000 ) ) ;
#646 = ORIENTED_EDGE ( 'NONE', *, *, #724, .F. ) ;
#647 = DIRECTION ( 'NONE',  ( 0.000000000000000000, 0.000000000000000000, -1.000000000000000000 ) ) ;
#648 = CIRCLE ( 'NONE', #4, 4.500000000000031974 ) ;
#649 = ADVANCED_FACE ( 'NONE', ( #598 ), #158, .T. ) ;
#650 = LINE ( 'NONE', #20, #392 ) ;
#651 = COORDINATED_UNIVERSAL_TIME_OFFSET ( 8, 0, .AHEAD. ) ;
#652 = LOCAL_TIME ( 23, 17, 29.00000000000000000, #651 ) ;
#653 = PLANE ( 'NONE',  #287 ) ;
#654 = DIRECTION ( 'NONE',  ( 0.000000000000000000, 0.000000000000000000, -1.000000000000000000 ) ) ;
#655 = CARTESIAN_POINT ( 'NONE',  ( -420.0000000000000000, 8.000000000000000000, 180.0000000000000000 ) ) ;
#656 = EDGE_CURVE ( 'NONE', #121, #444, #56, .T. ) ;
#657 = APPROVAL_ROLE ( '' ) ;
#658 = DIRECTION ( 'NONE',  ( -0.000000000000000000, -1.000000000000000000, -0.000000000000000000 ) ) ;
#659 = APPROVAL_STATUS ( 'not_yet_approved' ) ;
#660 = DIRECTION ( 'NONE',  ( 0.000000000000000000, 0.000000000000000000, 1.000000000000000000 ) ) ;
#661 = EDGE_CURVE ( 'NONE', #140, #419, #264, .T. ) ;
#662 = CLOSED_SHELL ( 'NONE', ( #415, #169, #222, #635, #379, #593, #318, #427, #431, #583, #649, #385, #245, #388, #94, #426, #527, #156, #510, #716 ) ) ;
#663 = LINE ( 'NONE', #46, #468 ) ;
#664 = APPLICATION_CONTEXT ( 'configuration controlled 3d designs of mechanical parts and assemblies' ) ;
#665 = EDGE_CURVE ( 'NONE', #732, #343, #678, .T. ) ;
#666 = ORIENTED_EDGE ( 'NONE', *, *, #722, .T. ) ;
#667 = ORIENTED_EDGE ( 'NONE', *, *, #401, .T. ) ;
#668 = DIRECTION ( 'NONE',  ( -0.000000000000000000, -1.000000000000000000, -0.000000000000000000 ) ) ;
#669 = EDGE_CURVE ( 'NONE', #630, #524, #398, .T. ) ;
#670 = VECTOR ( 'NONE', #320, 1000.000000000000000 ) ;
#671 = VERTEX_POINT ( 'NONE', #241 ) ;
#672 = CARTESIAN_POINT ( 'NONE',  ( -385.0000000000002274, 8.000000000000000000, -170.0000000000000000 ) ) ;
#673 = AXIS2_PLACEMENT_3D ( 'NONE', #505, #509, #733 ) ;
#674 = VERTEX_POINT ( 'NONE', #684 ) ;
#675 = DIRECTION ( 'NONE',  ( 0.000000000000000000, 0.000000000000000000, 1.000000000000000000 ) ) ;
#676 = CARTESIAN_POINT ( 'NONE',  ( -420.0000000000000000, 8.000000000000000000, 175.4999999999999716 ) ) ;
#677 = LINE ( 'NONE', #9, #41 ) ;
#678 = LINE ( 'NONE', #470, #723 ) ;
#679 = AXIS2_PLACEMENT_3D ( 'NONE', #84, #709, #429 ) ;
#680 = CC_DESIGN_DATE_AND_TIME_ASSIGNMENT ( #601, #310, ( #113 ) ) ;
#681 = ORIENTED_EDGE ( 'NONE', *, *, #21, .F. ) ;
#682 = FACE_OUTER_BOUND ( 'NONE', #409, .T. ) ;
#683 = VECTOR ( 'NONE', #303, 1000.000000000000000 ) ;
#684 = CARTESIAN_POINT ( 'NONE',  ( 385.0000000000000000, 8.000000000000000000, 130.0000000000000284 ) ) ;
#685 = VERTEX_POINT ( 'NONE', #397 ) ;
#686 = EDGE_CURVE ( 'NONE', #627, #300, #12, .T. ) ;
#687 = CARTESIAN_POINT ( 'NONE',  ( -450.0000000000000000, 16.00000000000000000, 210.0000000000000284 ) ) ;
#688 = VECTOR ( 'NONE', #472, 1000.000000000000000 ) ;
#689 = ORIENTED_EDGE ( 'NONE', *, *, #724, .T. ) ;
#690 = ORIENTED_EDGE ( 'NONE', *, *, #348, .T. ) ;
#691 = FACE_OUTER_BOUND ( 'NONE', #437, .T. ) ;
#692 = EDGE_CURVE ( 'NONE', #685, #674, #173, .T. ) ;
#693 = ORIENTED_EDGE ( 'NONE', *, *, #37, .T. ) ;
#694 = DIRECTION ( 'NONE',  ( 0.000000000000000000, 1.000000000000000000, 0.000000000000000000 ) ) ;
#695 = VERTEX_POINT ( 'NONE', #617 ) ;
#696 = CARTESIAN_POINT ( 'NONE',  ( 420.0000000000000000, 8.000000000000000000, 180.0000000000000000 ) ) ;
#697 = FACE_BOUND ( 'NONE', #226, .T. ) ;
#698 = CARTESIAN_POINT ( 'NONE',  ( -450.0000000000000000, 16.00000000000000000, 186.0000000000000000 ) ) ;
#699 = ORIENTED_EDGE ( 'NONE', *, *, #489, .T. ) ;
#700 = PERSON_AND_ORGANIZATION ( #270, #443 ) ;
#701 = ORIENTED_EDGE ( 'NONE', *, *, #621, .T. ) ;
#702 = CARTESIAN_POINT ( 'NONE',  ( -420.0000000000000000, 8.000000000000000000, -180.0000000000000000 ) ) ;
#703 = LINE ( 'NONE', #260, #683 ) ;
#704 = ORIENTED_EDGE ( 'NONE', *, *, #64, .T. ) ;
#705 = COORDINATED_UNIVERSAL_TIME_OFFSET ( 8, 0, .AHEAD. ) ;
#706 = PRODUCT_DEFINITION ( '�', '', #729, #499 ) ;
#707 = CARTESIAN_POINT ( 'NONE',  ( 450.0000000000000000, 8.000000000000000000, -210.0000000000000000 ) ) ;
#708 = LINE ( 'NONE', #405, #216 ) ;
#709 = DIRECTION ( 'NONE',  ( -0.000000000000000000, -1.000000000000000000, -0.000000000000000000 ) ) ;
#710 = COORDINATED_UNIVERSAL_TIME_OFFSET ( 8, 0, .AHEAD. ) ;
#711 = CIRCLE ( 'NONE', #83, 4.500000000000031974 ) ;
#712 = CARTESIAN_POINT ( 'NONE',  ( 420.0000000000000000, 8.000000000000000000, -184.5000000000000284 ) ) ;
#713 = AXIS2_PLACEMENT_3D ( 'NONE', #577, #359, #526 ) ;
#714 = CARTESIAN_POINT ( 'NONE',  ( 385.0000000000000000, 8.000000000000000000, 130.0000000000000284 ) ) ;
#715 = DIRECTION ( 'NONE',  ( 1.000000000000000000, 0.000000000000000000, 0.000000000000000000 ) ) ;
#716 = ADVANCED_FACE ( 'NONE', ( #734 ), #3, .F. ) ;
#717 = CARTESIAN_POINT ( 'NONE',  ( -450.0000000000000000, 0.000000000000000000, -210.0000000000000000 ) ) ;
#718 = PRODUCT_RELATED_PRODUCT_CATEGORY ( 'detail', '', ( #528 ) ) ;
#719 = VECTOR ( 'NONE', #658, 1000.000000000000000 ) ;
#720 = ORIENTED_EDGE ( 'NONE', *, *, #511, .F. ) ;
#721 = LINE ( 'NONE', #38, #189 ) ;
#722 = EDGE_CURVE ( 'NONE', #248, #449, #7, .T. ) ;
#723 = VECTOR ( 'NONE', #342, 1000.000000000000000 ) ;
#724 = EDGE_CURVE ( 'NONE', #177, #636, #711, .T. ) ;
#725 = ORIENTED_EDGE ( 'NONE', *, *, #735, .T. ) ;
#726 = PLANE ( 'NONE',  #600 ) ;
#727 = VERTEX_POINT ( 'NONE', #391 ) ;
#728 = DIRECTION ( 'NONE',  ( 0.000000000000000000, 0.000000000000000000, -1.000000000000000000 ) ) ;
#729 = PRODUCT_DEFINITION_FORMATION_WITH_SPECIFIED_SOURCE ( '�', '', #528, .NOT_KNOWN. ) ;
#730 = DIRECTION ( 'NONE',  ( 0.000000000000000000, 1.000000000000000000, 0.000000000000000000 ) ) ;
#731 = VECTOR ( 'NONE', #141, 1000.000000000000000 ) ;
#732 = VERTEX_POINT ( 'NONE', #237 ) ;
#733 = DIRECTION ( 'NONE',  ( 1.000000000000000000, 0.000000000000000000, -0.000000000000000000 ) ) ;
#734 = FACE_OUTER_BOUND ( 'NONE', #123, .T. ) ;
#735 = EDGE_CURVE ( 'NONE', #220, #627, #347, .T. ) ;
ENDSEC;
END-ISO-10303-21;
