  0
SECTION
  2
HEADER
  9
$ACADVER
  1
AC1015
  9
$ACADMAINTVER
 70
     6
  9
$DWGCODEPAGE
  3
ANSI_936
  9
$INSBASE
 10
0.0
 20
0.0
 30
0.0
  9
$EXTMIN
 10
0.0
 20
0.0
 30
0.0
  9
$EXTMAX
 10
420.0
 20
297.0
 30
0.0
  9
$LIMMIN
 10
0.0
 20
0.0
  9
$LIMMAX
 10
420.0
 20
297.0
  9
$ORTHOMODE
 70
     0
  9
$REGENMODE
 70
     1
  9
$FILLMODE
 70
     1
  9
$QTEXTMODE
 70
     0
  9
$MIRRTEXT
 70
     1
  9
$LTSCALE
 40
1.0
  9
$ATTMODE
 70
     1
  9
$TEXTSIZE
 40
3.5
  9
$TRACEWID
 40
1.0
  9
$TEXTSTYLE
  7
Standard
  9
$CLAYER
  8
0
  9
$CELTYPE
  6
ByLayer
  9
$CECOLOR
 62
   256
  9
$CELTSCALE
 40
1.0
  9
$DISPSILH
 70
     0
  9
$DIMSCALE
 40
1.0
  9
$DIMASZ
 40
4.08
  9
$DIMEXO
 40
0.0
  9
$DIMDLI
 40
3.75
  9
$DIMRND
 40
0.0
  9
$DIMDLE
 40
0.0
  9
$DIMEXE
 40
2.0
  9
$DIMTP
 40
0.0
  9
$DIMTM
 40
0.0
  9
$DIMTXT
 40
3.5
  9
$DIMCEN
 40
2.5
  9
$DIMTSZ
 40
0.0
  9
$DIMTOL
 70
     0
  9
$DIMLIM
 70
     0
  9
$DIMTIH
 70
     1
  9
$DIMTOH
 70
     1
  9
$DIMSE1
 70
     0
  9
$DIMSE2
 70
     0
  9
$DIMTAD
 70
     1
  9
$DIMZIN
 70
     0
  9
$DIMBLK
  1

  9
$DIMASO
 70
     1
  9
$DIMSHO
 70
     1
  9
$DIMPOST
  1

  9
$DIMAPOST
  1

  9
$DIMALT
 70
     0
  9
$DIMALTD
 70
     3
  9
$DIMALTF
 40
0.0393700787
  9
$DIMLFAC
 40
20.0
  9
$DIMTOFL
 70
     1
  9
$DIMTVP
 40
0.0
  9
$DIMTIX
 70
     0
  9
$DIMSOXD
 70
     0
  9
$DIMSAH
 70
     0
  9
$DIMBLK1
  1

  9
$DIMBLK2
  1

  9
$DIMSTYLE
  2
ISO-25
  9
$DIMCLRD
 70
     0
  9
$DIMCLRE
 70
     0
  9
$DIMCLRT
 70
     0
  9
$DIMTFAC
 40
1.0
  9
$DIMGAP
 40
1.524
  9
$DIMJUST
 70
     0
  9
$DIMSD1
 70
     0
  9
$DIMSD2
 70
     0
  9
$DIMTOLJ
 70
     0
  9
$DIMTZIN
 70
     0
  9
$DIMALTZ
 70
     0
  9
$DIMALTTZ
 70
     0
  9
$DIMUPT
 70
     0
  9
$DIMDEC
 70
     2
  9
$DIMTDEC
 70
     2
  9
$DIMALTU
 70
     2
  9
$DIMALTTD
 70
     3
  9
$DIMTXSTY
  7
Standard
  9
$DIMAUNIT
 70
     0
  9
$DIMADEC
 70
     2
  9
$DIMALTRND
 40
0.0
  9
$DIMAZIN
 70
     0
  9
$DIMDSEP
 70
    44
  9
$DIMATFIT
 70
     3
  9
$DIMFRAC
 70
     0
  9
$DIMLDRBLK
  1

  9
$DIMLUNIT
 70
     2
  9
$DIMLWD
 70
    -2
  9
$DIMLWE
 70
    -2
  9
$DIMTMOVE
 70
     0
  9
$LUNITS
 70
     2
  9
$LUPREC
 70
     2
  9
$SKETCHINC
 40
1.0
  9
$FILLETRAD
 40
0.0
  9
$AUNITS
 70
     0
  9
$AUPREC
 70
     2
  9
$MENU
  1
.
  9
$ELEVATION
 40
0.0
  9
$PELEVATION
 40
0.0
  9
$THICKNESS
 40
0.0
  9
$LIMCHECK
 70
     0
  9
$CHAMFERA
 40
0.0
  9
$CHAMFERB
 40
0.0
  9
$CHAMFERC
 40
0.0
  9
$CHAMFERD
 40
0.0
  9
$SKPOLY
 70
     0
  9
$TDCREATE
 40
2461251.018088924
  9
$TDUCREATE
 40
2461250.684755591
  9
$TDUPDATE
 40
2461251.018092269
  9
$TDUUPDATE
 40
2461250.684758935
  9
$TDINDWG
 40
0.0000000116
  9
$TDUSRTIMER
 40
0.0000000116
  9
$USRTIMER
 70
     1
  9
$ANGBASE
 50
0.0
  9
$ANGDIR
 70
     0
  9
$PDMODE
 70
     0
  9
$PDSIZE
 40
-1.0
  9
$PLINEWID
 40
0.0
  9
$SPLFRAME
 70
     0
  9
$SPLINETYPE
 70
     6
  9
$SPLINESEGS
 70
     8
  9
$HANDSEED
  5
22C
  9
$SURFTAB1
 70
     6
  9
$SURFTAB2
 70
     6
  9
$SURFTYPE
 70
     6
  9
$SURFU
 70
     6
  9
$SURFV
 70
     6
  9
$UCSBASE
  2

  9
$UCSNAME
  2

  9
$UCSORG
 10
0.0
 20
0.0
 30
0.0
  9
$UCSXDIR
 10
1.0
 20
0.0
 30
0.0
  9
$UCSYDIR
 10
0.0
 20
1.0
 30
0.0
  9
$UCSORTHOREF
  2

  9
$UCSORTHOVIEW
 70
     0
  9
$UCSORGTOP
 10
0.0
 20
0.0
 30
0.0
  9
$UCSORGBOTTOM
 10
0.0
 20
0.0
 30
0.0
  9
$UCSORGLEFT
 10
0.0
 20
0.0
 30
0.0
  9
$UCSORGRIGHT
 10
0.0
 20
0.0
 30
0.0
  9
$UCSORGFRONT
 10
0.0
 20
0.0
 30
0.0
  9
$UCSORGBACK
 10
0.0
 20
0.0
 30
0.0
  9
$PUCSBASE
  2

  9
$PUCSNAME
  2

  9
$PUCSORG
 10
0.0
 20
0.0
 30
0.0
  9
$PUCSXDIR
 10
1.0
 20
0.0
 30
0.0
  9
$PUCSYDIR
 10
0.0
 20
1.0
 30
0.0
  9
$PUCSORTHOREF
  2

  9
$PUCSORTHOVIEW
 70
     0
  9
$PUCSORGTOP
 10
0.0
 20
0.0
 30
0.0
  9
$PUCSORGBOTTOM
 10
0.0
 20
0.0
 30
0.0
  9
$PUCSORGLEFT
 10
0.0
 20
0.0
 30
0.0
  9
$PUCSORGRIGHT
 10
0.0
 20
0.0
 30
0.0
  9
$PUCSORGFRONT
 10
0.0
 20
0.0
 30
0.0
  9
$PUCSORGBACK
 10
0.0
 20
0.0
 30
0.0
  9
$USERI1
 70
     0
  9
$USERI2
 70
     0
  9
$USERI3
 70
     0
  9
$USERI4
 70
     0
  9
$USERI5
 70
     0
  9
$USERR1
 40
0.0
  9
$USERR2
 40
0.0
  9
$USERR3
 40
0.0
  9
$USERR4
 40
0.0
  9
$USERR5
 40
0.0
  9
$WORLDVIEW
 70
     1
  9
$SHADEDGE
 70
     3
  9
$SHADEDIF
 70
    70
  9
$TILEMODE
 70
     1
  9
$MAXACTVP
 70
    64
  9
$PINSBASE
 10
0.0
 20
0.0
 30
0.0
  9
$PLIMCHECK
 70
     0
  9
$PEXTMIN
 10
1.0000000000E+20
 20
1.0000000000E+20
 30
1.0000000000E+20
  9
$PEXTMAX
 10
-1.0000000000E+20
 20
-1.0000000000E+20
 30
-1.0000000000E+20
  9
$PLIMMIN
 10
0.0
 20
0.0
  9
$PLIMMAX
 10
420.0
 20
297.0
  9
$UNITMODE
 70
     0
  9
$VISRETAIN
 70
     1
  9
$PLINEGEN
 70
     0
  9
$PSLTSCALE
 70
     1
  9
$TREEDEPTH
 70
  3020
  9
$CMLSTYLE
  2
Standard
  9
$CMLJUST
 70
     0
  9
$CMLSCALE
 40
20.0
  9
$PROXYGRAPHICS
 70
     1
  9
$MEASUREMENT
 70
     1
  9
$CELWEIGHT
370
    -1
  9
$ENDCAPS
280
     0
  9
$JOINSTYLE
280
     0
  9
$LWDISPLAY
290
     1
  9
$INSUNITS
 70
     4
  9
$HYPERLINKBASE
  1

  9
$STYLESHEET
  1

  9
$XEDIT
290
     1
  9
$CEPSNTYPE
380
     0
  9
$PSTYLEMODE
290
     1
  9
$FINGERPRINTGUID
  2
{a95614e6-9837-4bbe-a6bd-0fd0c73ba466}
  9
$VERSIONGUID
  2
{FAEB1C32-E019-11D5-929B-00C0DF256EC4}
  9
$EXTNAMES
290
     1
  9
$PSVPSCALE
 40
0.0
  9
$OLESTARTUP
290
     0
  0
ENDSEC
  0
SECTION
  2
CLASSES
  0
CLASS
  1
ACDBDICTIONARYWDFLT
  2
AcDbDictionaryWithDefault
  3
ObjectDBX Classes
 90
        0
280
     0
281
     0
  0
CLASS
  1
VISUALSTYLE
  2
AcDbVisualStyle
  3
ObjectDBX Classes
 90
     4095
280
     0
281
     0
  0
CLASS
  1
MATERIAL
  2
AcDbMaterial
  3
ObjectDBX Classes
 90
     1153
280
     0
281
     0
  0
CLASS
  1
SCALE
  2
AcDbScale
  3
ObjectDBX Classes
 90
     1153
280
     0
281
     0
  0
CLASS
  1
TABLESTYLE
  2
AcDbTableStyle
  3
ObjectDBX Classes
 90
     4095
280
     0
281
     0
  0
CLASS
  1
MLEADERSTYLE
  2
AcDbMLeaderStyle
  3
ACDB_MLEADERSTYLE_CLASS
 90
     4095
280
     0
281
     0
  0
CLASS
  1
SUN
  2
AcDbSun
  3
SCENEOE
 90
     1153
280
     0
281
     0
  0
CLASS
  1
ACDBPLACEHOLDER
  2
AcDbPlaceHolder
  3
ObjectDBX Classes
 90
        0
280
     0
281
     0
  0
CLASS
  1
LAYOUT
  2
AcDbLayout
  3
ObjectDBX Classes
 90
        0
280
     0
281
     0
  0
ENDSEC
  0
SECTION
  2
TABLES
  0
TABLE
  2
VPORT
  5
8
330
0
100
AcDbSymbolTable
 70
     1
  0
VPORT
  5
29
330
8
100
AcDbSymbolTableRecord
100
AcDbViewportTableRecord
  2
*Active
 70
     0
 10
0.0
 20
0.0
 11
1.0
 21
1.0
 12
210.0
 22
148.5
 13
0.0
 23
0.0
 14
10.0
 24
10.0
 15
10.0
 25
10.0
 16
0.0
 26
0.0
 36
1.0
 17
0.0
 27
0.0
 37
0.0
 40
297.0
 41
1.4141414141
 42
50.0
 43
0.0
 44
0.0
 50
0.0
 51
0.0
 71
     0
 72
  2000
 73
     1
 74
     3
 75
     0
 76
     0
 77
     0
 78
     0
281
     0
 65
     1
110
0.0
120
0.0
130
0.0
111
1.0
121
0.0
131
0.0
112
0.0
122
1.0
132
0.0
 79
     0
146
0.0
  0
ENDTAB
  0
TABLE
  2
LTYPE
  5
5
330
0
100
AcDbSymbolTable
 70
     6
  0
LTYPE
  5
14
330
5
100
AcDbSymbolTableRecord
100
AcDbLinetypeTableRecord
  2
ByBlock
 70
     0
  3

 72
    65
 73
     0
 40
0.0
  0
LTYPE
  5
15
330
5
100
AcDbSymbolTableRecord
100
AcDbLinetypeTableRecord
  2
ByLayer
 70
     0
  3

 72
    65
 73
     0
 40
0.0
  0
LTYPE
  5
16
330
5
100
AcDbSymbolTableRecord
100
AcDbLinetypeTableRecord
  2
Continuous
 70
     0
  3
Solid line
 72
    65
 73
     0
 40
0.0
  0
LTYPE
  5
5E
330
5
100
AcDbSymbolTableRecord
100
AcDbLinetypeTableRecord
  2
HIDDEN
 70
     0
  3
Hidden __ __ __ __ __ __ __ __ __ __ __ __ __ __
 72
    65
 73
     2
 40
1.905
 49
1.27
 74
     0
 49
-0.635
 74
     0
  0
LTYPE
  5
5F
330
5
100
AcDbSymbolTableRecord
100
AcDbLinetypeTableRecord
  2
PHANTOM
 70
     0
  3
Phantom ______  __  __  ______  __  __  ______
 72
    65
 73
     6
 40
12.7
 49
6.35
 74
     0
 49
-1.27
 74
     0
 49
1.27
 74
     0
 49
-1.27
 74
     0
 49
1.27
 74
     0
 49
-1.27
 74
     0
  0
LTYPE
  5
60
330
5
100
AcDbSymbolTableRecord
100
AcDbLinetypeTableRecord
  2
CENTER
 70
     0
  3
Center ____ _ ____ _ ____ _ ____ _ ____ _ ____
 72
    65
 73
     4
 40
10.16
 49
6.35
 74
     0
 49
-1.27
 74
     0
 49
1.27
 74
     0
 49
-1.27
 74
     0
  0
LTYPE
  5
61
330
5
100
AcDbSymbolTableRecord
100
AcDbLinetypeTableRecord
  2
CENTERX2
 70
     0
  3
Center (2x) ________  __  ________  __  _____
 72
    65
 73
     4
 40
20.32
 49
12.7
 74
     0
 49
-2.54
 74
     0
 49
2.54
 74
     0
 49
-2.54
 74
     0
  0
LTYPE
  5
62
330
5
100
AcDbSymbolTableRecord
100
AcDbLinetypeTableRecord
  2
DOT2
 70
     0
  3
Dot (.5x) ........................................
 72
    65
 73
     2
 40
0.635
 49
0.0
 74
     0
 49
-0.635
 74
     0
  0
ENDTAB
  0
TABLE
  2
LAYER
  5
2
330
0
100
AcDbSymbolTable
 70
    14
  0
LAYER
  5
10
330
2
100
AcDbSymbolTableRecord
100
AcDbLayerTableRecord
  2
0
 70
     0
 62
     7
  6
Continuous
370
    -3
390
F
  0
LAYER
  5
63
330
2
100
AcDbSymbolTableRecord
100
AcDbLayerTableRecord
  2
SLD-0
 70
     0
 62
     7
  6
Continuous
370
    -3
390
F
  0
LAYER
  5
64
330
2
100
AcDbSymbolTableRecord
100
AcDbLayerTableRecord
  2
5
 70
     0
 62
     7
  6
Continuous
370
    -3
390
F
  0
LAYER
  5
65
330
2
100
AcDbSymbolTableRecord
100
AcDbLayerTableRecord
  2
9
 70
     0
 62
     7
  6
Continuous
370
    -3
390
F
  0
LAYER
  5
66
330
2
100
AcDbSymbolTableRecord
100
AcDbLayerTableRecord
  2
10
 70
     0
 62
     7
  6
Continuous
370
    -3
390
F
  0
LAYER
  5
67
330
2
100
AcDbSymbolTableRecord
100
AcDbLayerTableRecord
  2
轮廓实线层
 70
     0
 62
     7
  6
Continuous
370
    50
390
F
  0
LAYER
  5
68
330
2
100
AcDbSymbolTableRecord
100
AcDbLayerTableRecord
  2
细线层
 70
     0
 62
     4
  6
Continuous
370
    25
390
F
  0
LAYER
  5
69
330
2
100
AcDbSymbolTableRecord
100
AcDbLayerTableRecord
  2
中心线层
 70
     0
 62
     1
  6
CENTERX2
370
    25
390
F
  0
LAYER
  5
6A
330
2
100
AcDbSymbolTableRecord
100
AcDbLayerTableRecord
  2
虚线层
 70
     0
 62
     6
  6
HIDDEN
370
    25
390
F
  0
LAYER
  5
6B
330
2
100
AcDbSymbolTableRecord
100
AcDbLayerTableRecord
  2
剖面线层
 70
     0
 62
     2
  6
Continuous
370
    25
390
F
  0
LAYER
  5
6C
330
2
100
AcDbSymbolTableRecord
100
AcDbLayerTableRecord
  2
文字层
 70
     0
 62
     3
  6
Continuous
370
    25
390
F
  0
LAYER
  5
6D
330
2
100
AcDbSymbolTableRecord
100
AcDbLayerTableRecord
  2
标注层
 70
     0
 62
     4
  6
Continuous
370
    25
390
F
  0
LAYER
  5
6E
330
2
100
AcDbSymbolTableRecord
100
AcDbLayerTableRecord
  2
符号标注层
 70
     0
 62
    31
  6
Continuous
370
    25
390
F
  0
LAYER
  5
6F
330
2
100
AcDbSymbolTableRecord
100
AcDbLayerTableRecord
  2
双点划线层
 70
     0
 62
     6
  6
PHANTOM
370
    25
390
F
  0
ENDTAB
  0
TABLE
  2
STYLE
  5
3
330
0
100
AcDbSymbolTable
 70
     6
  0
STYLE
  5
11
330
3
100
AcDbSymbolTableRecord
100
AcDbTextStyleTableRecord
  2
Standard
 70
     0
 40
0.0
 41
1.0
 50
0.0
 71
     0
 42
3.5
  3
txt
  4

  0
STYLE
  5
BE
330
3
100
AcDbSymbolTableRecord
100
AcDbTextStyleTableRecord
  2
SLDTEXTSTYLE0
 70
     0
 40
0.0
 41
0.7
 50
0.0
 71
     0
 42
3.5
  3
TXT
  4
bigfont
  0
STYLE
  5
C7
330
3
100
AcDbSymbolTableRecord
100
AcDbTextStyleTableRecord
  2
SLDTEXTSTYLE1
 70
     0
 40
0.0
 41
0.62
 50
0.0
 71
     0
 42
3.5
  3
TXT
  4
bigfont
  0
STYLE
  5
CC
330
3
100
AcDbSymbolTableRecord
100
AcDbTextStyleTableRecord
  2
SLDTEXTSTYLE2
 70
     0
 40
0.0
 41
0.6142857143
 50
0.0
 71
     0
 42
3.5
  3
TXT
  4
bigfont
  0
STYLE
  5
CE
330
3
100
AcDbSymbolTableRecord
100
AcDbTextStyleTableRecord
  2
SLDTEXTSTYLE3
 70
     0
 40
0.0
 41
0.6
 50
0.0
 71
     0
 42
3.5
  3
TXT
  4
bigfont
  0
STYLE
  5
DF
330
3
100
AcDbSymbolTableRecord
100
AcDbTextStyleTableRecord
  2
SLDTEXTSTYLE4
 70
     0
 40
0.0
 41
0.7
 50
0.0
 71
     0
 42
3.5
  3
TXT
  4

  0
ENDTAB
  0
TABLE
  2
VIEW
  5
6
330
0
100
AcDbSymbolTable
 70
     0
  0
ENDTAB
  0
TABLE
  2
UCS
  5
7
330
0
100
AcDbSymbolTable
 70
     0
  0
ENDTAB
  0
TABLE
  2
APPID
  5
9
330
0
100
AcDbSymbolTable
 70
     1
  0
APPID
  5
12
330
9
100
AcDbSymbolTableRecord
100
AcDbRegAppTableRecord
  2
ACAD
 70
     0
  0
ENDTAB
  0
TABLE
  2
DIMSTYLE
  5
A
330
0
100
AcDbSymbolTable
 70
     1
100
AcDbDimStyleTable
  0
DIMSTYLE
105
27
330
A
100
AcDbSymbolTableRecord
100
AcDbDimStyleTableRecord
  2
ISO-25
 70
     0
 41
2.5
 42
0.625
 43
3.75
 44
1.25
 73
     0
 74
     0
 77
     1
 78
     8
140
2.5
141
2.5
143
0.0393700787
147
0.625
171
     3
172
     1
178
     0
271
     2
272
     2
274
     3
278
    44
283
     0
284
     8
340
11
  0
ENDTAB
  0
TABLE
  2
BLOCK_RECORD
  5
1
330
0
100
AcDbSymbolTable
 70
     1
  0
BLOCK_RECORD
  5
1F
330
1
100
AcDbSymbolTableRecord
100
AcDbBlockTableRecord
  2
*Model_Space
340
22
  0
BLOCK_RECORD
  5
1B
330
1
100
AcDbSymbolTableRecord
100
AcDbBlockTableRecord
  2
*Paper_Space
340
1E
  0
BLOCK_RECORD
  5
23
330
1
100
AcDbSymbolTableRecord
100
AcDbBlockTableRecord
  2
*Paper_Space0
340
26
  0
ENDTAB
  0
ENDSEC
  0
SECTION
  2
BLOCKS
  0
BLOCK
  5
20
330
1F
100
AcDbEntity
  8
0
100
AcDbBlockBegin
  2
*Model_Space
 70
     0
 10
0.0
 20
0.0
 30
0.0
  3
*Model_Space
  1

  0
ENDBLK
  5
21
330
1F
100
AcDbEntity
  8
0
100
AcDbBlockEnd
  0
BLOCK
  5
1C
330
1B
100
AcDbEntity
 67
     1
  8
0
100
AcDbBlockBegin
  2
*Paper_Space
 70
     0
 10
0.0
 20
0.0
 30
0.0
  3
*Paper_Space
  1

  0
ENDBLK
  5
1D
330
1B
100
AcDbEntity
 67
     1
  8
0
100
AcDbBlockEnd
  0
BLOCK
  5
24
330
23
100
AcDbEntity
  8
0
100
AcDbBlockBegin
  2
*Paper_Space0
 70
     0
 10
0.0
 20
0.0
 30
0.0
  3
*Paper_Space0
  1

  0
ENDBLK
  5
25
330
23
100
AcDbEntity
  8
0
100
AcDbBlockEnd
  0
ENDSEC
  0
SECTION
  2
ENTITIES
  0
LINE
  5
70
330
1F
100
AcDbEntity
  8
5
 62
     7
370
    25
100
AcDbLine
 10
0.0
 20
5.0
 30
0.0
 11
415.0
 21
5.0
 31
0.0
  0
LINE
  5
71
330
1F
100
AcDbEntity
  8
5
 62
     7
370
    25
100
AcDbLine
 10
415.0
 20
5.0
 30
0.0
 11
415.0
 21
292.0
 31
0.0
  0
LINE
  5
72
330
1F
100
AcDbEntity
  8
5
 62
     7
370
    25
100
AcDbLine
 10
415.0
 20
292.0
 30
0.0
 11
25.0
 21
292.0
 31
0.0
  0
LINE
  5
73
330
1F
100
AcDbEntity
  8
5
 62
     7
370
    25
100
AcDbLine
 10
25.0
 20
292.0
 30
0.0
 11
25.0
 21
5.0
 31
0.0
  0
LINE
  5
74
330
1F
100
AcDbEntity
  8
5
 62
     7
370
    25
100
AcDbLine
 10
25.0
 20
280.0
 30
0.0
 11
85.0
 21
280.0
 31
0.0
  0
LINE
  5
75
330
1F
100
AcDbEntity
  8
5
 62
     7
370
    25
100
AcDbLine
 10
85.0
 20
280.0
 30
0.0
 11
85.0
 21
292.0
 31
0.0
  0
LINE
  5
76
330
1F
100
AcDbEntity
  8
9
 62
     7
100
AcDbLine
 10
0.0
 20
0.0
 30
0.0
 11
420.0
 21
0.0
 31
0.0
  0
LINE
  5
77
330
1F
100
AcDbEntity
  8
5
100
AcDbLine
 10
70.0
 20
297.0
 30
0.0
 11
70.0
 21
292.0
 31
0.0
  0
LINE
  5
78
330
1F
100
AcDbEntity
  8
5
100
AcDbLine
 10
120.0
 20
297.0
 30
0.0
 11
120.0
 21
292.0
 31
0.0
  0
LINE
  5
79
330
1F
100
AcDbEntity
  8
5
100
AcDbLine
 10
170.0
 20
297.0
 30
0.0
 11
170.0
 21
292.0
 31
0.0
  0
LINE
  5
7A
330
1F
100
AcDbEntity
  8
5
370
    25
100
AcDbLine
 10
220.0
 20
297.0
 30
0.0
 11
220.0
 21
287.0
 31
0.0
  0
LINE
  5
7B
330
1F
100
AcDbEntity
  8
9
 62
     7
100
AcDbLine
 10
420.0
 20
0.0
 30
0.0
 11
420.0
 21
148.5
 31
0.0
  0
LINE
  5
7C
330
1F
100
AcDbEntity
  8
9
 62
     7
100
AcDbLine
 10
420.0
 20
148.5
 30
0.0
 11
420.0
 21
297.0
 31
0.0
  0
LINE
  5
7D
330
1F
100
AcDbEntity
  8
9
 62
     7
100
AcDbLine
 10
420.0
 20
297.0
 30
0.0
 11
0.0
 21
297.0
 31
0.0
  0
LINE
  5
7E
330
1F
100
AcDbEntity
  8
5
100
AcDbLine
 10
270.0
 20
297.0
 30
0.0
 11
270.0
 21
292.0
 31
0.0
  0
LINE
  5
7F
330
1F
100
AcDbEntity
  8
5
100
AcDbLine
 10
320.0
 20
297.0
 30
0.0
 11
320.0
 21
292.0
 31
0.0
  0
LINE
  5
80
330
1F
100
AcDbEntity
  8
5
100
AcDbLine
 10
370.0
 20
297.0
 30
0.0
 11
370.0
 21
292.0
 31
0.0
  0
LINE
  5
81
330
1F
100
AcDbEntity
  8
5
100
AcDbLine
 10
420.0
 20
248.5
 30
0.0
 11
415.0
 21
248.5
 31
0.0
  0
LINE
  5
82
330
1F
100
AcDbEntity
  8
5
100
AcDbLine
 10
420.0
 20
198.5
 30
0.0
 11
415.0
 21
198.5
 31
0.0
  0
LINE
  5
83
330
1F
100
AcDbEntity
  8
5
370
    25
100
AcDbLine
 10
420.0
 20
148.5
 30
0.0
 11
410.0
 21
148.5
 31
0.0
  0
LINE
  5
84
330
1F
100
AcDbEntity
  8
9
 62
     7
100
AcDbLine
 10
0.0
 20
297.0
 30
0.0
 11
0.0
 21
0.0
 31
0.0
  0
LINE
  5
85
330
1F
100
AcDbEntity
  8
5
100
AcDbLine
 10
420.0
 20
98.5
 30
0.0
 11
415.0
 21
98.5
 31
0.0
  0
LINE
  5
86
330
1F
100
AcDbEntity
  8
5
100
AcDbLine
 10
420.0
 20
48.5
 30
0.0
 11
415.0
 21
48.5
 31
0.0
  0
LINE
  5
87
330
1F
100
AcDbEntity
  8
10
 62
     7
100
AcDbLine
 10
0.0
 20
91.0
 30
0.0
 11
25.0
 21
91.0
 31
0.0
  0
LINE
  5
88
330
1F
100
AcDbEntity
  8
10
 62
     7
100
AcDbLine
 10
0.0
 20
96.0
 30
0.0
 11
25.0
 21
96.0
 31
0.0
  0
LINE
  5
89
330
1F
100
AcDbEntity
  8
10
 62
     7
100
AcDbLine
 10
0.0
 20
78.0
 30
0.0
 11
25.0
 21
78.0
 31
0.0
  0
LINE
  5
8A
330
1F
100
AcDbEntity
  8
10
 62
     7
100
AcDbLine
 10
0.0
 20
83.0
 30
0.0
 11
25.0
 21
83.0
 31
0.0
  0
LINE
  5
8B
330
1F
100
AcDbEntity
  8
10
 62
     7
100
AcDbLine
 10
0.0
 20
65.0
 30
0.0
 11
25.0
 21
65.0
 31
0.0
  0
LINE
  5
8C
330
1F
100
AcDbEntity
  8
10
 62
     7
100
AcDbLine
 10
0.0
 20
70.0
 30
0.0
 11
25.0
 21
70.0
 31
0.0
  0
LINE
  5
8D
330
1F
100
AcDbEntity
  8
10
 62
     7
100
AcDbLine
 10
0.0
 20
52.0
 30
0.0
 11
25.0
 21
52.0
 31
0.0
  0
LINE
  5
8E
330
1F
100
AcDbEntity
  8
10
 62
     7
100
AcDbLine
 10
0.0
 20
57.0
 30
0.0
 11
25.0
 21
57.0
 31
0.0
  0
LINE
  5
8F
330
1F
100
AcDbEntity
  8
10
 62
     7
100
AcDbLine
 10
0.0
 20
39.0
 30
0.0
 11
25.0
 21
39.0
 31
0.0
  0
LINE
  5
90
330
1F
100
AcDbEntity
  8
10
 62
     7
100
AcDbLine
 10
0.0
 20
44.0
 30
0.0
 11
25.0
 21
44.0
 31
0.0
  0
LINE
  5
91
330
1F
100
AcDbEntity
  8
10
 62
     7
100
AcDbLine
 10
0.0
 20
26.0
 30
0.0
 11
25.0
 21
26.0
 31
0.0
  0
LINE
  5
92
330
1F
100
AcDbEntity
  8
10
 62
     7
100
AcDbLine
 10
0.0
 20
31.0
 30
0.0
 11
25.0
 21
31.0
 31
0.0
  0
LINE
  5
93
330
1F
100
AcDbEntity
  8
10
 62
     7
100
AcDbLine
 10
0.0
 20
18.0
 30
0.0
 11
25.0
 21
18.0
 31
0.0
  0
LINE
  5
94
330
1F
100
AcDbEntity
  8
10
 62
     7
100
AcDbLine
 10
0.0
 20
13.0
 30
0.0
 11
25.0
 21
13.0
 31
0.0
  0
LINE
  5
95
330
1F
100
AcDbEntity
  8
10
 62
     7
370
    25
100
AcDbLine
 10
365.0
 20
33.0
 30
0.0
 11
365.0
 21
5.0
 31
0.0
  0
LINE
  5
96
330
1F
100
AcDbEntity
  8
10
 62
     7
370
    25
100
AcDbLine
 10
353.0
 20
43.0
 30
0.0
 11
353.0
 21
23.0
 31
0.0
  0
LINE
  5
97
330
1F
100
AcDbEntity
  8
10
 62
     7
370
    25
100
AcDbLine
 10
340.9862173219
 20
43.0
 30
0.0
 11
340.9862173219
 21
23.0
 31
0.0
  0
LINE
  5
98
330
1F
100
AcDbEntity
  8
SLD-0
370
    25
100
AcDbLine
 10
340.9862173219
 20
14.0
 30
0.0
 11
340.9862173219
 21
5.0
 31
0.0
  0
LINE
  5
99
330
1F
100
AcDbEntity
  8
SLD-0
100
AcDbLine
 10
328.0
 20
33.0
 30
0.0
 11
328.0
 21
23.0
 31
0.0
  0
LINE
  5
9A
330
1F
100
AcDbEntity
  8
SLD-0
100
AcDbLine
 10
321.5
 20
33.0
 30
0.0
 11
321.5
 21
23.0
 31
0.0
  0
LINE
  5
9B
330
1F
100
AcDbEntity
  8
10
 62
     7
370
    25
100
AcDbLine
 10
315.0
 20
43.0
 30
0.0
 11
415.0
 21
43.0
 31
0.0
  0
LINE
  5
9C
330
1F
100
AcDbEntity
  8
10
 62
     7
370
    25
100
AcDbLine
 10
315.0
 20
23.0
 30
0.0
 11
415.0
 21
23.0
 31
0.0
  0
LINE
  5
9D
330
1F
100
AcDbEntity
  8
10
 62
     7
370
    25
100
AcDbLine
 10
315.0
 20
14.0
 30
0.0
 11
415.0
 21
14.0
 31
0.0
  0
LINE
  5
9E
330
1F
100
AcDbEntity
  8
10
 62
     7
370
    25
100
AcDbLine
 10
271.0
 20
61.0
 30
0.0
 11
271.0
 21
33.0
 31
0.0
  0
LINE
  5
9F
330
1F
100
AcDbEntity
  8
10
 62
     7
370
    25
100
AcDbLine
 10
255.0
 20
61.0
 30
0.0
 11
255.0
 21
33.0
 31
0.0
  0
LINE
  5
A0
330
1F
100
AcDbEntity
  8
10
 62
     7
370
    25
100
AcDbLine
 10
245.0
 20
61.0
 30
0.0
 11
245.0
 21
33.0
 31
0.0
  0
LINE
  5
A1
330
1F
100
AcDbEntity
  8
10
 62
     7
370
    25
100
AcDbLine
 10
365.0
 20
61.0
 30
0.0
 11
365.0
 21
33.0
 31
0.0
  0
LINE
  5
A2
330
1F
100
AcDbEntity
  8
10
 62
     7
370
    25
100
AcDbLine
 10
315.0
 20
61.0
 30
0.0
 11
315.0
 21
5.0
 31
0.0
  0
LINE
  5
A3
330
1F
100
AcDbEntity
  8
10
 62
     7
370
    25
100
AcDbLine
 10
299.0
 20
61.0
 30
0.0
 11
299.0
 21
5.0
 31
0.0
  0
LINE
  5
A4
330
1F
100
AcDbEntity
  8
10
 62
     7
370
    25
100
AcDbLine
 10
287.0
 20
61.0
 30
0.0
 11
287.0
 21
5.0
 31
0.0
  0
LINE
  5
A5
330
1F
100
AcDbEntity
  8
10
 62
     7
370
    25
100
AcDbLine
 10
275.0
 20
33.0
 30
0.0
 11
275.0
 21
5.0
 31
0.0
  0
LINE
  5
A6
330
1F
100
AcDbEntity
  8
10
 62
     7
370
    25
100
AcDbLine
 10
259.0
 20
33.0
 30
0.0
 11
259.0
 21
5.0
 31
0.0
  0
LINE
  5
A7
330
1F
100
AcDbEntity
  8
10
 62
     7
100
AcDbLine
 10
235.0
 20
54.0
 30
0.0
 11
315.0
 21
54.0
 31
0.0
  0
LINE
  5
A8
330
1F
100
AcDbEntity
  8
10
 62
     7
100
AcDbLine
 10
235.0
 20
47.0
 30
0.0
 11
315.0
 21
47.0
 31
0.0
  0
LINE
  5
A9
330
1F
100
AcDbEntity
  8
10
 62
     7
370
    25
100
AcDbLine
 10
235.0
 20
40.0
 30
0.0
 11
315.0
 21
40.0
 31
0.0
  0
LINE
  5
AA
330
1F
100
AcDbEntity
  8
10
 62
     7
370
    25
100
AcDbLine
 10
235.0
 20
33.0
 30
0.0
 11
365.0
 21
33.0
 31
0.0
  0
LINE
  5
AB
330
1F
100
AcDbEntity
  8
10
 62
     7
370
    25
100
AcDbLine
 10
235.0
 20
26.0
 30
0.0
 11
315.0
 21
26.0
 31
0.0
  0
LINE
  5
AC
330
1F
100
AcDbEntity
  8
10
 62
     7
370
    25
100
AcDbLine
 10
235.0
 20
19.0
 30
0.0
 11
315.0
 21
19.0
 31
0.0
  0
LINE
  5
AD
330
1F
100
AcDbEntity
  8
10
 62
     7
370
    25
100
AcDbLine
 10
235.0
 20
12.0
 30
0.0
 11
315.0
 21
12.0
 31
0.0
  0
LINE
  5
AE
330
1F
100
AcDbEntity
  8
5
 62
     7
370
    25
100
AcDbLine
 10
235.0
 20
61.0
 30
0.0
 11
415.0
 21
61.0
 31
0.0
  0
LINE
  5
AF
330
1F
100
AcDbEntity
  8
5
 62
     7
370
    25
100
AcDbLine
 10
235.0
 20
61.0
 30
0.0
 11
235.0
 21
5.0
 31
0.0
  0
LINE
  5
B0
330
1F
100
AcDbEntity
  8
10
 62
     7
100
AcDbLine
 10
0.0
 20
104.0
 30
0.0
 11
25.0
 21
104.0
 31
0.0
  0
LINE
  5
B1
330
1F
100
AcDbEntity
  8
10
 62
     7
100
AcDbLine
 10
0.0
 20
109.0
 30
0.0
 11
25.0
 21
109.0
 31
0.0
  0
LINE
  5
B2
330
1F
100
AcDbEntity
  8
10
 62
     7
370
    25
100
AcDbLine
 10
247.0
 20
33.0
 30
0.0
 11
247.0
 21
5.0
 31
0.0
  0
LINE
  5
B3
330
1F
100
AcDbEntity
  8
SLD-0
100
AcDbLine
 10
334.5
 20
33.0
 30
0.0
 11
334.5
 21
23.0
 31
0.0
  0
LINE
  5
B4
330
1F
100
AcDbEntity
  8
5
100
AcDbLine
 10
370.0
 20
0.0
 30
0.0
 11
370.0
 21
5.0
 31
0.0
  0
LINE
  5
B5
330
1F
100
AcDbEntity
  8
5
100
AcDbLine
 10
320.0
 20
0.0
 30
0.0
 11
320.0
 21
5.0
 31
0.0
  0
LINE
  5
B6
330
1F
100
AcDbEntity
  8
5
100
AcDbLine
 10
270.0
 20
0.0
 30
0.0
 11
270.0
 21
5.0
 31
0.0
  0
LINE
  5
B7
330
1F
100
AcDbEntity
  8
5
370
    25
100
AcDbLine
 10
220.0
 20
0.0
 30
0.0
 11
220.0
 21
10.0
 31
0.0
  0
LINE
  5
B8
330
1F
100
AcDbEntity
  8
5
100
AcDbLine
 10
170.0
 20
0.0
 30
0.0
 11
170.0
 21
5.0
 31
0.0
  0
LINE
  5
B9
330
1F
100
AcDbEntity
  8
5
100
AcDbLine
 10
120.0
 20
0.0
 30
0.0
 11
120.0
 21
5.0
 31
0.0
  0
LINE
  5
BA
330
1F
100
AcDbEntity
  8
5
100
AcDbLine
 10
70.0
 20
0.0
 30
0.0
 11
70.0
 21
5.0
 31
0.0
  0
LINE
  5
BB
330
1F
100
AcDbEntity
  8
5
370
    25
100
AcDbLine
 10
0.0
 20
148.5
 30
0.0
 11
30.0
 21
148.5
 31
0.0
  0
LINE
  5
BC
330
1F
100
AcDbEntity
  8
5
100
AcDbLine
 10
0.0
 20
198.5
 30
0.0
 11
25.0
 21
198.5
 31
0.0
  0
LINE
  5
BD
330
1F
100
AcDbEntity
  8
5
100
AcDbLine
 10
0.0
 20
248.5
 30
0.0
 11
25.0
 21
248.5
 31
0.0
  0
MTEXT
  5
BF
330
1F
100
AcDbEntity
  8
10
 62
     7
100
AcDbMText
 10
283.2344421183
 20
17.3301059492
 30
0.0
 40
3.5
 41
0.0
 71
     2
 72
     1
  1
审\U+6838
  7
SLDTEXTSTYLE0
 73
     1
 44
1.0
  0
MTEXT
  5
C0
330
1F
100
AcDbEntity
  8
10
 62
     7
100
AcDbMText
 10
243.1494560629
 20
24.5560872287
 30
0.0
 40
3.5
 41
0.0
 71
     2
 72
     1
  1
\U+6821\U+6838
  7
SLDTEXTSTYLE0
 73
     1
 44
1.0
  0
MTEXT
  5
C1
330
1F
100
AcDbEntity
  8
10
 62
     7
100
AcDbMText
 10
243.1503675949
 20
31.7343342659
 30
0.0
 40
3.5
 41
0.0
 71
     2
 72
     1
  1
设计
  7
SLDTEXTSTYLE0
 73
     1
 44
1.0
  0
MTEXT
  5
C2
330
1F
100
AcDbEntity
  8
10
 62
     7
100
AcDbMText
 10
241.7106904377
 20
38.7166395877
 30
0.0
 40
3.5
 41
0.0
 71
     2
 72
     1
  1
标记
  7
SLDTEXTSTYLE0
 73
     1
 44
1.0
  0
MTEXT
  5
C3
330
1F
100
AcDbEntity
  8
10
 62
     7
100
AcDbMText
 10
251.8861379005
 20
38.7166395877
 30
0.0
 40
3.5
 41
0.0
 71
     2
 72
     1
  1
处\U+6570
  7
SLDTEXTSTYLE0
 73
     1
 44
1.0
  0
MTEXT
  5
C4
330
1F
100
AcDbEntity
  8
10
 62
     7
100
AcDbMText
 10
264.6827371007
 20
38.7166395877
 30
0.0
 40
3.5
 41
0.0
 71
     2
 72
     1
  1
\U+5206\U+533A
  7
SLDTEXTSTYLE0
 73
     1
 44
1.0
  0
MTEXT
  5
C5
330
1F
100
AcDbEntity
  8
10
 62
     7
100
AcDbMText
 10
283.5292877819
 20
38.7166395877
 30
0.0
 40
3.5
 41
0.0
 71
     2
 72
     1
  1
\U+66F4\U+6539\U+6587\U+4EF6\U+53F7
  7
SLDTEXTSTYLE0
 73
     1
 44
1.0
  0
MTEXT
  5
C6
330
1F
100
AcDbEntity
  8
10
 62
     7
100
AcDbMText
 10
295.1872263456
 20
38.7166395877
 30
0.0
 40
3.5
 41
0.0
 71
     2
 72
     1
  1
签\U+540D
  7
SLDTEXTSTYLE0
 73
     1
 44
1.0
  0
MTEXT
  5
C8
330
1F
100
AcDbEntity
  8
10
 62
     7
100
AcDbMText
 10
310.0410486219
 20
38.7166395877
 30
0.0
 40
3.5
 41
0.0
 71
     2
 72
     1
  1
\U+5E74 \U+6708 \U+65E5
  7
SLDTEXTSTYLE1
 73
     1
 44
1.0
  0
MTEXT
  5
C9
330
1F
100
AcDbEntity
  8
10
 62
     7
100
AcDbMText
 10
283.2350498063
 20
24.5985276096
 30
0.0
 40
3.5
 41
0.0
 71
     2
 72
     1
  1
\U+5DE5艺
  7
SLDTEXTSTYLE0
 73
     1
 44
1.0
  0
MTEXT
  5
CA
330
1F
100
AcDbEntity
  8
10
 62
     7
100
AcDbMText
 10
284.1212910262
 20
31.7343342659
 30
0.0
 40
3.5
 41
0.0
 71
     2
 72
     1
  1
标\U+51C6\U+5316
  7
SLDTEXTSTYLE0
 73
     1
 44
1.0
  0
MTEXT
  5
CB
330
1F
100
AcDbEntity
  8
10
 62
     7
100
AcDbMText
 10
283.2165167199
 20
10.441054188
 30
0.0
 40
3.5
 41
0.0
 71
     2
 72
     1
  1
\U+6279\U+51C6
  7
SLDTEXTSTYLE0
 73
     1
 44
1.0
  0
MTEXT
  5
CD
330
1F
100
AcDbEntity
  8
10
 62
     7
100
AcDbMText
 10
331.1254637622
 20
39.9940596377
 30
0.0
 40
3.5
 41
0.0
 71
     2
 72
     1
  1
阶 \U+6BB5 标 记
  7
SLDTEXTSTYLE2
 73
     1
 44
1.0
  0
MTEXT
  5
CF
330
1F
100
AcDbEntity
  8
10
 62
     7
100
AcDbMText
 10
323.1782338696
 20
11.2009950786
 30
0.0
 40
3.5
 41
0.0
 71
     2
 72
     1
  1
\U+5171  张
  7
SLDTEXTSTYLE3
 73
     1
 44
1.0
  0
MTEXT
  5
D0
330
1F
100
AcDbEntity
  8
10
 62
     7
100
AcDbMText
 10
336.4417087603
 20
11.2009950786
 30
0.0
 40
3.5
 41
0.0
 71
     2
 72
     1
  1
\U+7B2C  张
  7
SLDTEXTSTYLE3
 73
     1
 44
1.0
  0
MTEXT
  5
D1
330
1F
100
AcDbEntity
  8
10
 62
     7
100
AcDbMText
 10
348.8504808167
 20
39.9940596377
 30
0.0
 40
3.5
 41
0.0
 71
     2
 72
     1
  1
\U+91CD\U+91CF
  7
SLDTEXTSTYLE0
 73
     1
 44
1.0
  0
MTEXT
  5
D2
330
1F
100
AcDbEntity
  8
10
 62
     7
100
AcDbMText
 10
360.9420390036
 20
39.9940596377
 30
0.0
 40
3.5
 41
0.0
 71
     2
 72
     1
  1
\U+6BD4\U+4F8B
  7
SLDTEXTSTYLE0
 73
     1
 44
1.0
  0
MTEXT
  5
D3
330
1F
100
AcDbEntity
  8
10
 62
     7
100
AcDbMText
 10
13.8810374408
 20
17.4367572972
 30
0.0
 40
3.5
 41
0.0
 71
     2
 72
     1
  1
\U+65E5\U+671F
  7
SLDTEXTSTYLE0
 73
     1
 44
1.0
  0
MTEXT
  5
D4
330
1F
100
AcDbEntity
  8
10
 62
     7
100
AcDbMText
 10
13.8038671209
 20
30.5369013609
 30
0.0
 40
3.5
 41
0.0
 71
     2
 72
     1
  1
签\U+5B57
  7
SLDTEXTSTYLE0
 73
     1
 44
1.0
  0
MTEXT
  5
D5
330
1F
100
AcDbEntity
  8
10
 62
     7
100
AcDbMText
 10
6.4999999478
 20
43.4863381068
 30
0.0
 40
3.5
 41
0.0
 71
     1
 72
     1
  1
\U+5E95图总\U+53F7
  7
SLDTEXTSTYLE0
 73
     1
 44
1.0
  0
MTEXT
  5
D6
330
1F
100
AcDbEntity
  8
10
 62
     7
100
AcDbMText
 10
4.999999702
 20
56.4875163884
 30
0.0
 40
3.5
 41
0.0
 71
     1
 72
     1
  1
\U+65E7\U+5E95图总\U+53F7
  7
SLDTEXTSTYLE0
 73
     1
 44
1.0
  0
MTEXT
  5
D7
330
1F
100
AcDbEntity
  8
10
 62
     7
100
AcDbMText
 10
14.2976996284
 20
69.5170574376
 30
0.0
 40
3.5
 41
0.0
 71
     2
 72
     1
  1
\U+63CF\U+6821
  7
SLDTEXTSTYLE0
 73
     1
 44
1.0
  0
MTEXT
  5
D8
330
1F
100
AcDbEntity
  8
10
 62
     7
100
AcDbMText
 10
14.3302083742
 20
82.5525317133
 30
0.0
 40
3.5
 41
0.0
 71
     2
 72
     1
  1
\U+63CF图
  7
SLDTEXTSTYLE0
 73
     1
 44
1.0
  0
MTEXT
  5
D9
330
1F
100
AcDbEntity
  8
10
 62
     7
100
AcDbMText
 10
2.4737490341
 20
95.4991764407
 30
0.0
 40
3.5
 41
0.0
 71
     1
 72
     1
  1
\U+501F(\U+901A)\U+7528\U+4EF6\U+767B记
  7
SLDTEXTSTYLE0
 73
     1
 44
1.0
  0
MTEXT
  5
DA
330
1F
100
AcDbEntity
  8
10
 62
     7
100
AcDbMText
 10
4.0231242776
 20
108.594753017
 30
0.0
 40
3.5
 41
0.0
 71
     1
 72
     1
  1
\U+96F6 \U+4EF6 \U+4EE3 \U+53F7
  7
SLDTEXTSTYLE2
 73
     1
 44
1.0
  0
MTEXT
  5
DB
330
1F
100
AcDbEntity
  8
10
 62
     7
100
AcDbMText
 10
346.9605974766
 20
11.2009947875
 30
0.0
 40
3.5
 41
0.0
 71
     2
 72
     1
  1
\U+7248\U+672C
  7
SLDTEXTSTYLE0
 73
     1
 44
1.0
  0
MTEXT
  5
DC
330
1F
100
AcDbEntity
  8
10
 62
     7
100
AcDbMText
 10
244.5305977765
 20
17.3301056582
 30
0.0
 40
3.5
 41
0.0
 71
     2
 72
     1
  1
\U+4E3B\U+7BA1设计
  7
SLDTEXTSTYLE0
 73
     1
 44
1.0
  0
MTEXT
  5
DD
330
1F
100
AcDbEntity
  8
SLD-0
100
AcDbMText
 10
366.5608758906
 20
11.2009947875
 30
0.0
 40
3.5
 41
0.0
 71
     1
 72
     1
  1
\U+66FF\U+4EE3
  7
SLDTEXTSTYLE0
 73
     1
 44
1.0
  0
MTEXT
  5
DE
330
1F
100
AcDbEntity
  8
SLD-0
100
AcDbMText
 10
54.4238939136
 20
285.0232919684
 30
0.0
 40
3.5
 41
0.0
 71
     2
 72
     1
  1
\U+201C图样\U+4EE3\U+53F7\U+201D
  7
SLDTEXTSTYLE0
 11
-1.0
 21
-6.982962677686267E-15
 31
0.0
 73
     1
 44
1.0
  0
MTEXT
  5
E0
330
1F
100
AcDbEntity
  8
10
100
AcDbMText
 10
360.6288012062
 20
29.9049374378
 30
0.0
 40
3.5
 41
0.0
 71
     2
 72
     1
  1
1:20
  7
SLDTEXTSTYLE4
 73
     1
 44
1.0
  0
MTEXT
  5
E1
330
1F
100
AcDbEntity
  8
10
100
AcDbMText
 10
321.1423442751
 20
11.2009950786
 30
0.0
 40
3.5
 41
0.0
 71
     1
 72
     1
  1
1
  7
SLDTEXTSTYLE4
 73
     1
 44
1.0
  0
MTEXT
  5
E2
330
1F
100
AcDbEntity
  8
10
100
AcDbMText
 10
334.4794716171
 20
11.2009950786
 30
0.0
 40
3.5
 41
0.0
 71
     1
 72
     1
  1
1
  7
SLDTEXTSTYLE4
 73
     1
 44
1.0
  0
MTEXT
  5
E3
330
1F
100
AcDbEntity
  8
10
100
AcDbMText
 10
349.6419301624
 20
29.9049374378
 30
0.0
 40
3.5
 41
0.0
 71
     2
 72
     1
  1
47.282
  7
SLDTEXTSTYLE4
 73
     1
 44
1.0
  0
MTEXT
  5
E4
330
1F
100
AcDbEntity
  8
10
100
AcDbMText
 10
392.6876328292
 20
35.7909010283
 30
0.0
 40
3.5
 41
0.0
 71
     2
 72
     1
  1
\U+201C图样\U+540D\U+79F0\U+201D
  7
SLDTEXTSTYLE0
 73
     1
 44
1.0
  0
MTEXT
  5
E5
330
1F
100
AcDbEntity
  8
10
100
AcDbMText
 10
392.6900626498
 20
21.0496532158
 30
0.0
 40
3.5
 41
0.0
 71
     2
 72
     1
  1
\U+201C图样\U+4EE3\U+53F7\U+201D
  7
SLDTEXTSTYLE0
 73
     1
 44
1.0
  0
MTEXT
  5
E6
330
1F
100
AcDbEntity
  8
10
100
AcDbMText
 10
35.5444444427
 20
4.4472672869
 30
0.0
 40
3.5
 41
0.0
 71
     2
 72
     1
  1
1
  7
SLDTEXTSTYLE4
 73
     1
 44
1.0
  0
MTEXT
  5
E7
330
1F
100
AcDbEntity
  8
10
100
AcDbMText
 10
95.5444444427
 20
4.4472672869
 30
0.0
 40
3.5
 41
0.0
 71
     2
 72
     1
  1
2
  7
SLDTEXTSTYLE4
 73
     1
 44
1.0
  0
MTEXT
  5
E8
330
1F
100
AcDbEntity
  8
10
100
AcDbMText
 10
345.54687502
 20
4.4472672869
 30
0.0
 40
3.5
 41
0.0
 71
     2
 72
     1
  1
7
  7
SLDTEXTSTYLE4
 73
     1
 44
1.0
  0
MTEXT
  5
E9
330
1F
100
AcDbEntity
  8
10
100
AcDbMText
 10
295.54687502
 20
4.4472672869
 30
0.0
 40
3.5
 41
0.0
 71
     2
 72
     1
  1
6
  7
SLDTEXTSTYLE4
 73
     1
 44
1.0
  0
MTEXT
  5
EA
330
1F
100
AcDbEntity
  8
10
100
AcDbMText
 10
245.5444444427
 20
4.4472672869
 30
0.0
 40
3.5
 41
0.0
 71
     2
 72
     1
  1
5
  7
SLDTEXTSTYLE4
 73
     1
 44
1.0
  0
MTEXT
  5
EB
330
1F
100
AcDbEntity
  8
10
100
AcDbMText
 10
195.5444444427
 20
4.4472672869
 30
0.0
 40
3.5
 41
0.0
 71
     2
 72
     1
  1
4
  7
SLDTEXTSTYLE4
 73
     1
 44
1.0
  0
MTEXT
  5
EC
330
1F
100
AcDbEntity
  8
10
100
AcDbMText
 10
145.5444444427
 20
4.4472672869
 30
0.0
 40
3.5
 41
0.0
 71
     2
 72
     1
  1
3
  7
SLDTEXTSTYLE4
 73
     1
 44
1.0
  0
MTEXT
  5
ED
330
1F
100
AcDbEntity
  8
10
100
AcDbMText
 10
395.54687502
 20
4.4472672869
 30
0.0
 40
3.5
 41
0.0
 71
     2
 72
     1
  1
8
  7
SLDTEXTSTYLE4
 73
     1
 44
1.0
  0
MTEXT
  5
EE
330
1F
100
AcDbEntity
  8
10
100
AcDbMText
 10
395.54687502
 20
296.5189005247
 30
0.0
 40
3.5
 41
0.0
 71
     2
 72
     1
  1
8
  7
SLDTEXTSTYLE4
 73
     1
 44
1.0
  0
MTEXT
  5
EF
330
1F
100
AcDbEntity
  8
10
100
AcDbMText
 10
345.54687502
 20
296.5189005247
 30
0.0
 40
3.5
 41
0.0
 71
     2
 72
     1
  1
7
  7
SLDTEXTSTYLE4
 73
     1
 44
1.0
  0
MTEXT
  5
F0
330
1F
100
AcDbEntity
  8
10
100
AcDbMText
 10
195.5444444427
 20
296.5189005247
 30
0.0
 40
3.5
 41
0.0
 71
     2
 72
     1
  1
4
  7
SLDTEXTSTYLE4
 73
     1
 44
1.0
  0
MTEXT
  5
F1
330
1F
100
AcDbEntity
  8
10
100
AcDbMText
 10
245.5444444427
 20
296.5189005247
 30
0.0
 40
3.5
 41
0.0
 71
     2
 72
     1
  1
5
  7
SLDTEXTSTYLE4
 73
     1
 44
1.0
  0
MTEXT
  5
F2
330
1F
100
AcDbEntity
  8
10
100
AcDbMText
 10
145.5444444427
 20
296.5189005247
 30
0.0
 40
3.5
 41
0.0
 71
     2
 72
     1
  1
3
  7
SLDTEXTSTYLE4
 73
     1
 44
1.0
  0
MTEXT
  5
F3
330
1F
100
AcDbEntity
  8
10
100
AcDbMText
 10
295.54687502
 20
296.5189005247
 30
0.0
 40
3.5
 41
0.0
 71
     2
 72
     1
  1
6
  7
SLDTEXTSTYLE4
 73
     1
 44
1.0
  0
MTEXT
  5
F4
330
1F
100
AcDbEntity
  8
10
100
AcDbMText
 10
95.5444444427
 20
296.5189005247
 30
0.0
 40
3.5
 41
0.0
 71
     2
 72
     1
  1
2
  7
SLDTEXTSTYLE4
 73
     1
 44
1.0
  0
MTEXT
  5
F5
330
1F
100
AcDbEntity
  8
10
100
AcDbMText
 10
35.5444444427
 20
296.5189005247
 30
0.0
 40
3.5
 41
0.0
 71
     2
 72
     1
  1
1
  7
SLDTEXTSTYLE4
 73
     1
 44
1.0
  0
MTEXT
  5
F6
330
1F
100
AcDbEntity
  8
10
100
AcDbMText
 10
418.224305544
 20
26.2689005247
 30
0.0
 40
3.5
 41
0.0
 71
     2
 72
     1
  1
F
  7
SLDTEXTSTYLE4
 73
     1
 44
1.0
  0
MTEXT
  5
F7
330
1F
100
AcDbEntity
  8
10
100
AcDbMText
 10
418.3178819427
 20
75.5189005247
 30
0.0
 40
3.5
 41
0.0
 71
     2
 72
     1
  1
E
  7
SLDTEXTSTYLE4
 73
     1
 44
1.0
  0
MTEXT
  5
F8
330
1F
100
AcDbEntity
  8
10
100
AcDbMText
 10
418.42968752
 20
125.5189005247
 30
0.0
 40
3.5
 41
0.0
 71
     2
 72
     1
  1
D
  7
SLDTEXTSTYLE4
 73
     1
 44
1.0
  0
MTEXT
  5
F9
330
1F
100
AcDbEntity
  8
10
100
AcDbMText
 10
418.4272569427
 20
175.5189005247
 30
0.0
 40
3.5
 41
0.0
 71
     2
 72
     1
  1
C
  7
SLDTEXTSTYLE4
 73
     1
 44
1.0
  0
MTEXT
  5
FA
330
1F
100
AcDbEntity
  8
10
100
AcDbMText
 10
418.32031252
 20
225.5189005247
 30
0.0
 40
3.5
 41
0.0
 71
     2
 72
     1
  1
B
  7
SLDTEXTSTYLE4
 73
     1
 44
1.0
  0
MTEXT
  5
FB
330
1F
100
AcDbEntity
  8
10
100
AcDbMText
 10
418.32031252
 20
274.7689005247
 30
0.0
 40
3.5
 41
0.0
 71
     2
 72
     1
  1
A
  7
SLDTEXTSTYLE4
 73
     1
 44
1.0
  0
MTEXT
  5
FC
330
1F
100
AcDbEntity
  8
10
100
AcDbMText
 10
13.32031252
 20
274.7689005247
 30
0.0
 40
3.5
 41
0.0
 71
     2
 72
     1
  1
A
  7
SLDTEXTSTYLE4
 73
     1
 44
1.0
  0
MTEXT
  5
FD
330
1F
100
AcDbEntity
  8
10
100
AcDbMText
 10
13.32031252
 20
225.5189005247
 30
0.0
 40
3.5
 41
0.0
 71
     2
 72
     1
  1
B
  7
SLDTEXTSTYLE4
 73
     1
 44
1.0
  0
MTEXT
  5
FE
330
1F
100
AcDbEntity
  8
10
100
AcDbMText
 10
13.4272569427
 20
175.5189005247
 30
0.0
 40
3.5
 41
0.0
 71
     2
 72
     1
  1
C
  7
SLDTEXTSTYLE4
 73
     1
 44
1.0
  0
MTEXT
  5
FF
330
1F
100
AcDbEntity
  8
10
100
AcDbMText
 10
13.42968752
 20
125.5189005247
 30
0.0
 40
3.5
 41
0.0
 71
     2
 72
     1
  1
D
  7
SLDTEXTSTYLE4
 73
     1
 44
1.0
  0
LINE
  5
100
330
1F
100
AcDbEntity
  8
0
  6
Continuous
 62
     7
370
    25
100
AcDbLine
 10
100.2928726969
 20
120.44
 30
0.0
 11
99.0928726969
 21
120.44
 31
0.0
  0
LINE
  5
101
330
1F
100
AcDbEntity
  8
0
  6
Continuous
 62
     7
370
    25
100
AcDbLine
 10
101.2928726969
 20
120.315
 30
0.0
 11
100.2928726969
 21
120.315
 31
0.0
  0
LINE
  5
102
330
1F
100
AcDbEntity
  8
0
  6
Continuous
 62
     7
370
    25
100
AcDbLine
 10
102.0928726969
 20
120.24
 30
0.0
 11
101.2928726969
 21
120.24
 31
0.0
  0
LINE
  5
103
330
1F
100
AcDbEntity
  8
0
  6
Continuous
 62
     7
370
    25
100
AcDbLine
 10
96.2928726969
 20
120.44
 30
0.0
 11
95.0928726969
 21
120.44
 31
0.0
  0
LINE
  5
104
330
1F
100
AcDbEntity
  8
0
  6
Continuous
 62
     7
370
    25
100
AcDbLine
 10
97.2928726969
 20
120.315
 30
0.0
 11
96.2928726969
 21
120.315
 31
0.0
  0
LINE
  5
105
330
1F
100
AcDbEntity
  8
0
  6
Continuous
 62
     7
370
    25
100
AcDbLine
 10
98.0928726969
 20
120.24
 30
0.0
 11
97.2928726969
 21
120.24
 31
0.0
  0
LINE
  5
106
330
1F
100
AcDbEntity
  8
0
  6
Continuous
 62
     7
370
    25
100
AcDbLine
 10
88.8428726969
 20
121.19
 30
0.0
 11
88.8428726969
 21
122.09
 31
0.0
  0
LINE
  5
107
330
1F
100
AcDbEntity
  8
0
  6
Continuous
 62
     7
370
    25
100
AcDbLine
 10
67.3428726969
 20
122.09
 30
0.0
 11
67.3428726969
 21
121.19
 31
0.0
  0
LINE
  5
108
330
1F
100
AcDbEntity
  8
0
  6
Continuous
 62
     7
370
    25
100
AcDbLine
 10
88.0928726969
 20
122.09
 30
0.0
 11
88.0928726969
 21
128.94
 31
0.0
  0
LINE
  5
109
330
1F
100
AcDbEntity
  8
0
  6
Continuous
 62
     7
370
    25
100
AcDbLine
 10
68.0928726969
 20
128.94
 30
0.0
 11
68.0928726969
 21
122.09
 31
0.0
  0
LINE
  5
10A
330
1F
100
AcDbEntity
  8
0
  6
Continuous
 62
     7
370
    25
100
AcDbLine
 10
74.1428726969
 20
85.94
 30
0.0
 11
74.1428726969
 21
86.54
 31
0.0
  0
LINE
  5
10B
330
1F
100
AcDbEntity
  8
0
  6
Continuous
 62
     7
370
    25
100
AcDbLine
 10
70.0428726969
 20
86.54
 30
0.0
 11
70.0428726969
 21
85.94
 31
0.0
  0
LINE
  5
10C
330
1F
100
AcDbEntity
  8
0
  6
Continuous
 62
     7
370
    25
100
AcDbLine
 10
112.0428726969
 20
86.54
 30
0.0
 11
112.0428726969
 21
85.94
 31
0.0
  0
LINE
  5
10D
330
1F
100
AcDbEntity
  8
0
  6
Continuous
 62
     7
370
    25
100
AcDbLine
 10
116.1428726969
 20
85.94
 30
0.0
 11
116.1428726969
 21
86.54
 31
0.0
  0
CIRCLE
  5
10E
330
1F
100
AcDbEntity
  8
0
  6
Continuous
 62
     7
370
    25
100
AcDbCircle
 10
114.0928726969
 20
133.94
 30
0.0
 40
0.2250000000000227
  0
LINE
  5
10F
330
1F
100
AcDbEntity
  8
0
  6
Continuous
 62
     7
370
    25
100
AcDbLine
 10
112.3428726969
 20
131.44
 30
0.0
 11
112.3428726969
 21
116.44
 31
0.0
  0
CIRCLE
  5
110
330
1F
100
AcDbEntity
  8
0
  6
Continuous
 62
     7
370
    25
100
AcDbCircle
 10
72.0928726969
 20
133.94
 30
0.0
 40
0.2250000000000227
  0
CIRCLE
  5
111
330
1F
100
AcDbEntity
  8
0
  6
Continuous
 62
     7
370
    25
100
AcDbCircle
 10
72.0928726969
 20
115.94
 30
0.0
 40
0.2250000000000085
  0
LINE
  5
112
330
1F
100
AcDbEntity
  8
0
  6
Continuous
 62
     7
370
    25
100
AcDbLine
 10
115.5928726969
 20
135.44
 30
0.0
 11
115.5928726969
 21
114.84
 31
0.0
  0
LINE
  5
113
330
1F
100
AcDbEntity
  8
0
  6
Continuous
 62
     7
370
    25
100
AcDbLine
 10
70.5928726969
 20
135.44
 30
0.0
 11
115.5928726969
 21
135.44
 31
0.0
  0
CIRCLE
  5
114
330
1F
100
AcDbEntity
  8
0
  6
Continuous
 62
     7
370
    25
100
AcDbCircle
 10
114.0928726969
 20
115.94
 30
0.0
 40
0.2250000000000085
  0
LINE
  5
115
330
1F
100
AcDbEntity
  8
0
  6
Continuous
 62
     7
370
    25
100
AcDbLine
 10
73.8428726969
 20
116.44
 30
0.0
 11
73.8428726969
 21
131.44
 31
0.0
  0
LINE
  5
116
330
1F
100
AcDbEntity
  8
0
  6
Continuous
 62
     7
370
    25
100
AcDbLine
 10
112.3428726969
 20
116.44
 30
0.0
 11
73.8428726969
 21
116.44
 31
0.0
  0
LINE
  5
117
330
1F
100
AcDbEntity
  8
0
  6
Continuous
 62
     7
370
    25
100
AcDbLine
 10
70.5928726969
 20
114.84
 30
0.0
 11
70.5928726969
 21
135.44
 31
0.0
  0
LINE
  5
118
330
1F
100
AcDbEntity
  8
0
  6
Continuous
 62
     7
370
    25
100
AcDbLine
 10
73.8428726969
 20
131.44
 30
0.0
 11
112.3428726969
 21
131.44
 31
0.0
  0
LINE
  5
119
330
1F
100
AcDbEntity
  8
0
  6
Continuous
 62
     7
370
    25
100
AcDbLine
 10
104.9246622452
 20
113.1618244284
 30
0.0
 11
108.5856904698
 21
113.94
 31
0.0
  0
LINE
  5
11A
330
1F
100
AcDbEntity
  8
0
  6
Continuous
 62
     7
370
    25
100
AcDbLine
 10
116.0928726969
 20
115.535700842
 30
0.0
 11
121.5531714577
 21
116.6963231723
 31
0.0
  0
LINE
  5
11B
330
1F
100
AcDbEntity
  8
0
  6
Continuous
 62
     7
370
    25
100
AcDbLine
 10
121.5531714577
 20
116.6963231723
 30
0.0
 11
121.6571273031
 21
116.207249372
 31
0.0
  0
LINE
  5
11C
330
1F
100
AcDbEntity
  8
0
  6
Continuous
 62
     7
370
    25
100
AcDbLine
 10
105.0286180906
 20
112.672750628
 30
0.0
 11
110.9905576421
 21
113.94
 31
0.0
  0
LINE
  5
11D
330
1F
100
AcDbEntity
  8
0
  6
Continuous
 62
     7
370
    25
100
AcDbLine
 10
116.0928726969
 20
115.0245305446
 30
0.0
 11
121.6571273031
 21
116.207249372
 31
0.0
  0
LINE
  5
11E
330
1F
100
AcDbEntity
  8
0
  6
Continuous
 62
     7
370
    25
100
AcDbLine
 10
104.9246622452
 20
113.1618244284
 30
0.0
 11
105.0286180906
 21
112.672750628
 31
0.0
  0
LINE
  5
11F
330
1F
100
AcDbEntity
  8
0
  6
Continuous
 62
     7
370
    25
100
AcDbLine
 10
115.5928726969
 20
117.065167513
 30
0.0
 11
120.8879425682
 21
118.1906693586
 31
0.0
  0
LINE
  5
120
330
1F
100
AcDbEntity
  8
0
  6
Continuous
 62
     7
370
    25
100
AcDbLine
 10
120.8879425682
 20
118.1906693586
 30
0.0
 11
121.2206012735
 21
116.6256331974
 31
0.0
  0
LINE
  5
121
330
1F
100
AcDbEntity
  8
0
  6
Continuous
 62
     7
370
    25
100
AcDbLine
 10
105.1068517236
 20
113.94
 30
0.0
 11
105.2572324295
 21
113.2325144033
 31
0.0
  0
CIRCLE
  5
122
330
1F
100
AcDbEntity
  8
0
  6
Continuous
 62
     7
370
    25
100
AcDbCircle
 10
118.4068865377
 20
118.3225259516
 30
0.0
 40
0.2109861591695363
  0
CIRCLE
  5
123
330
1F
100
AcDbEntity
  8
0
  6
Continuous
 62
     7
370
    25
100
AcDbCircle
 10
118.4068865377
 20
121.0574740484
 30
0.0
 40
0.2109861591695505
  0
LINE
  5
124
330
1F
100
AcDbEntity
  8
0
  6
Continuous
 62
     7
370
    25
100
AcDbLine
 10
119.2178726969
 20
117.89
 30
0.0
 11
115.5928726969
 21
117.89
 31
0.0
  0
LINE
  5
125
330
1F
100
AcDbEntity
  8
0
  6
Continuous
 62
     7
370
    25
100
AcDbLine
 10
115.5928726969
 20
121.49
 30
0.0
 11
119.2178726969
 21
121.49
 31
0.0
  0
LINE
  5
126
330
1F
100
AcDbEntity
  8
0
  6
Continuous
 62
     7
370
    25
100
AcDbLine
 10
119.2178726969
 20
121.49
 30
0.0
 11
119.2178726969
 21
117.89
 31
0.0
  0
LINE
  5
127
330
1F
100
AcDbEntity
  8
0
  6
Continuous
 62
     7
370
    25
100
AcDbLine
 10
112.3428726969
 20
121.39
 30
0.0
 11
112.2178726969
 21
121.39
 31
0.0
  0
LINE
  5
128
330
1F
100
AcDbEntity
  8
0
  6
Continuous
 62
     7
370
    25
100
AcDbLine
 10
112.2178726969
 20
121.39
 30
0.0
 11
112.2178726969
 21
123.49
 31
0.0
  0
LINE
  5
129
330
1F
100
AcDbEntity
  8
0
  6
Continuous
 62
     7
370
    25
100
AcDbLine
 10
112.2178726969
 20
123.49
 30
0.0
 11
112.3428726969
 21
123.49
 31
0.0
  0
CIRCLE
  5
12A
330
1F
100
AcDbEntity
  8
0
  6
Continuous
 62
     7
370
    25
100
AcDbCircle
 10
116.8220874775
 20
122.4694457275
 30
0.0
 40
0.2457852193995365
  0
LINE
  5
12B
330
1F
100
AcDbEntity
  8
0
  6
Continuous
 62
     7
370
    25
100
AcDbLine
 10
109.3428726969
 20
117.19
 30
0.0
 11
109.3428726969
 21
118.19
 31
0.0
  0
LINE
  5
12C
330
1F
100
AcDbEntity
  8
0
  6
Continuous
 62
     7
370
    25
100
AcDbLine
 10
109.3428726969
 20
121.19
 30
0.0
 11
109.3428726969
 21
123.19
 31
0.0
  0
LINE
  5
12D
330
1F
100
AcDbEntity
  8
0
  6
Continuous
 62
     7
370
    25
100
AcDbLine
 10
109.3428726969
 20
123.19
 30
0.0
 11
112.2178726969
 21
123.19
 31
0.0
  0
LINE
  5
12E
330
1F
100
AcDbEntity
  8
0
  6
Continuous
 62
     7
370
    25
100
AcDbLine
 10
115.5928726969
 20
123.19
 30
0.0
 11
117.8428726969
 21
123.19
 31
0.0
  0
ARC
  5
12F
330
1F
100
AcDbEntity
  8
0
  6
Continuous
 62
     7
370
    25
100
AcDbCircle
 10
116.8220874775
 20
117.9105542725
 30
0.0
 40
0.2457852193995477
100
AcDbArc
 50
184.7970747679
 51
355.2029252321
  0
LINE
  5
130
330
1F
100
AcDbEntity
  8
0
  6
Continuous
 62
     7
370
    25
100
AcDbLine
 10
116.180163374
 20
117.19
 30
0.0
 11
115.5928726969
 21
117.19
 31
0.0
  0
LINE
  5
131
330
1F
100
AcDbEntity
  8
0
  6
Continuous
 62
     7
370
    25
100
AcDbLine
 10
112.3428726969
 20
117.19
 30
0.0
 11
109.3428726969
 21
117.19
 31
0.0
  0
CIRCLE
  5
132
330
1F
100
AcDbEntity
  8
0
  6
Continuous
 62
     7
370
    25
100
AcDbCircle
 10
110.3636579163
 20
122.4694457275
 30
0.0
 40
0.2042147806004522
  0
LINE
  5
133
330
1F
100
AcDbEntity
  8
0
  6
Continuous
 62
     7
370
    25
100
AcDbLine
 10
117.8428726969
 20
123.19
 30
0.0
 11
117.8428726969
 21
121.49
 31
0.0
  0
LINE
  5
134
330
1F
100
AcDbEntity
  8
0
  6
Continuous
 62
     7
370
    25
100
AcDbLine
 10
117.8428726969
 20
117.89
 30
0.0
 11
117.8428726969
 21
117.5434197767
 31
0.0
  0
LINE
  5
135
330
1F
100
AcDbEntity
  8
0
  6
Continuous
 62
     7
370
    25
100
AcDbLine
 10
100.2928726969
 20
120.44
 30
0.0
 11
100.2928726969
 21
120.14
 31
0.0
  0
LINE
  5
136
330
1F
100
AcDbEntity
  8
0
  6
Continuous
 62
     7
370
    25
100
AcDbLine
 10
99.0928726969
 20
120.44
 30
0.0
 11
99.0928726969
 21
120.14
 31
0.0
  0
LINE
  5
137
330
1F
100
AcDbEntity
  8
0
  6
Continuous
 62
     7
370
    25
100
AcDbLine
 10
101.2928726969
 20
120.315
 30
0.0
 11
101.2928726969
 21
120.14
 31
0.0
  0
LINE
  5
138
330
1F
100
AcDbEntity
  8
0
  6
Continuous
 62
     7
370
    25
100
AcDbLine
 10
102.0928726969
 20
120.24
 30
0.0
 11
102.0928726969
 21
120.14
 31
0.0
  0
LINE
  5
139
330
1F
100
AcDbEntity
  8
0
  6
Continuous
 62
     7
370
    25
100
AcDbLine
 10
96.2928726969
 20
120.44
 30
0.0
 11
96.2928726969
 21
120.14
 31
0.0
  0
LINE
  5
13A
330
1F
100
AcDbEntity
  8
0
  6
Continuous
 62
     7
370
    25
100
AcDbLine
 10
95.0928726969
 20
120.44
 30
0.0
 11
95.0928726969
 21
120.14
 31
0.0
  0
LINE
  5
13B
330
1F
100
AcDbEntity
  8
0
  6
Continuous
 62
     7
370
    25
100
AcDbLine
 10
97.2928726969
 20
120.315
 30
0.0
 11
97.2928726969
 21
120.14
 31
0.0
  0
LINE
  5
13C
330
1F
100
AcDbEntity
  8
0
  6
Continuous
 62
     7
370
    25
100
AcDbLine
 10
98.0928726969
 20
120.24
 30
0.0
 11
98.0928726969
 21
120.14
 31
0.0
  0
LINE
  5
13D
330
1F
100
AcDbEntity
  8
0
  6
Continuous
 62
     7
370
    25
100
AcDbLine
 10
109.5928726969
 20
118.19
 30
0.0
 11
109.5928726969
 21
117.6541080752
 31
0.0
  0
LINE
  5
13E
330
1F
100
AcDbEntity
  8
0
  6
Continuous
 62
     7
370
    25
100
AcDbLine
 10
109.5928726969
 20
117.6541080752
 30
0.0
 11
112.3428726969
 21
117.6541080752
 31
0.0
  0
LINE
  5
13F
330
1F
100
AcDbEntity
  8
0
  6
Continuous
 62
     7
370
    25
100
AcDbLine
 10
116.0928726969
 20
116.04
 30
0.0
 11
116.0928726969
 21
115.14
 31
0.0
  0
LINE
  5
140
330
1F
100
AcDbEntity
  8
0
  6
Continuous
 62
     7
370
    25
100
AcDbLine
 10
113.8913162532
 20
116.04
 30
0.0
 11
114.2944291406
 21
116.04
 31
0.0
  0
LINE
  5
141
330
1F
100
AcDbEntity
  8
0
  6
Continuous
 62
     7
370
    25
100
AcDbLine
 10
115.5928726969
 20
116.04
 30
0.0
 11
116.0928726969
 21
116.04
 31
0.0
  0
LINE
  5
142
330
1F
100
AcDbEntity
  8
0
  6
Continuous
 62
     7
370
    25
100
AcDbLine
 10
109.8315582656
 20
116.54
 30
0.0
 11
112.3428726969
 21
116.54
 31
0.0
  0
LINE
  5
143
330
1F
100
AcDbEntity
  8
0
  6
Continuous
 62
     7
370
    25
100
AcDbLine
 10
109.8315582656
 20
116.54
 30
0.0
 11
109.8315582656
 21
116.44
 31
0.0
  0
LINE
  5
144
330
1F
100
AcDbEntity
  8
0
  6
Continuous
 62
     7
370
    25
100
AcDbLine
 10
106.2178726969
 20
118.19
 30
0.0
 11
106.2178726969
 21
121.19
 31
0.0
  0
LINE
  5
145
330
1F
100
AcDbEntity
  8
0
  6
Continuous
 62
     7
370
    25
100
AcDbLine
 10
111.4678726969
 20
118.19
 30
0.0
 11
106.2178726969
 21
118.19
 31
0.0
  0
CIRCLE
  5
146
330
1F
100
AcDbEntity
  8
0
  6
Continuous
 62
     7
370
    25
100
AcDbCircle
 10
106.8428726969
 20
118.69
 30
0.0
 40
0.1240347345892161
  0
CIRCLE
  5
147
330
1F
100
AcDbEntity
  8
0
  6
Continuous
 62
     7
370
    25
100
AcDbCircle
 10
110.8428726969
 20
118.69
 30
0.0
 40
0.1625000000000085
  0
LINE
  5
148
330
1F
100
AcDbEntity
  8
0
  6
Continuous
 62
     7
370
    25
100
AcDbLine
 10
111.4678726969
 20
121.19
 30
0.0
 11
111.4678726969
 21
118.19
 31
0.0
  0
CIRCLE
  5
149
330
1F
100
AcDbEntity
  8
0
  6
Continuous
 62
     7
370
    25
100
AcDbCircle
 10
106.8428726969
 20
120.69
 30
0.0
 40
0.1240347345892019
  0
LINE
  5
14A
330
1F
100
AcDbEntity
  8
0
  6
Continuous
 62
     7
370
    25
100
AcDbLine
 10
106.2178726969
 20
121.19
 30
0.0
 11
111.4678726969
 21
121.19
 31
0.0
  0
CIRCLE
  5
14B
330
1F
100
AcDbEntity
  8
0
  6
Continuous
 62
     7
370
    25
100
AcDbCircle
 10
110.8428726969
 20
120.69
 30
0.0
 40
0.1624999999999943
  0
LINE
  5
14C
330
1F
100
AcDbEntity
  8
0
  6
Continuous
 62
     7
370
    25
100
AcDbLine
 10
106.7293622772
 20
120.64
 30
0.0
 11
106.9563831166
 21
120.64
 31
0.0
  0
LINE
  5
14D
330
1F
100
AcDbEntity
  8
0
  6
Continuous
 62
     7
370
    25
100
AcDbLine
 10
110.6882562359
 20
120.64
 30
0.0
 11
110.9974891578
 21
120.64
 31
0.0
  0
LINE
  5
14E
330
1F
100
AcDbEntity
  8
0
  6
Continuous
 62
     7
370
    25
100
AcDbLine
 10
83.3428726969
 20
118.44
 30
0.0
 11
106.2178726969
 21
118.44
 31
0.0
  0
LINE
  5
14F
330
1F
100
AcDbEntity
  8
0
  6
Continuous
 62
     7
370
    25
100
AcDbLine
 10
111.4678726969
 20
118.44
 30
0.0
 11
112.3428726969
 21
118.44
 31
0.0
  0
LINE
  5
150
330
1F
100
AcDbEntity
  8
0
  6
Continuous
 62
     7
370
    25
100
AcDbLine
 10
83.3428726969
 20
119.04
 30
0.0
 11
106.2178726969
 21
119.04
 31
0.0
  0
LINE
  5
151
330
1F
100
AcDbEntity
  8
0
  6
Continuous
 62
     7
370
    25
100
AcDbLine
 10
111.4678726969
 20
119.04
 30
0.0
 11
112.3428726969
 21
119.04
 31
0.0
  0
LINE
  5
152
330
1F
100
AcDbEntity
  8
0
  6
Continuous
 62
     7
370
    25
100
AcDbLine
 10
83.7128726969
 20
120.14
 30
0.0
 11
106.2178726969
 21
120.14
 31
0.0
  0
LINE
  5
153
330
1F
100
AcDbEntity
  8
0
  6
Continuous
 62
     7
370
    25
100
AcDbLine
 10
111.4678726969
 20
120.14
 30
0.0
 11
112.3428726969
 21
120.14
 31
0.0
  0
LINE
  5
154
330
1F
100
AcDbEntity
  8
0
  6
Continuous
 62
     7
370
    25
100
AcDbLine
 10
83.7128726969
 20
120.14
 30
0.0
 11
83.7128726969
 21
119.04
 31
0.0
  0
LINE
  5
155
330
1F
100
AcDbEntity
  8
0
  6
Continuous
 62
     7
370
    25
100
AcDbLine
 10
78.0928726969
 20
121.19
 30
0.0
 11
88.8428726969
 21
121.19
 31
0.0
  0
LINE
  5
156
330
1F
100
AcDbEntity
  8
0
  6
Continuous
 62
     7
370
    25
100
AcDbLine
 10
67.3428726969
 20
121.19
 30
0.0
 11
70.5928726969
 21
121.19
 31
0.0
  0
LINE
  5
157
330
1F
100
AcDbEntity
  8
0
  6
Continuous
 62
     7
370
    25
100
AcDbLine
 10
73.8428726969
 20
121.19
 30
0.0
 11
78.0928726969
 21
121.19
 31
0.0
  0
LINE
  5
158
330
1F
100
AcDbEntity
  8
0
  6
Continuous
 62
     7
370
    25
100
AcDbLine
 10
78.0928726969
 20
122.09
 30
0.0
 11
88.8428726969
 21
122.09
 31
0.0
  0
LINE
  5
159
330
1F
100
AcDbEntity
  8
0
  6
Continuous
 62
     7
370
    25
100
AcDbLine
 10
67.3428726969
 20
122.09
 30
0.0
 11
70.5928726969
 21
122.09
 31
0.0
  0
LINE
  5
15A
330
1F
100
AcDbEntity
  8
0
  6
Continuous
 62
     7
370
    25
100
AcDbLine
 10
73.8428726969
 20
122.09
 30
0.0
 11
78.0928726969
 21
122.09
 31
0.0
  0
LINE
  5
15B
330
1F
100
AcDbEntity
  8
0
  6
Continuous
 62
     7
370
    25
100
AcDbLine
 10
78.0928726969
 20
128.94
 30
0.0
 11
88.0928726969
 21
128.94
 31
0.0
  0
LINE
  5
15C
330
1F
100
AcDbEntity
  8
0
  6
Continuous
 62
     7
370
    25
100
AcDbLine
 10
68.0928726969
 20
128.94
 30
0.0
 11
70.5928726969
 21
128.94
 31
0.0
  0
LINE
  5
15D
330
1F
100
AcDbEntity
  8
0
  6
Continuous
 62
     7
370
    25
100
AcDbLine
 10
73.8428726969
 20
128.94
 30
0.0
 11
78.0928726969
 21
128.94
 31
0.0
  0
LINE
  5
15E
330
1F
100
AcDbEntity
  8
0
  6
Continuous
 62
     7
370
    25
100
AcDbLine
 10
83.3428726969
 20
121.19
 30
0.0
 11
83.3428726969
 21
116.44
 31
0.0
  0
LINE
  5
15F
330
1F
100
AcDbEntity
  8
0
  6
Continuous
 62
     7
370
    25
100
AcDbLine
 10
69.8428726969
 20
115.84
 30
0.0
 11
69.8428726969
 21
115.14
 31
0.0
  0
LINE
  5
160
330
1F
100
AcDbEntity
  8
0
  6
Continuous
 62
     7
370
    25
100
AcDbLine
 10
69.8428726969
 20
115.84
 30
0.0
 11
70.5928726969
 21
115.84
 31
0.0
  0
LINE
  5
161
330
1F
100
AcDbEntity
  8
0
  6
Continuous
 62
     7
370
    25
100
AcDbLine
 10
71.8913162532
 20
115.84
 30
0.0
 11
72.2944291406
 21
115.84
 31
0.0
  0
LINE
  5
162
330
1F
100
AcDbEntity
  8
0
  6
Continuous
 62
     7
370
    25
100
AcDbLine
 10
69.8428726969
 20
115.14
 30
0.0
 11
70.0928726969
 21
115.14
 31
0.0
  0
LINE
  5
163
330
1F
100
AcDbEntity
  8
0
  6
Continuous
 62
     7
370
    25
100
AcDbLine
 10
70.6955538356
 20
86.54
 30
0.0
 11
70.6955538356
 21
85.94
 31
0.0
  0
LINE
  5
164
330
1F
100
AcDbEntity
  8
0
  6
Continuous
 62
     7
370
    25
100
AcDbLine
 10
70.6955538356
 20
86.54
 30
0.0
 11
73.4901915581
 21
86.54
 31
0.0
  0
LINE
  5
165
330
1F
100
AcDbEntity
  8
0
  6
Continuous
 62
     7
370
    25
100
AcDbLine
 10
73.4901915581
 20
85.94
 30
0.0
 11
73.4901915581
 21
86.54
 31
0.0
  0
LINE
  5
166
330
1F
100
AcDbEntity
  8
0
  6
Continuous
 62
     7
370
    25
100
AcDbLine
 10
70.6955538356
 20
85.94
 30
0.0
 11
73.4901915581
 21
85.94
 31
0.0
  0
LINE
  5
167
330
1F
100
AcDbEntity
  8
0
  6
Continuous
 62
     7
370
    25
100
AcDbLine
 10
70.5928726969
 20
113.94
 30
0.0
 11
70.5928726969
 21
85.94
 31
0.0
  0
LINE
  5
168
330
1F
100
AcDbEntity
  8
0
  6
Continuous
 62
     7
370
    25
100
AcDbLine
 10
73.5928726969
 20
113.94
 30
0.0
 11
73.5928726969
 21
85.94
 31
0.0
  0
LINE
  5
169
330
1F
100
AcDbEntity
  8
0
  6
Continuous
 62
     7
370
    25
100
AcDbLine
 10
70.5928726969
 20
85.94
 30
0.0
 11
70.6955538356
 21
85.94
 31
0.0
  0
LINE
  5
16A
330
1F
100
AcDbEntity
  8
0
  6
Continuous
 62
     7
370
    25
100
AcDbLine
 10
73.4901915581
 20
85.94
 30
0.0
 11
73.5928726969
 21
85.94
 31
0.0
  0
LINE
  5
16B
330
1F
100
AcDbEntity
  8
0
  6
Continuous
 62
     7
370
    25
100
AcDbLine
 10
73.5928726969
 20
86.54
 30
0.0
 11
74.1428726969
 21
86.54
 31
0.0
  0
LINE
  5
16C
330
1F
100
AcDbEntity
  8
0
  6
Continuous
 62
     7
370
    25
100
AcDbLine
 10
73.5928726969
 20
85.94
 30
0.0
 11
74.1428726969
 21
85.94
 31
0.0
  0
LINE
  5
16D
330
1F
100
AcDbEntity
  8
0
  6
Continuous
 62
     7
370
    25
100
AcDbLine
 10
70.0428726969
 20
86.54
 30
0.0
 11
70.5928726969
 21
86.54
 31
0.0
  0
LINE
  5
16E
330
1F
100
AcDbEntity
  8
0
  6
Continuous
 62
     7
370
    25
100
AcDbLine
 10
70.0428726969
 20
85.94
 30
0.0
 11
70.5928726969
 21
85.94
 31
0.0
  0
LINE
  5
16F
330
1F
100
AcDbEntity
  8
0
  6
Continuous
 62
     7
370
    25
100
AcDbLine
 10
112.6955538356
 20
86.54
 30
0.0
 11
112.6955538356
 21
85.94
 31
0.0
  0
LINE
  5
170
330
1F
100
AcDbEntity
  8
0
  6
Continuous
 62
     7
370
    25
100
AcDbLine
 10
112.6955538356
 20
86.54
 30
0.0
 11
115.4901915581
 21
86.54
 31
0.0
  0
LINE
  5
171
330
1F
100
AcDbEntity
  8
0
  6
Continuous
 62
     7
370
    25
100
AcDbLine
 10
115.4901915581
 20
85.94
 30
0.0
 11
115.4901915581
 21
86.54
 31
0.0
  0
LINE
  5
172
330
1F
100
AcDbEntity
  8
0
  6
Continuous
 62
     7
370
    25
100
AcDbLine
 10
112.6955538356
 20
85.94
 30
0.0
 11
115.4901915581
 21
85.94
 31
0.0
  0
LINE
  5
173
330
1F
100
AcDbEntity
  8
0
  6
Continuous
 62
     7
370
    25
100
AcDbLine
 10
115.5928726969
 20
113.94
 30
0.0
 11
115.5928726969
 21
85.94
 31
0.0
  0
LINE
  5
174
330
1F
100
AcDbEntity
  8
0
  6
Continuous
 62
     7
370
    25
100
AcDbLine
 10
112.5928726969
 20
113.94
 30
0.0
 11
112.5928726969
 21
85.94
 31
0.0
  0
LINE
  5
175
330
1F
100
AcDbEntity
  8
0
  6
Continuous
 62
     7
370
    25
100
AcDbLine
 10
112.5928726969
 20
85.94
 30
0.0
 11
112.6955538356
 21
85.94
 31
0.0
  0
LINE
  5
176
330
1F
100
AcDbEntity
  8
0
  6
Continuous
 62
     7
370
    25
100
AcDbLine
 10
115.4901915581
 20
85.94
 30
0.0
 11
115.5928726969
 21
85.94
 31
0.0
  0
LINE
  5
177
330
1F
100
AcDbEntity
  8
0
  6
Continuous
 62
     7
370
    25
100
AcDbLine
 10
112.0428726969
 20
86.54
 30
0.0
 11
112.5928726969
 21
86.54
 31
0.0
  0
LINE
  5
178
330
1F
100
AcDbEntity
  8
0
  6
Continuous
 62
     7
370
    25
100
AcDbLine
 10
112.0428726969
 20
85.94
 30
0.0
 11
112.5928726969
 21
85.94
 31
0.0
  0
LINE
  5
179
330
1F
100
AcDbEntity
  8
0
  6
Continuous
 62
     7
370
    25
100
AcDbLine
 10
115.5928726969
 20
86.54
 30
0.0
 11
116.1428726969
 21
86.54
 31
0.0
  0
LINE
  5
17A
330
1F
100
AcDbEntity
  8
0
  6
Continuous
 62
     7
370
    25
100
AcDbLine
 10
115.5928726969
 20
85.94
 30
0.0
 11
116.1428726969
 21
85.94
 31
0.0
  0
LINE
  5
17B
330
1F
100
AcDbEntity
  8
0
  6
Continuous
 62
     7
370
    25
100
AcDbLine
 10
68.0928726969
 20
114.84
 30
0.0
 11
68.0928726969
 21
113.94
 31
0.0
  0
LINE
  5
17C
330
1F
100
AcDbEntity
  8
0
  6
Continuous
 62
     7
370
    25
100
AcDbLine
 10
118.0928726969
 20
114.84
 30
0.0
 11
118.0928726969
 21
113.94
 31
0.0
  0
LINE
  5
17D
330
1F
100
AcDbEntity
  8
0
  6
Continuous
 62
     7
370
    25
100
AcDbLine
 10
68.0928726969
 20
114.84
 30
0.0
 11
118.0928726969
 21
114.84
 31
0.0
  0
LINE
  5
17E
330
1F
100
AcDbEntity
  8
0
  6
Continuous
 62
     7
370
    25
100
AcDbLine
 10
68.0928726969
 20
113.94
 30
0.0
 11
118.0928726969
 21
113.94
 31
0.0
  0
LINE
  5
17F
330
1F
100
AcDbEntity
  8
0
  6
Continuous
 62
     7
370
    25
100
AcDbLine
 10
70.0928726969
 20
115.14
 30
0.0
 11
70.5928726969
 21
115.14
 31
0.0
  0
LINE
  5
180
330
1F
100
AcDbEntity
  8
0
  6
Continuous
 62
     7
370
    25
100
AcDbLine
 10
115.5928726969
 20
115.14
 30
0.0
 11
116.0928726969
 21
115.14
 31
0.0
  0
LINE
  5
181
330
1F
100
AcDbEntity
  8
0
  6
Continuous
 62
     7
370
    25
100
AcDbLine
 10
116.0928726969
 20
115.14
 30
0.0
 11
116.0928726969
 21
114.84
 31
0.0
  0
LINE
  5
182
330
1F
100
AcDbEntity
  8
0
  6
Continuous
 62
     7
370
    25
100
AcDbLine
 10
70.0928726969
 20
115.14
 30
0.0
 11
70.0928726969
 21
114.84
 31
0.0
  0
LINE
  5
183
330
1F
100
AcDbEntity
  8
0
  6
Continuous
 62
     7
370
    25
100
AcDbLine
 10
115.5928726969
 20
213.365
 30
0.0
 11
70.5928726969
 21
213.365
 31
0.0
  0
LINE
  5
184
330
1F
100
AcDbEntity
  8
0
  6
Continuous
 62
     7
370
    25
100
AcDbLine
 10
115.5928726969
 20
213.365
 30
0.0
 11
115.5928726969
 21
213.515
 31
0.0
  0
LINE
  5
185
330
1F
100
AcDbEntity
  8
0
  6
Continuous
 62
     7
370
    25
100
AcDbLine
 10
70.5928726969
 20
213.365
 30
0.0
 11
70.5928726969
 21
213.515
 31
0.0
  0
LINE
  5
186
330
1F
100
AcDbEntity
  8
0
  6
Continuous
 62
     7
370
    25
100
AcDbLine
 10
115.5928726969
 20
212.965
 30
0.0
 11
70.5928726969
 21
212.965
 31
0.0
  0
LINE
  5
187
330
1F
100
AcDbEntity
  8
0
  6
Continuous
 62
     7
370
    25
100
AcDbLine
 10
115.5928726969
 20
212.965
 30
0.0
 11
115.5928726969
 21
213.365
 31
0.0
  0
LINE
  5
188
330
1F
100
AcDbEntity
  8
0
  6
Continuous
 62
     7
370
    25
100
AcDbLine
 10
70.5928726969
 20
212.965
 30
0.0
 11
70.5928726969
 21
213.365
 31
0.0
  0
LINE
  5
189
330
1F
100
AcDbEntity
  8
0
  6
Continuous
 62
     7
370
    25
100
AcDbLine
 10
104.9246622452
 20
219.015
 30
0.0
 11
104.9246622452
 21
225.515
 31
0.0
  0
LINE
  5
18A
330
1F
100
AcDbEntity
  8
0
  6
Continuous
 62
     7
370
    25
100
AcDbLine
 10
104.9246622452
 20
225.515
 30
0.0
 11
105.0286180906
 21
225.515
 31
0.0
  0
LINE
  5
18B
330
1F
100
AcDbEntity
  8
0
  6
Continuous
 62
     7
370
    25
100
AcDbLine
 10
105.0286180906
 20
219.015
 30
0.0
 11
105.0286180906
 21
225.515
 31
0.0
  0
LINE
  5
18C
330
1F
100
AcDbEntity
  8
0
  6
Continuous
 62
     7
370
    25
100
AcDbLine
 10
104.9246622452
 20
219.015
 30
0.0
 11
105.0286180906
 21
219.015
 31
0.0
  0
LINE
  5
18D
330
1F
100
AcDbEntity
  8
0
  6
Continuous
 62
     7
370
    25
100
AcDbLine
 10
106.4713858017
 20
220.715
 30
0.0
 11
106.4713858017
 21
223.815
 31
0.0
  0
LINE
  5
18E
330
1F
100
AcDbEntity
  8
0
  6
Continuous
 62
     7
370
    25
100
AcDbLine
 10
120.214359592
 20
220.715
 30
0.0
 11
118.0928726969
 21
220.715
 31
0.0
  0
LINE
  5
18F
330
1F
100
AcDbEntity
  8
0
  6
Continuous
 62
     7
370
    25
100
AcDbLine
 10
110.9905576421
 20
220.715
 30
0.0
 11
106.4713858017
 21
220.715
 31
0.0
  0
LINE
  5
190
330
1F
100
AcDbEntity
  8
0
  6
Continuous
 62
     7
370
    25
100
AcDbLine
 10
120.214359592
 20
223.815
 30
0.0
 11
120.214359592
 21
220.715
 31
0.0
  0
LINE
  5
191
330
1F
100
AcDbEntity
  8
0
  6
Continuous
 62
     7
370
    25
100
AcDbLine
 10
106.4713858017
 20
223.815
 30
0.0
 11
110.9905576421
 21
223.815
 31
0.0
  0
LINE
  5
192
330
1F
100
AcDbEntity
  8
0
  6
Continuous
 62
     7
370
    25
100
AcDbLine
 10
118.0928726969
 20
223.815
 30
0.0
 11
120.214359592
 21
223.815
 31
0.0
  0
LINE
  5
193
330
1F
100
AcDbEntity
  8
0
  6
Continuous
 62
     7
370
    25
100
AcDbLine
 10
105.0286180906
 20
225.515
 30
0.0
 11
110.9905576421
 21
225.515
 31
0.0
  0
LINE
  5
194
330
1F
100
AcDbEntity
  8
0
  6
Continuous
 62
     7
370
    25
100
AcDbLine
 10
118.0928726969
 20
225.515
 30
0.0
 11
121.6571273031
 21
225.515
 31
0.0
  0
LINE
  5
195
330
1F
100
AcDbEntity
  8
0
  6
Continuous
 62
     7
370
    25
100
AcDbLine
 10
121.6571273031
 20
225.515
 30
0.0
 11
121.6571273031
 21
219.015
 31
0.0
  0
LINE
  5
196
330
1F
100
AcDbEntity
  8
0
  6
Continuous
 62
     7
370
    25
100
AcDbLine
 10
121.6571273031
 20
219.015
 30
0.0
 11
118.0928726969
 21
219.015
 31
0.0
  0
LINE
  5
197
330
1F
100
AcDbEntity
  8
0
  6
Continuous
 62
     7
370
    25
100
AcDbLine
 10
110.9905576421
 20
219.015
 30
0.0
 11
105.0286180906
 21
219.015
 31
0.0
  0
LINE
  5
198
330
1F
100
AcDbEntity
  8
0
  6
Continuous
 62
     7
370
    25
100
AcDbLine
 10
120.1104037466
 20
223.815
 30
0.0
 11
120.1104037466
 21
220.715
 31
0.0
  0
LINE
  5
199
330
1F
100
AcDbEntity
  8
0
  6
Continuous
 62
     7
370
    25
100
AcDbLine
 10
119.2178726969
 20
232.165
 30
0.0
 11
119.2178726969
 21
235.765
 31
0.0
  0
LINE
  5
19A
330
1F
100
AcDbEntity
  8
0
  6
Continuous
 62
     7
370
    25
100
AcDbLine
 10
119.2178726969
 20
232.165
 30
0.0
 11
118.0928726969
 21
232.165
 31
0.0
  0
LINE
  5
19B
330
1F
100
AcDbEntity
  8
0
  6
Continuous
 62
     7
370
    25
100
AcDbLine
 10
119.2178726969
 20
235.765
 30
0.0
 11
118.0928726969
 21
235.765
 31
0.0
  0
ARC
  5
19C
330
1F
100
AcDbEntity
  8
0
  6
Continuous
 62
     7
370
    25
100
AcDbCircle
 10
78.0928726969
 20
229.765
 30
0.0
 40
10.75
100
AcDbArc
 50
158.4710955944
 51
201.5289044056
  0
LINE
  5
19D
330
1F
100
AcDbEntity
  8
0
  6
Continuous
 62
     7
370
    25
100
AcDbLine
 10
73.5928726969
 20
240.515
 30
0.0
 11
73.4901915581
 21
240.515
 31
0.0
  0
LINE
  5
19E
330
1F
100
AcDbEntity
  8
0
  6
Continuous
 62
     7
370
    25
100
AcDbLine
 10
70.6955538356
 20
240.515
 30
0.0
 11
70.5928726969
 21
240.515
 31
0.0
  0
LINE
  5
19F
330
1F
100
AcDbEntity
  8
0
  6
Continuous
 62
     7
370
    25
100
AcDbLine
 10
70.5928726969
 20
240.515
 30
0.0
 11
70.5928726969
 21
240.6176811388
 31
0.0
  0
ARC
  5
1A0
330
1F
100
AcDbEntity
  8
0
  6
Continuous
 62
     7
370
    25
100
AcDbCircle
 10
72.0928726969
 20
242.015
 30
0.0
 40
2.050000000000018
100
AcDbArc
 50
137.0297160683
 51
222.9702839317
  0
LINE
  5
1A1
330
1F
100
AcDbEntity
  8
0
  6
Continuous
 62
     7
370
    25
100
AcDbLine
 10
70.5928726969
 20
243.4123188612
 30
0.0
 11
70.5928726969
 21
243.515
 31
0.0
  0
LINE
  5
1A2
330
1F
100
AcDbEntity
  8
0
  6
Continuous
 62
     7
370
    25
100
AcDbLine
 10
70.5928726969
 20
243.515
 30
0.0
 11
70.6955538356
 21
243.515
 31
0.0
  0
ARC
  5
1A3
330
1F
100
AcDbEntity
  8
0
  6
Continuous
 62
     7
370
    25
100
AcDbCircle
 10
72.0928726969
 20
242.015
 30
0.0
 40
2.050000000000008
100
AcDbArc
 50
47.0297160683
 51
132.9702839317
  0
LINE
  5
1A4
330
1F
100
AcDbEntity
  8
0
  6
Continuous
 62
     7
370
    25
100
AcDbLine
 10
73.4901915581
 20
243.515
 30
0.0
 11
73.5928726969
 21
243.515
 31
0.0
  0
LINE
  5
1A5
330
1F
100
AcDbEntity
  8
0
  6
Continuous
 62
     7
370
    25
100
AcDbLine
 10
73.5928726969
 20
243.515
 30
0.0
 11
73.5928726969
 21
243.4123188612
 31
0.0
  0
ARC
  5
1A6
330
1F
100
AcDbEntity
  8
0
  6
Continuous
 62
     7
370
    25
100
AcDbCircle
 10
72.0928726969
 20
242.015
 30
0.0
 40
2.050000000000007
100
AcDbArc
 50
317.0297160683
 51
42.9702839317
  0
LINE
  5
1A7
330
1F
100
AcDbEntity
  8
0
  6
Continuous
 62
     7
370
    25
100
AcDbLine
 10
73.5928726969
 20
240.6176811388
 30
0.0
 11
73.5928726969
 21
240.515
 31
0.0
  0
ARC
  5
1A8
330
1F
100
AcDbEntity
  8
0
  6
Continuous
 62
     7
370
    25
100
AcDbCircle
 10
72.0928726969
 20
242.015
 30
0.0
 40
2.050000000000008
100
AcDbArc
 50
227.0297160683
 51
312.9702839317
  0
LINE
  5
1A9
330
1F
100
AcDbEntity
  8
0
  6
Continuous
 62
     7
370
    25
100
AcDbLine
 10
73.5928726969
 20
216.015
 30
0.0
 11
73.4901915581
 21
216.015
 31
0.0
  0
LINE
  5
1AA
330
1F
100
AcDbEntity
  8
0
  6
Continuous
 62
     7
370
    25
100
AcDbLine
 10
70.6955538356
 20
216.015
 30
0.0
 11
70.5928726969
 21
216.015
 31
0.0
  0
LINE
  5
1AB
330
1F
100
AcDbEntity
  8
0
  6
Continuous
 62
     7
370
    25
100
AcDbLine
 10
70.5928726969
 20
216.015
 30
0.0
 11
70.5928726969
 21
216.1176811388
 31
0.0
  0
ARC
  5
1AC
330
1F
100
AcDbEntity
  8
0
  6
Continuous
 62
     7
370
    25
100
AcDbCircle
 10
72.0928726969
 20
217.515
 30
0.0
 40
2.049999999999998
100
AcDbArc
 50
137.0297160683
 51
222.9702839317
  0
LINE
  5
1AD
330
1F
100
AcDbEntity
  8
0
  6
Continuous
 62
     7
370
    25
100
AcDbLine
 10
70.5928726969
 20
218.9123188612
 30
0.0
 11
70.5928726969
 21
219.015
 31
0.0
  0
LINE
  5
1AE
330
1F
100
AcDbEntity
  8
0
  6
Continuous
 62
     7
370
    25
100
AcDbLine
 10
70.5928726969
 20
219.015
 30
0.0
 11
70.6955538356
 21
219.015
 31
0.0
  0
ARC
  5
1AF
330
1F
100
AcDbEntity
  8
0
  6
Continuous
 62
     7
370
    25
100
AcDbCircle
 10
72.0928726969
 20
217.515
 30
0.0
 40
2.050000000000008
100
AcDbArc
 50
47.0297160683
 51
132.9702839317
  0
LINE
  5
1B0
330
1F
100
AcDbEntity
  8
0
  6
Continuous
 62
     7
370
    25
100
AcDbLine
 10
73.4901915581
 20
219.015
 30
0.0
 11
73.5928726969
 21
219.015
 31
0.0
  0
LINE
  5
1B1
330
1F
100
AcDbEntity
  8
0
  6
Continuous
 62
     7
370
    25
100
AcDbLine
 10
73.5928726969
 20
219.015
 30
0.0
 11
73.5928726969
 21
218.9123188612
 31
0.0
  0
ARC
  5
1B2
330
1F
100
AcDbEntity
  8
0
  6
Continuous
 62
     7
370
    25
100
AcDbCircle
 10
72.0928726969
 20
217.515
 30
0.0
 40
2.049999999999987
100
AcDbArc
 50
317.0297160683
 51
42.9702839317
  0
LINE
  5
1B3
330
1F
100
AcDbEntity
  8
0
  6
Continuous
 62
     7
370
    25
100
AcDbLine
 10
73.5928726969
 20
216.1176811388
 30
0.0
 11
73.5928726969
 21
216.015
 31
0.0
  0
ARC
  5
1B4
330
1F
100
AcDbEntity
  8
0
  6
Continuous
 62
     7
370
    25
100
AcDbCircle
 10
72.0928726969
 20
217.515
 30
0.0
 40
2.050000000000008
100
AcDbArc
 50
227.0297160683
 51
312.9702839317
  0
LINE
  5
1B5
330
1F
100
AcDbEntity
  8
0
  6
Continuous
 62
     7
370
    25
100
AcDbLine
 10
115.5928726969
 20
216.015
 30
0.0
 11
115.4901915581
 21
216.015
 31
0.0
  0
LINE
  5
1B6
330
1F
100
AcDbEntity
  8
0
  6
Continuous
 62
     7
370
    25
100
AcDbLine
 10
112.6955538356
 20
216.015
 30
0.0
 11
112.5928726969
 21
216.015
 31
0.0
  0
LINE
  5
1B7
330
1F
100
AcDbEntity
  8
0
  6
Continuous
 62
     7
370
    25
100
AcDbLine
 10
112.5928726969
 20
216.015
 30
0.0
 11
112.5928726969
 21
216.1176811388
 31
0.0
  0
ARC
  5
1B8
330
1F
100
AcDbEntity
  8
0
  6
Continuous
 62
     7
370
    25
100
AcDbCircle
 10
114.0928726969
 20
217.515
 30
0.0
 40
2.049999999999998
100
AcDbArc
 50
137.0297160683
 51
222.9702839317
  0
LINE
  5
1B9
330
1F
100
AcDbEntity
  8
0
  6
Continuous
 62
     7
370
    25
100
AcDbLine
 10
112.5928726969
 20
218.9123188612
 30
0.0
 11
112.5928726969
 21
219.015
 31
0.0
  0
LINE
  5
1BA
330
1F
100
AcDbEntity
  8
0
  6
Continuous
 62
     7
370
    25
100
AcDbLine
 10
112.5928726969
 20
219.015
 30
0.0
 11
112.6955538356
 21
219.015
 31
0.0
  0
ARC
  5
1BB
330
1F
100
AcDbEntity
  8
0
  6
Continuous
 62
     7
370
    25
100
AcDbCircle
 10
114.0928726969
 20
217.515
 30
0.0
 40
2.050000000000008
100
AcDbArc
 50
47.0297160683
 51
132.9702839317
  0
LINE
  5
1BC
330
1F
100
AcDbEntity
  8
0
  6
Continuous
 62
     7
370
    25
100
AcDbLine
 10
115.4901915581
 20
219.015
 30
0.0
 11
115.5928726969
 21
219.015
 31
0.0
  0
LINE
  5
1BD
330
1F
100
AcDbEntity
  8
0
  6
Continuous
 62
     7
370
    25
100
AcDbLine
 10
115.5928726969
 20
219.015
 30
0.0
 11
115.5928726969
 21
218.9123188612
 31
0.0
  0
ARC
  5
1BE
330
1F
100
AcDbEntity
  8
0
  6
Continuous
 62
     7
370
    25
100
AcDbCircle
 10
114.0928726969
 20
217.515
 30
0.0
 40
2.049999999999998
100
AcDbArc
 50
317.0297160683
 51
42.9702839317
  0
LINE
  5
1BF
330
1F
100
AcDbEntity
  8
0
  6
Continuous
 62
     7
370
    25
100
AcDbLine
 10
115.5928726969
 20
216.1176811388
 30
0.0
 11
115.5928726969
 21
216.015
 31
0.0
  0
ARC
  5
1C0
330
1F
100
AcDbEntity
  8
0
  6
Continuous
 62
     7
370
    25
100
AcDbCircle
 10
114.0928726969
 20
217.515
 30
0.0
 40
2.050000000000008
100
AcDbArc
 50
227.0297160683
 51
312.9702839317
  0
LINE
  5
1C1
330
1F
100
AcDbEntity
  8
0
  6
Continuous
 62
     7
370
    25
100
AcDbLine
 10
115.5928726969
 20
240.515
 30
0.0
 11
115.4901915581
 21
240.515
 31
0.0
  0
LINE
  5
1C2
330
1F
100
AcDbEntity
  8
0
  6
Continuous
 62
     7
370
    25
100
AcDbLine
 10
112.6955538356
 20
240.515
 30
0.0
 11
112.5928726969
 21
240.515
 31
0.0
  0
LINE
  5
1C3
330
1F
100
AcDbEntity
  8
0
  6
Continuous
 62
     7
370
    25
100
AcDbLine
 10
112.5928726969
 20
240.515
 30
0.0
 11
112.5928726969
 21
240.6176811388
 31
0.0
  0
ARC
  5
1C4
330
1F
100
AcDbEntity
  8
0
  6
Continuous
 62
     7
370
    25
100
AcDbCircle
 10
114.0928726969
 20
242.015
 30
0.0
 40
2.050000000000018
100
AcDbArc
 50
137.0297160683
 51
222.9702839317
  0
LINE
  5
1C5
330
1F
100
AcDbEntity
  8
0
  6
Continuous
 62
     7
370
    25
100
AcDbLine
 10
112.5928726969
 20
243.4123188612
 30
0.0
 11
112.5928726969
 21
243.515
 31
0.0
  0
LINE
  5
1C6
330
1F
100
AcDbEntity
  8
0
  6
Continuous
 62
     7
370
    25
100
AcDbLine
 10
112.5928726969
 20
243.515
 30
0.0
 11
112.6955538356
 21
243.515
 31
0.0
  0
ARC
  5
1C7
330
1F
100
AcDbEntity
  8
0
  6
Continuous
 62
     7
370
    25
100
AcDbCircle
 10
114.0928726969
 20
242.015
 30
0.0
 40
2.050000000000008
100
AcDbArc
 50
47.0297160683
 51
132.9702839317
  0
LINE
  5
1C8
330
1F
100
AcDbEntity
  8
0
  6
Continuous
 62
     7
370
    25
100
AcDbLine
 10
115.4901915581
 20
243.515
 30
0.0
 11
115.5928726969
 21
243.515
 31
0.0
  0
LINE
  5
1C9
330
1F
100
AcDbEntity
  8
0
  6
Continuous
 62
     7
370
    25
100
AcDbLine
 10
115.5928726969
 20
243.515
 30
0.0
 11
115.5928726969
 21
243.4123188612
 31
0.0
  0
ARC
  5
1CA
330
1F
100
AcDbEntity
  8
0
  6
Continuous
 62
     7
370
    25
100
AcDbCircle
 10
114.0928726969
 20
242.015
 30
0.0
 40
2.050000000000018
100
AcDbArc
 50
317.0297160683
 51
42.9702839317
  0
LINE
  5
1CB
330
1F
100
AcDbEntity
  8
0
  6
Continuous
 62
     7
370
    25
100
AcDbLine
 10
115.5928726969
 20
240.6176811388
 30
0.0
 11
115.5928726969
 21
240.515
 31
0.0
  0
ARC
  5
1CC
330
1F
100
AcDbEntity
  8
0
  6
Continuous
 62
     7
370
    25
100
AcDbCircle
 10
114.0928726969
 20
242.015
 30
0.0
 40
2.050000000000008
100
AcDbArc
 50
227.0297160683
 51
312.9702839317
  0
LINE
  5
1CD
330
1F
100
AcDbEntity
  8
0
  6
Continuous
 62
     7
370
    25
100
AcDbLine
 10
68.0928726969
 20
246.015
 30
0.0
 11
118.0928726969
 21
246.015
 31
0.0
  0
LINE
  5
1CE
330
1F
100
AcDbEntity
  8
0
  6
Continuous
 62
     7
370
    25
100
AcDbLine
 10
68.0928726969
 20
213.515
 30
0.0
 11
68.0928726969
 21
246.015
 31
0.0
  0
LINE
  5
1CF
330
1F
100
AcDbEntity
  8
0
  6
Continuous
 62
     7
370
    25
100
AcDbLine
 10
118.0928726969
 20
246.015
 30
0.0
 11
118.0928726969
 21
213.515
 31
0.0
  0
LINE
  5
1D0
330
1F
100
AcDbEntity
  8
0
  6
Continuous
 62
     7
370
    25
100
AcDbLine
 10
118.0928726969
 20
213.515
 30
0.0
 11
68.0928726969
 21
213.515
 31
0.0
  0
LINE
  5
1D1
330
1F
100
AcDbEntity
  8
0
  6
Continuous
 62
     7
370
    25
100
AcDbLine
 10
252.525
 20
121.19
 30
0.0
 11
252.525
 21
122.09
 31
0.0
  0
LINE
  5
1D2
330
1F
100
AcDbEntity
  8
0
  6
Continuous
 62
     7
370
    25
100
AcDbLine
 10
231.025
 20
122.09
 30
0.0
 11
231.025
 21
121.19
 31
0.0
  0
LINE
  5
1D3
330
1F
100
AcDbEntity
  8
0
  6
Continuous
 62
     7
370
    25
100
AcDbLine
 10
251.775
 20
122.09
 30
0.0
 11
251.775
 21
128.94
 31
0.0
  0
LINE
  5
1D4
330
1F
100
AcDbEntity
  8
0
  6
Continuous
 62
     7
370
    25
100
AcDbLine
 10
231.775
 20
128.94
 30
0.0
 11
231.775
 21
122.09
 31
0.0
  0
LINE
  5
1D5
330
1F
100
AcDbEntity
  8
0
  6
Continuous
 62
     7
370
    25
100
AcDbLine
 10
251.975
 20
86.54
 30
0.0
 11
251.975
 21
85.94
 31
0.0
  0
LINE
  5
1D6
330
1F
100
AcDbEntity
  8
0
  6
Continuous
 62
     7
370
    25
100
AcDbLine
 10
256.075
 20
85.94
 30
0.0
 11
256.075
 21
86.54
 31
0.0
  0
LINE
  5
1D7
330
1F
100
AcDbEntity
  8
0
  6
Continuous
 62
     7
370
    25
100
AcDbLine
 10
227.475
 20
86.54
 30
0.0
 11
227.475
 21
85.94
 31
0.0
  0
LINE
  5
1D8
330
1F
100
AcDbEntity
  8
0
  6
Continuous
 62
     7
370
    25
100
AcDbLine
 10
231.575
 20
85.94
 30
0.0
 11
231.575
 21
86.54
 31
0.0
  0
LINE
  5
1D9
330
1F
100
AcDbEntity
  8
0
  6
Continuous
 62
     7
370
    25
100
AcDbLine
 10
257.775
 20
114.84
 30
0.0
 11
257.775
 21
135.44
 31
0.0
  0
LINE
  5
1DA
330
1F
100
AcDbEntity
  8
0
  6
Continuous
 62
     7
370
    25
100
AcDbLine
 10
257.375
 20
114.84
 30
0.0
 11
257.375
 21
134.24
 31
0.0
  0
LINE
  5
1DB
330
1F
100
AcDbEntity
  8
0
  6
Continuous
 62
     7
370
    25
100
AcDbLine
 10
256.975
 20
134.24
 30
0.0
 11
257.375
 21
134.24
 31
0.0
  0
LINE
  5
1DC
330
1F
100
AcDbEntity
  8
0
  6
Continuous
 62
     7
370
    25
100
AcDbLine
 10
256.975
 20
135.44
 30
0.0
 11
257.775
 21
135.44
 31
0.0
  0
LINE
  5
1DD
330
1F
100
AcDbEntity
  8
0
  6
Continuous
 62
     7
370
    25
100
AcDbLine
 10
256.975
 20
134.24
 30
0.0
 11
256.975
 21
135.44
 31
0.0
  0
LINE
  5
1DE
330
1F
100
AcDbEntity
  8
0
  6
Continuous
 62
     7
370
    25
100
AcDbLine
 10
225.775
 20
114.84
 30
0.0
 11
225.775
 21
135.44
 31
0.0
  0
LINE
  5
1DF
330
1F
100
AcDbEntity
  8
0
  6
Continuous
 62
     7
370
    25
100
AcDbLine
 10
224.975
 20
134.24
 30
0.0
 11
224.975
 21
135.44
 31
0.0
  0
LINE
  5
1E0
330
1F
100
AcDbEntity
  8
0
  6
Continuous
 62
     7
370
    25
100
AcDbLine
 10
225.375
 20
114.44
 30
0.0
 11
225.525
 21
114.44
 31
0.0
  0
LINE
  5
1E1
330
1F
100
AcDbEntity
  8
0
  6
Continuous
 62
     7
370
    25
100
AcDbLine
 10
225.375
 20
114.44
 30
0.0
 11
225.375
 21
134.24
 31
0.0
  0
LINE
  5
1E2
330
1F
100
AcDbEntity
  8
0
  6
Continuous
 62
     7
370
    25
100
AcDbLine
 10
224.975
 20
134.24
 30
0.0
 11
225.375
 21
134.24
 31
0.0
  0
LINE
  5
1E3
330
1F
100
AcDbEntity
  8
0
  6
Continuous
 62
     7
370
    25
100
AcDbLine
 10
224.975
 20
135.44
 30
0.0
 11
225.775
 21
135.44
 31
0.0
  0
LINE
  5
1E4
330
1F
100
AcDbEntity
  8
0
  6
Continuous
 62
     7
370
    25
100
AcDbLine
 10
231.925
 20
113.94
 30
0.0
 11
231.925
 21
113.2325144033
 31
0.0
  0
LINE
  5
1E5
330
1F
100
AcDbEntity
  8
0
  6
Continuous
 62
     7
370
    25
100
AcDbLine
 10
231.425
 20
113.2325144033
 30
0.0
 11
231.925
 21
113.2325144033
 31
0.0
  0
LINE
  5
1E6
330
1F
100
AcDbEntity
  8
0
  6
Continuous
 62
     7
370
    25
100
AcDbLine
 10
231.425
 20
113.94
 30
0.0
 11
231.425
 21
113.2325144033
 31
0.0
  0
LINE
  5
1E7
330
1F
100
AcDbEntity
  8
0
  6
Continuous
 62
     7
370
    25
100
AcDbLine
 10
231.925
 20
115.14
 30
0.0
 11
231.925
 21
118.1906693586
 31
0.0
  0
LINE
  5
1E8
330
1F
100
AcDbEntity
  8
0
  6
Continuous
 62
     7
370
    25
100
AcDbLine
 10
231.425
 20
118.1906693586
 30
0.0
 11
231.425
 21
115.14
 31
0.0
  0
LINE
  5
1E9
330
1F
100
AcDbEntity
  8
0
  6
Continuous
 62
     7
370
    25
100
AcDbLine
 10
231.925
 20
118.1906693586
 30
0.0
 11
231.425
 21
118.1906693586
 31
0.0
  0
LINE
  5
1EA
330
1F
100
AcDbEntity
  8
0
  6
Continuous
 62
     7
370
    25
100
AcDbLine
 10
237.125
 20
113.94
 30
0.0
 11
237.125
 21
113.2325144033
 31
0.0
  0
LINE
  5
1EB
330
1F
100
AcDbEntity
  8
0
  6
Continuous
 62
     7
370
    25
100
AcDbLine
 10
236.625
 20
113.2325144033
 30
0.0
 11
237.125
 21
113.2325144033
 31
0.0
  0
LINE
  5
1EC
330
1F
100
AcDbEntity
  8
0
  6
Continuous
 62
     7
370
    25
100
AcDbLine
 10
236.625
 20
113.94
 30
0.0
 11
236.625
 21
113.2325144033
 31
0.0
  0
LINE
  5
1ED
330
1F
100
AcDbEntity
  8
0
  6
Continuous
 62
     7
370
    25
100
AcDbLine
 10
231.025
 20
113.1618244284
 30
0.0
 11
237.525
 21
113.1618244284
 31
0.0
  0
LINE
  5
1EE
330
1F
100
AcDbEntity
  8
0
  6
Continuous
 62
     7
370
    25
100
AcDbLine
 10
237.525
 20
113.1618244284
 30
0.0
 11
237.525
 21
112.672750628
 31
0.0
  0
LINE
  5
1EF
330
1F
100
AcDbEntity
  8
0
  6
Continuous
 62
     7
370
    25
100
AcDbLine
 10
231.025
 20
112.672750628
 30
0.0
 11
237.525
 21
112.672750628
 31
0.0
  0
LINE
  5
1F0
330
1F
100
AcDbEntity
  8
0
  6
Continuous
 62
     7
370
    25
100
AcDbLine
 10
232.725
 20
116.3896534284
 30
0.0
 11
232.725
 21
115.14
 31
0.0
  0
LINE
  5
1F1
330
1F
100
AcDbEntity
  8
0
  6
Continuous
 62
     7
370
    25
100
AcDbLine
 10
232.725
 20
113.94
 30
0.0
 11
232.725
 21
113.4684941724
 31
0.0
  0
LINE
  5
1F2
330
1F
100
AcDbEntity
  8
0
  6
Continuous
 62
     7
370
    25
100
AcDbLine
 10
232.725
 20
113.4684941724
 30
0.0
 11
235.825
 21
113.4684941724
 31
0.0
  0
LINE
  5
1F3
330
1F
100
AcDbEntity
  8
0
  6
Continuous
 62
     7
370
    25
100
AcDbLine
 10
235.825
 20
113.4684941724
 30
0.0
 11
235.825
 21
113.94
 31
0.0
  0
LINE
  5
1F4
330
1F
100
AcDbEntity
  8
0
  6
Continuous
 62
     7
370
    25
100
AcDbLine
 10
235.825
 20
115.84
 30
0.0
 11
235.825
 21
116.3896534284
 31
0.0
  0
LINE
  5
1F5
330
1F
100
AcDbEntity
  8
0
  6
Continuous
 62
     7
370
    25
100
AcDbLine
 10
235.825
 20
116.3896534284
 30
0.0
 11
232.725
 21
116.3896534284
 31
0.0
  0
LINE
  5
1F6
330
1F
100
AcDbEntity
  8
0
  6
Continuous
 62
     7
370
    25
100
AcDbLine
 10
237.525
 20
113.1618244284
 30
0.0
 11
237.525
 21
113.94
 31
0.0
  0
LINE
  5
1F7
330
1F
100
AcDbEntity
  8
0
  6
Continuous
 62
     7
370
    25
100
AcDbLine
 10
236.525
 20
116.6963231723
 30
0.0
 11
231.925
 21
116.6963231723
 31
0.0
  0
LINE
  5
1F8
330
1F
100
AcDbEntity
  8
0
  6
Continuous
 62
     7
370
    25
100
AcDbLine
 10
231.425
 20
116.6963231723
 30
0.0
 11
231.025
 21
116.6963231723
 31
0.0
  0
LINE
  5
1F9
330
1F
100
AcDbEntity
  8
0
  6
Continuous
 62
     7
370
    25
100
AcDbLine
 10
231.025
 20
116.6963231723
 30
0.0
 11
231.025
 21
115.14
 31
0.0
  0
LINE
  5
1FA
330
1F
100
AcDbEntity
  8
0
  6
Continuous
 62
     7
370
    25
100
AcDbLine
 10
235.825
 20
115.900579628
 30
0.0
 11
232.725
 21
115.900579628
 31
0.0
  0
LINE
  5
1FB
330
1F
100
AcDbEntity
  8
0
  6
Continuous
 62
     7
370
    25
100
AcDbLine
 10
247.775
 20
117.89
 30
0.0
 11
247.775
 21
121.19
 31
0.0
  0
LINE
  5
1FC
330
1F
100
AcDbEntity
  8
0
  6
Continuous
 62
     7
370
    25
100
AcDbLine
 10
247.025
 20
117.89
 30
0.0
 11
247.775
 21
117.89
 31
0.0
  0
LINE
  5
1FD
330
1F
100
AcDbEntity
  8
0
  6
Continuous
 62
     7
370
    25
100
AcDbLine
 10
236.025
 20
117.19
 30
0.0
 11
236.025
 21
121.19
 31
0.0
  0
LINE
  5
1FE
330
1F
100
AcDbEntity
  8
0
  6
Continuous
 62
     7
370
    25
100
AcDbLine
 10
235.525
 20
117.19
 30
0.0
 11
235.525
 21
121.19
 31
0.0
  0
LINE
  5
1FF
330
1F
100
AcDbEntity
  8
0
  6
Continuous
 62
     7
370
    25
100
AcDbLine
 10
235.525
 20
117.19
 30
0.0
 11
236.025
 21
117.19
 31
0.0
  0
LINE
  5
200
330
1F
100
AcDbEntity
  8
0
  6
Continuous
 62
     7
370
    25
100
AcDbLine
 10
247.675
 20
118.19
 30
0.0
 11
247.675
 21
121.19
 31
0.0
  0
LINE
  5
201
330
1F
100
AcDbEntity
  8
0
  6
Continuous
 62
     7
370
    25
100
AcDbLine
 10
247.025
 20
118.19
 30
0.0
 11
247.675
 21
118.19
 31
0.0
  0
LINE
  5
202
330
1F
100
AcDbEntity
  8
0
  6
Continuous
 62
     7
370
    25
100
AcDbLine
 10
231.025
 20
121.19
 30
0.0
 11
252.525
 21
121.19
 31
0.0
  0
LINE
  5
203
330
1F
100
AcDbEntity
  8
0
  6
Continuous
 62
     7
370
    25
100
AcDbLine
 10
231.025
 20
122.09
 30
0.0
 11
252.525
 21
122.09
 31
0.0
  0
LINE
  5
204
330
1F
100
AcDbEntity
  8
0
  6
Continuous
 62
     7
370
    25
100
AcDbLine
 10
231.775
 20
128.94
 30
0.0
 11
251.775
 21
128.94
 31
0.0
  0
LINE
  5
205
330
1F
100
AcDbEntity
  8
0
  6
Continuous
 62
     7
370
    25
100
AcDbLine
 10
247.025
 20
121.19
 30
0.0
 11
247.025
 21
115.84
 31
0.0
  0
LINE
  5
206
330
1F
100
AcDbEntity
  8
0
  6
Continuous
 62
     7
370
    25
100
AcDbLine
 10
236.525
 20
121.19
 30
0.0
 11
236.525
 21
115.84
 31
0.0
  0
LINE
  5
207
330
1F
100
AcDbEntity
  8
0
  6
Continuous
 62
     7
370
    25
100
AcDbLine
 10
250.025
 20
115.84
 30
0.0
 11
250.025
 21
115.14
 31
0.0
  0
LINE
  5
208
330
1F
100
AcDbEntity
  8
0
  6
Continuous
 62
     7
370
    25
100
AcDbLine
 10
233.525
 20
115.84
 30
0.0
 11
233.525
 21
115.14
 31
0.0
  0
LINE
  5
209
330
1F
100
AcDbEntity
  8
0
  6
Continuous
 62
     7
370
    25
100
AcDbLine
 10
233.525
 20
115.84
 30
0.0
 11
250.025
 21
115.84
 31
0.0
  0
LINE
  5
20A
330
1F
100
AcDbEntity
  8
0
  6
Continuous
 62
     7
370
    25
100
AcDbLine
 10
233.525
 20
115.14
 30
0.0
 11
250.025
 21
115.14
 31
0.0
  0
LINE
  5
20B
330
1F
100
AcDbEntity
  8
0
  6
Continuous
 62
     7
370
    25
100
AcDbLine
 10
252.6276811388
 20
86.54
 30
0.0
 11
252.6276811388
 21
85.94
 31
0.0
  0
LINE
  5
20C
330
1F
100
AcDbEntity
  8
0
  6
Continuous
 62
     7
370
    25
100
AcDbLine
 10
252.6276811388
 20
86.54
 30
0.0
 11
255.4223188612
 21
86.54
 31
0.0
  0
LINE
  5
20D
330
1F
100
AcDbEntity
  8
0
  6
Continuous
 62
     7
370
    25
100
AcDbLine
 10
255.4223188612
 20
85.94
 30
0.0
 11
255.4223188612
 21
86.54
 31
0.0
  0
LINE
  5
20E
330
1F
100
AcDbEntity
  8
0
  6
Continuous
 62
     7
370
    25
100
AcDbLine
 10
252.6276811388
 20
85.94
 30
0.0
 11
255.4223188612
 21
85.94
 31
0.0
  0
LINE
  5
20F
330
1F
100
AcDbEntity
  8
0
  6
Continuous
 62
     7
370
    25
100
AcDbLine
 10
252.525
 20
113.94
 30
0.0
 11
252.525
 21
85.94
 31
0.0
  0
LINE
  5
210
330
1F
100
AcDbEntity
  8
0
  6
Continuous
 62
     7
370
    25
100
AcDbLine
 10
255.525
 20
113.94
 30
0.0
 11
255.525
 21
85.94
 31
0.0
  0
LINE
  5
211
330
1F
100
AcDbEntity
  8
0
  6
Continuous
 62
     7
370
    25
100
AcDbLine
 10
252.525
 20
85.94
 30
0.0
 11
252.6276811388
 21
85.94
 31
0.0
  0
LINE
  5
212
330
1F
100
AcDbEntity
  8
0
  6
Continuous
 62
     7
370
    25
100
AcDbLine
 10
255.4223188612
 20
85.94
 30
0.0
 11
255.525
 21
85.94
 31
0.0
  0
LINE
  5
213
330
1F
100
AcDbEntity
  8
0
  6
Continuous
 62
     7
370
    25
100
AcDbLine
 10
251.975
 20
86.54
 30
0.0
 11
252.525
 21
86.54
 31
0.0
  0
LINE
  5
214
330
1F
100
AcDbEntity
  8
0
  6
Continuous
 62
     7
370
    25
100
AcDbLine
 10
251.975
 20
85.94
 30
0.0
 11
252.525
 21
85.94
 31
0.0
  0
LINE
  5
215
330
1F
100
AcDbEntity
  8
0
  6
Continuous
 62
     7
370
    25
100
AcDbLine
 10
255.525
 20
86.54
 30
0.0
 11
256.075
 21
86.54
 31
0.0
  0
LINE
  5
216
330
1F
100
AcDbEntity
  8
0
  6
Continuous
 62
     7
370
    25
100
AcDbLine
 10
255.525
 20
85.94
 30
0.0
 11
256.075
 21
85.94
 31
0.0
  0
LINE
  5
217
330
1F
100
AcDbEntity
  8
0
  6
Continuous
 62
     7
370
    25
100
AcDbLine
 10
228.1276811388
 20
86.54
 30
0.0
 11
228.1276811388
 21
85.94
 31
0.0
  0
LINE
  5
218
330
1F
100
AcDbEntity
  8
0
  6
Continuous
 62
     7
370
    25
100
AcDbLine
 10
230.9223188612
 20
85.94
 30
0.0
 11
230.9223188612
 21
86.54
 31
0.0
  0
LINE
  5
219
330
1F
100
AcDbEntity
  8
0
  6
Continuous
 62
     7
370
    25
100
AcDbLine
 10
228.1276811388
 20
86.54
 30
0.0
 11
230.9223188612
 21
86.54
 31
0.0
  0
LINE
  5
21A
330
1F
100
AcDbEntity
  8
0
  6
Continuous
 62
     7
370
    25
100
AcDbLine
 10
228.1276811388
 20
85.94
 30
0.0
 11
230.9223188612
 21
85.94
 31
0.0
  0
LINE
  5
21B
330
1F
100
AcDbEntity
  8
0
  6
Continuous
 62
     7
370
    25
100
AcDbLine
 10
228.025
 20
113.94
 30
0.0
 11
228.025
 21
85.94
 31
0.0
  0
LINE
  5
21C
330
1F
100
AcDbEntity
  8
0
  6
Continuous
 62
     7
370
    25
100
AcDbLine
 10
231.025
 20
113.94
 30
0.0
 11
231.025
 21
85.94
 31
0.0
  0
LINE
  5
21D
330
1F
100
AcDbEntity
  8
0
  6
Continuous
 62
     7
370
    25
100
AcDbLine
 10
228.025
 20
85.94
 30
0.0
 11
228.1276811388
 21
85.94
 31
0.0
  0
LINE
  5
21E
330
1F
100
AcDbEntity
  8
0
  6
Continuous
 62
     7
370
    25
100
AcDbLine
 10
230.9223188612
 20
85.94
 30
0.0
 11
231.025
 21
85.94
 31
0.0
  0
LINE
  5
21F
330
1F
100
AcDbEntity
  8
0
  6
Continuous
 62
     7
370
    25
100
AcDbLine
 10
227.475
 20
86.54
 30
0.0
 11
228.025
 21
86.54
 31
0.0
  0
LINE
  5
220
330
1F
100
AcDbEntity
  8
0
  6
Continuous
 62
     7
370
    25
100
AcDbLine
 10
227.475
 20
85.94
 30
0.0
 11
228.025
 21
85.94
 31
0.0
  0
LINE
  5
221
330
1F
100
AcDbEntity
  8
0
  6
Continuous
 62
     7
370
    25
100
AcDbLine
 10
231.025
 20
86.54
 30
0.0
 11
231.575
 21
86.54
 31
0.0
  0
LINE
  5
222
330
1F
100
AcDbEntity
  8
0
  6
Continuous
 62
     7
370
    25
100
AcDbLine
 10
231.025
 20
85.94
 30
0.0
 11
231.575
 21
85.94
 31
0.0
  0
LINE
  5
223
330
1F
100
AcDbEntity
  8
0
  6
Continuous
 62
     7
370
    25
100
AcDbLine
 10
258.025
 20
114.84
 30
0.0
 11
258.025
 21
113.94
 31
0.0
  0
LINE
  5
224
330
1F
100
AcDbEntity
  8
0
  6
Continuous
 62
     7
370
    25
100
AcDbLine
 10
225.525
 20
114.84
 30
0.0
 11
258.025
 21
114.84
 31
0.0
  0
LINE
  5
225
330
1F
100
AcDbEntity
  8
0
  6
Continuous
 62
     7
370
    25
100
AcDbLine
 10
225.525
 20
114.84
 30
0.0
 11
225.525
 21
113.94
 31
0.0
  0
LINE
  5
226
330
1F
100
AcDbEntity
  8
0
  6
Continuous
 62
     7
370
    25
100
AcDbLine
 10
225.525
 20
113.94
 30
0.0
 11
258.025
 21
113.94
 31
0.0
  0
LINE
  5
227
330
1F
100
AcDbEntity
  8
0
  6
Continuous
 62
     7
370
    25
100
AcDbLine
 10
256.025
 20
115.14
 30
0.0
 11
256.025
 21
114.84
 31
0.0
  0
LINE
  5
228
330
1F
100
AcDbEntity
  8
0
  6
Continuous
 62
     7
370
    25
100
AcDbLine
 10
227.525
 20
115.14
 30
0.0
 11
233.525
 21
115.14
 31
0.0
  0
LINE
  5
229
330
1F
100
AcDbEntity
  8
0
  6
Continuous
 62
     7
370
    25
100
AcDbLine
 10
250.025
 20
115.14
 30
0.0
 11
256.025
 21
115.14
 31
0.0
  0
LINE
  5
22A
330
1F
100
AcDbEntity
  8
0
  6
Continuous
 62
     7
370
    25
100
AcDbLine
 10
227.525
 20
115.14
 30
0.0
 11
227.525
 21
114.84
 31
0.0
  0
ENDSEC
  0
SECTION
  2
OBJECTS
  0
DICTIONARY
  5
C
330
0
100
AcDbDictionary
281
     1
  3
ACAD_GROUP
350
D
  3
ACAD_LAYOUT
350
1A
  3
ACAD_MLINESTYLE
350
17
  3
ACAD_PLOTSETTINGS
350
19
  3
ACAD_PLOTSTYLENAME
350
E
  3
ACAD_SCALELIST
350
47
  3
DWGPROPS
350
22B
  0
DICTIONARY
  5
D
102
{ACAD_REACTORS
330
C
102
}
330
C
100
AcDbDictionary
281
     1
  0
DICTIONARY
  5
1A
102
{ACAD_REACTORS
330
C
102
}
330
C
100
AcDbDictionary
281
     1
  3
Layout1
350
1E
  3
Layout2
350
26
  3
Model
350
22
  0
DICTIONARY
  5
17
102
{ACAD_REACTORS
330
C
102
}
330
C
100
AcDbDictionary
281
     1
  3
Standard
350
18
  0
DICTIONARY
  5
19
102
{ACAD_REACTORS
330
C
102
}
330
C
100
AcDbDictionary
281
     1
  0
ACDBDICTIONARYWDFLT
  5
E
102
{ACAD_REACTORS
330
C
102
}
330
C
100
AcDbDictionary
281
     1
  3
Normal
350
F
100
AcDbDictionaryWithDefault
340
F
  0
DICTIONARY
  5
47
102
{ACAD_REACTORS
330
C
102
}
330
C
100
AcDbDictionary
281
     1
  3
A0
350
48
  3
A1
350
49
  3
A2
350
4A
  3
A3
350
4B
  3
A4
350
4C
  3
A5
350
4D
  3
A6
350
4E
  3
A7
350
4F
  3
A8
350
50
  3
A9
350
51
  3
B0
350
52
  3
B1
350
53
  3
B2
350
54
  3
B3
350
55
  3
B4
350
56
  3
B5
350
57
  3
B6
350
58
  0
XRECORD
  5
22B
102
{ACAD_REACTORS
330
C
102
}
330
C
100
AcDbXrecord
280
     1
  1
DWGPROPS COOKIE
  2

  3

  4

  6

  7

  8
Administrator
  9

300
=
301
=
302
=
303
=
304
=
305
=
306
=
307
=
308
=
309
=
 40
0.0
 41
2461250.684755591
 42
2461250.684758935
  1

 90
        0
  0
LAYOUT
  5
1E
102
{ACAD_REACTORS
330
1A
102
}
330
1A
100
AcDbPlotSettings
  1

  2
none_device
  4

  6

 40
0.0
 41
0.0
 42
0.0
 43
0.0
 44
0.0
 45
0.0
 46
0.0
 47
0.0
 48
0.0
 49
0.0
140
0.0
141
0.0
142
1.0
143
1.0
 70
   688
 72
     1
 73
     0
 74
     5
  7

 75
    16
147
1.0
148
0.0
149
0.0
100
AcDbLayout
  1
Layout1
 70
     1
 71
     1
 10
0.0
 20
0.0
 11
420.0
 21
297.0
 12
0.0
 22
0.0
 32
0.0
 14
1.0000000000E+20
 24
1.0000000000E+20
 34
1.0000000000E+20
 15
-1.0000000000E+20
 25
-1.0000000000E+20
 35
-1.0000000000E+20
146
0.0
 13
0.0
 23
0.0
 33
0.0
 16
1.0
 26
0.0
 36
0.0
 17
0.0
 27
1.0
 37
0.0
 76
     0
330
1B
  0
LAYOUT
  5
26
102
{ACAD_REACTORS
330
1A
102
}
330
1A
100
AcDbPlotSettings
  1

  2
none_device
  4

  6

 40
0.0
 41
0.0
 42
0.0
 43
0.0
 44
0.0
 45
0.0
 46
0.0
 47
0.0
 48
0.0
 49
0.0
140
0.0
141
0.0
142
1.0
143
1.0
 70
   688
 72
     1
 73
     0
 74
     5
  7

 75
    16
147
1.0
148
0.0
149
0.0
100
AcDbLayout
  1
Layout2
 70
     1
 71
     2
 10
0.0
 20
0.0
 11
0.0
 21
0.0
 12
0.0
 22
0.0
 32
0.0
 14
0.0
 24
0.0
 34
0.0
 15
0.0
 25
0.0
 35
0.0
146
0.0
 13
0.0
 23
0.0
 33
0.0
 16
1.0
 26
0.0
 36
0.0
 17
0.0
 27
1.0
 37
0.0
 76
     0
330
23
  0
LAYOUT
  5
22
102
{ACAD_REACTORS
330
1A
102
}
330
1A
100
AcDbPlotSettings
  1

  2
none_device
  4
Letter_(8.50_x_11.00_Inches)
  6

 40
6.35
 41
6.35
 42
6.35000508
 43
6.35000508
 44
215.9
 45
279.4
 46
0.0
 47
0.0
 48
0.0
 49
0.0
140
0.0
141
0.0
142
1.0
143
1.0
 70
  1712
 72
     1
 73
     0
 74
     0
  7

 75
     0
147
1.0
148
0.0
149
0.0
100
AcDbLayout
  1
Model
 70
     1
 71
     0
 10
0.0
 20
0.0
 11
420.0
 21
297.0
 12
0.0
 22
0.0
 32
0.0
 14
0.0
 24
0.0
 34
0.0
 15
420.0
 25
297.0
 35
0.0
146
0.0
 13
0.0
 23
0.0
 33
0.0
 16
1.0
 26
0.0
 36
0.0
 17
0.0
 27
1.0
 37
0.0
 76
     0
330
1F
331
29
  0
MLINESTYLE
  5
18
102
{ACAD_REACTORS
330
17
102
}
330
17
100
AcDbMlineStyle
  2
Standard
 70
     0
  3

 62
   256
 51
90.0
 52
90.0
 71
     2
 49
0.5
 62
   256
  6
BYLAYER
 49
-0.5
 62
   256
  6
BYLAYER
  0
ACDBPLACEHOLDER
  5
F
102
{ACAD_REACTORS
330
E
102
}
330
E
  0
SCALE
  5
48
102
{ACAD_REACTORS
330
47
102
}
330
47
100
AcDbScale
 70
     0
300
1:1
140
1.0
141
1.0
290
     1
  0
SCALE
  5
49
102
{ACAD_REACTORS
330
47
102
}
330
47
100
AcDbScale
 70
     0
300
1:2
140
1.0
141
2.0
290
     0
  0
SCALE
  5
4A
102
{ACAD_REACTORS
330
47
102
}
330
47
100
AcDbScale
 70
     0
300
1:4
140
1.0
141
4.0
290
     0
  0
SCALE
  5
4B
102
{ACAD_REACTORS
330
47
102
}
330
47
100
AcDbScale
 70
     0
300
1:5
140
1.0
141
5.0
290
     0
  0
SCALE
  5
4C
102
{ACAD_REACTORS
330
47
102
}
330
47
100
AcDbScale
 70
     0
300
1:8
140
1.0
141
8.0
290
     0
  0
SCALE
  5
4D
102
{ACAD_REACTORS
330
47
102
}
330
47
100
AcDbScale
 70
     0
300
1:10
140
1.0
141
10.0
290
     0
  0
SCALE
  5
4E
102
{ACAD_REACTORS
330
47
102
}
330
47
100
AcDbScale
 70
     0
300
1:16
140
1.0
141
16.0
290
     0
  0
SCALE
  5
4F
102
{ACAD_REACTORS
330
47
102
}
330
47
100
AcDbScale
 70
     0
300
1:20
140
1.0
141
20.0
290
     0
  0
SCALE
  5
50
102
{ACAD_REACTORS
330
47
102
}
330
47
100
AcDbScale
 70
     0
300
1:30
140
1.0
141
30.0
290
     0
  0
SCALE
  5
51
102
{ACAD_REACTORS
330
47
102
}
330
47
100
AcDbScale
 70
     0
300
1:40
140
1.0
141
40.0
290
     0
  0
SCALE
  5
52
102
{ACAD_REACTORS
330
47
102
}
330
47
100
AcDbScale
 70
     0
300
1:50
140
1.0
141
50.0
290
     0
  0
SCALE
  5
53
102
{ACAD_REACTORS
330
47
102
}
330
47
100
AcDbScale
 70
     0
300
1:100
140
1.0
141
100.0
290
     0
  0
SCALE
  5
54
102
{ACAD_REACTORS
330
47
102
}
330
47
100
AcDbScale
 70
     0
300
2:1
140
2.0
141
1.0
290
     0
  0
SCALE
  5
55
102
{ACAD_REACTORS
330
47
102
}
330
47
100
AcDbScale
 70
     0
300
4:1
140
4.0
141
1.0
290
     0
  0
SCALE
  5
56
102
{ACAD_REACTORS
330
47
102
}
330
47
100
AcDbScale
 70
     0
300
8:1
140
8.0
141
1.0
290
     0
  0
SCALE
  5
57
102
{ACAD_REACTORS
330
47
102
}
330
47
100
AcDbScale
 70
     0
300
10:1
140
10.0
141
1.0
290
     0
  0
SCALE
  5
58
102
{ACAD_REACTORS
330
47
102
}
330
47
100
AcDbScale
 70
     0
300
100:1
140
100.0
141
1.0
290
     0
  0
ENDSEC
  0
EOF
